{"glyphs":{"0":{"ha":1251,"x_min":65,"x_max":1186,"o":"m 1186 486 q 1154 674 1186 586 q 1063 830 1122 763 q 922 935 1004 897 q 739 972 839 972 l 513 972 q 329 935 411 972 q 188 830 247 897 q 97 674 129 763 q 65 486 65 586 q 97 297 65 385 q 188 142 129 208 q 329 38 247 75 q 513 0 411 0 l 739 0 q 922 38 839 0 q 1063 142 1004 75 q 1154 297 1122 208 q 1186 486 1186 385 m 1047 486 q 1010 312 1047 390 q 904 186 974 233 q 739 139 835 139 l 513 139 q 348 186 417 139 q 242 312 279 233 q 204 486 204 390 q 242 661 204 582 q 348 787 279 740 q 513 833 417 833 l 739 833 q 904 787 835 833 q 1010 661 974 740 q 1047 486 1047 582 "},"1":{"ha":435,"x_min":40,"x_max":318,"o":"m 318 0 l 318 972 l 40 972 l 40 833 l 179 833 l 179 0 l 318 0 "},"2":{"ha":1038,"x_min":63,"x_max":965,"o":"m 965 0 l 965 139 l 200 139 l 200 278 q 242 376 200 335 q 340 417 283 417 l 688 417 q 827 454 764 417 q 928 555 890 492 q 965 694 965 618 q 928 834 965 771 q 827 935 890 897 q 688 972 764 972 l 132 972 l 132 833 l 688 833 q 785 792 744 833 q 826 694 826 751 q 785 597 826 638 q 688 556 744 556 l 340 556 q 201 518 264 556 q 100 417 138 481 q 63 278 63 354 l 63 0 l 965 0 "},"3":{"ha":1050,"x_min":68,"x_max":971,"o":"m 971 694 q 933 834 971 771 q 833 935 896 897 q 693 972 769 972 l 68 972 l 68 833 l 693 833 q 791 792 750 833 q 832 694 832 751 q 791 597 832 638 q 693 556 750 556 l 243 556 l 243 417 l 693 417 q 791 376 750 417 q 832 278 832 335 q 791 180 832 221 q 693 139 750 139 l 68 139 l 68 0 l 693 0 q 833 38 769 0 q 933 138 896 75 q 971 278 971 201 q 945 393 971 339 q 875 486 919 447 q 945 578 919 524 q 971 694 971 632 "},"4":{"ha":1144,"x_min":56,"x_max":1028,"o":"m 56 972 l 56 625 q 93 485 56 549 q 194 385 131 422 q 333 347 257 347 l 889 347 l 889 0 l 1028 0 l 1028 972 l 889 972 l 889 486 l 333 486 q 235 527 276 486 q 194 625 194 568 l 194 972 l 56 972 "},"5":{"ha":1046,"x_min":89,"x_max":994,"o":"m 994 313 q 953 469 994 399 q 840 583 911 540 q 682 625 769 625 l 229 625 l 229 833 l 925 833 l 925 972 l 90 972 l 90 486 l 682 486 q 769 463 731 486 q 832 400 808 439 q 856 313 856 361 q 832 226 856 265 q 769 163 808 186 q 682 139 731 139 l 89 139 l 89 0 l 682 0 q 840 42 769 0 q 953 156 911 85 q 994 313 994 226 "},"6":{"ha":1113,"x_min":89,"x_max":1061,"o":"m 1061 313 q 1019 469 1061 399 q 906 583 976 540 q 749 625 835 625 l 297 625 l 297 486 l 749 486 q 836 463 797 486 q 899 400 875 439 q 922 313 922 361 q 899 226 922 265 q 836 163 875 186 q 749 139 797 139 l 401 139 q 315 163 354 139 q 251 226 275 186 q 228 313 228 265 l 228 660 q 251 747 228 708 q 315 810 275 786 q 401 833 354 833 l 992 833 l 992 972 l 401 972 q 244 930 315 972 q 131 817 174 888 q 89 660 89 746 l 89 313 q 131 156 89 226 q 244 42 174 85 q 401 0 315 0 l 749 0 q 906 42 835 0 q 1019 156 976 85 q 1061 313 1061 226 "},"7":{"ha":1029,"x_min":39,"x_max":1011,"o":"m 1011 833 l 1011 972 l 39 972 l 39 833 l 821 833 l 100 0 l 290 0 l 1011 833 "},"8":{"ha":1164,"x_min":61,"x_max":1103,"o":"m 1033 694 q 996 834 1033 771 q 895 935 958 897 q 756 972 832 972 l 408 972 q 269 935 332 972 q 168 834 206 897 q 131 694 131 771 q 196 515 131 592 q 99 416 136 479 q 61 278 61 353 q 99 138 61 201 q 199 38 136 75 q 339 0 263 0 l 825 0 q 965 38 901 0 q 1065 138 1028 75 q 1103 278 1103 201 q 1065 416 1103 353 q 967 515 1028 479 q 1016 597 999 551 q 1033 694 1033 643 m 756 556 l 408 556 q 310 597 350 556 q 269 694 269 638 q 310 792 269 751 q 408 833 350 833 l 756 833 q 853 792 813 833 q 894 694 894 751 q 853 597 894 638 q 756 556 813 556 m 339 417 l 825 417 q 923 376 882 417 q 964 278 964 335 q 923 180 964 221 q 825 139 882 139 l 339 139 q 240 180 281 139 q 200 278 200 221 q 240 376 200 335 q 339 417 281 417 "},"9":{"ha":1113,"x_min":51,"x_max":1024,"o":"m 1024 313 l 1024 660 q 981 817 1024 746 q 868 930 939 888 q 711 972 797 972 l 364 972 q 206 930 278 972 q 93 817 135 888 q 51 660 51 746 q 93 503 51 574 q 206 390 135 432 q 364 347 278 347 l 815 347 l 815 486 l 364 486 q 277 510 317 486 q 214 573 238 533 q 190 660 190 613 q 214 747 190 708 q 277 810 238 786 q 364 833 317 833 l 711 833 q 799 810 760 833 q 861 747 838 786 q 885 660 885 708 l 885 313 q 861 226 885 265 q 799 163 838 186 q 711 139 760 139 l 121 139 l 121 0 l 711 0 q 868 42 797 0 q 981 156 939 85 q 1024 313 1024 226 "},"A":{"ha":1339,"x_min":100,"x_max":1222,"o":"m 1222 0 l 1222 972 l 585 972 q 397 935 485 972 q 242 830 308 897 q 138 674 175 763 q 100 486 100 586 l 100 0 l 239 0 l 239 486 q 285 661 239 582 q 411 787 332 740 q 585 833 490 833 l 1083 833 l 1083 417 l 307 417 l 307 278 l 1083 278 l 1083 0 l 1222 0 "},"Á":{"ha":1339,"x_min":100,"x_max":1222,"o":"m 1222 0 l 1222 972 l 585 972 q 397 935 485 972 q 242 830 308 897 q 138 674 175 763 q 100 486 100 586 l 100 0 l 239 0 l 239 486 q 285 661 239 582 q 411 787 332 740 q 585 833 490 833 l 1083 833 l 1083 417 l 307 417 l 307 278 l 1083 278 l 1083 0 l 1222 0 m 943 1140 l 890 1260 l 656 1122 l 689 1049 l 943 1140 "},"Ă":{"ha":1339,"x_min":100,"x_max":1222,"o":"m 1222 0 l 1222 972 l 585 972 q 397 935 485 972 q 242 830 308 897 q 138 674 175 763 q 100 486 100 586 l 100 0 l 239 0 l 239 486 q 285 661 239 582 q 411 787 332 740 q 585 833 490 833 l 1083 833 l 1083 417 l 307 417 l 307 278 l 1083 278 l 1083 0 l 1222 0 m 868 1239 l 776 1239 q 763 1210 774 1228 q 731 1180 753 1193 q 669 1167 708 1167 q 609 1180 631 1167 q 577 1210 588 1193 q 563 1239 567 1228 l 471 1239 q 480 1190 472 1221 q 508 1128 488 1160 q 568 1074 529 1096 q 669 1053 607 1053 q 771 1074 732 1053 q 831 1128 810 1096 q 859 1190 851 1160 q 868 1239 867 1221 "},"Â":{"ha":1339,"x_min":100,"x_max":1222,"o":"m 1222 0 l 1222 972 l 585 972 q 397 935 485 972 q 242 830 308 897 q 138 674 175 763 q 100 486 100 586 l 100 0 l 239 0 l 239 486 q 285 661 239 582 q 411 787 332 740 q 585 833 490 833 l 1083 833 l 1083 417 l 307 417 l 307 278 l 1083 278 l 1083 0 l 1222 0 m 824 1049 l 883 1118 l 654 1261 l 439 1118 l 485 1049 l 654 1138 l 824 1049 "},"Ä":{"ha":1339,"x_min":100,"x_max":1222,"o":"m 1222 0 l 1222 972 l 585 972 q 397 935 485 972 q 242 830 308 897 q 138 674 175 763 q 100 486 100 586 l 100 0 l 239 0 l 239 486 q 285 661 239 582 q 411 787 332 740 q 585 833 490 833 l 1083 833 l 1083 417 l 307 417 l 307 278 l 1083 278 l 1083 0 l 1222 0 m 611 1114 q 592 1158 611 1139 q 549 1176 574 1176 q 503 1158 522 1176 q 485 1114 485 1139 q 503 1069 485 1088 q 549 1051 522 1051 q 592 1069 574 1051 q 611 1114 611 1088 m 838 1114 q 819 1158 838 1139 q 774 1176 800 1176 q 729 1158 747 1176 q 711 1114 711 1139 q 729 1069 711 1088 q 774 1051 747 1051 q 819 1069 800 1051 q 838 1114 838 1088 "},"À":{"ha":1339,"x_min":100,"x_max":1222,"o":"m 1222 0 l 1222 972 l 585 972 q 397 935 485 972 q 242 830 308 897 q 138 674 175 763 q 100 486 100 586 l 100 0 l 239 0 l 239 486 q 285 661 239 582 q 411 787 332 740 q 585 833 490 833 l 1083 833 l 1083 417 l 307 417 l 307 278 l 1083 278 l 1083 0 l 1222 0 m 431 1260 l 378 1140 l 632 1049 l 665 1122 l 431 1260 "},"Ā":{"ha":1339,"x_min":100,"x_max":1222,"o":"m 1222 0 l 1222 972 l 585 972 q 397 935 485 972 q 242 830 308 897 q 138 674 175 763 q 100 486 100 586 l 100 0 l 239 0 l 239 486 q 285 661 239 582 q 411 787 332 740 q 585 833 490 833 l 1083 833 l 1083 417 l 307 417 l 307 278 l 1083 278 l 1083 0 l 1222 0 m 506 1058 l 833 1058 l 833 1172 l 506 1172 l 506 1058 "},"Ą":{"ha":1339,"x_min":100,"x_max":1306,"o":"m 1222 0 l 1222 972 l 585 972 q 397 935 485 972 q 242 830 308 897 q 138 674 175 763 q 100 486 100 586 l 100 0 l 239 0 l 239 486 q 285 661 239 582 q 411 787 332 740 q 585 833 490 833 l 1083 833 l 1083 417 l 307 417 l 307 278 l 1083 278 l 1083 0 l 1099 0 q 1055 -58 1068 -24 q 1042 -118 1042 -93 q 1079 -190 1042 -169 q 1168 -210 1117 -210 q 1256 -201 1224 -210 q 1306 -187 1288 -193 l 1306 -97 q 1255 -113 1288 -104 q 1199 -122 1222 -122 q 1146 -89 1146 -122 q 1159 -44 1146 -68 q 1196 0 1172 -19 l 1222 0 "},"Å":{"ha":1339,"x_min":100,"x_max":1222,"o":"m 1222 0 l 1222 972 l 585 972 q 397 935 485 972 q 242 830 308 897 q 138 674 175 763 q 100 486 100 586 l 100 0 l 239 0 l 239 486 q 285 661 239 582 q 411 787 332 740 q 585 833 490 833 l 1083 833 l 1083 417 l 307 417 l 307 278 l 1083 278 l 1083 0 l 1222 0 m 518 1140 q 556 1058 518 1093 q 661 1022 594 1022 q 765 1058 726 1022 q 804 1140 804 1093 q 767 1224 804 1189 q 661 1258 731 1258 q 558 1224 599 1258 q 518 1140 518 1189 m 614 1140 q 626 1174 614 1160 q 661 1188 638 1188 q 697 1174 685 1188 q 708 1140 708 1160 q 697 1107 708 1121 q 661 1093 685 1093 q 626 1107 638 1093 q 614 1140 614 1121 "},"Ã":{"ha":1339,"x_min":100,"x_max":1222,"o":"m 1222 0 l 1222 972 l 585 972 q 397 935 485 972 q 242 830 308 897 q 138 674 175 763 q 100 486 100 586 l 100 0 l 239 0 l 239 486 q 285 661 239 582 q 411 787 332 740 q 585 833 490 833 l 1083 833 l 1083 417 l 307 417 l 307 278 l 1083 278 l 1083 0 l 1222 0 m 854 1214 l 767 1214 q 764 1193 767 1207 q 752 1167 761 1179 q 724 1156 743 1156 q 683 1170 701 1156 q 644 1199 665 1185 q 592 1214 624 1214 q 506 1172 543 1214 q 468 1047 468 1131 l 554 1047 q 558 1068 556 1054 q 570 1094 561 1082 q 599 1106 579 1106 q 637 1091 621 1106 q 674 1062 653 1076 q 731 1047 696 1047 q 818 1084 782 1047 q 854 1214 854 1121 "},"Æ":{"ha":2146,"x_min":100,"x_max":2090,"o":"m 2090 0 l 2090 139 l 1224 139 l 1224 833 l 2090 833 l 2090 972 l 585 972 q 397 935 485 972 q 242 830 308 897 q 138 674 175 763 q 100 486 100 586 l 100 0 l 239 0 l 239 486 q 285 661 239 582 q 411 787 332 740 q 585 833 490 833 l 1083 833 l 1083 417 l 307 417 l 307 278 l 1083 278 l 1083 0 l 2090 0 m 1972 417 l 1972 556 l 1293 556 l 1293 417 l 1972 417 "},"Ǽ":{"ha":2146,"x_min":100,"x_max":2090,"o":"m 2090 0 l 2090 139 l 1224 139 l 1224 833 l 2090 833 l 2090 972 l 585 972 q 397 935 485 972 q 242 830 308 897 q 138 674 175 763 q 100 486 100 586 l 100 0 l 239 0 l 239 486 q 285 661 239 582 q 411 787 332 740 q 585 833 490 833 l 1083 833 l 1083 417 l 307 417 l 307 278 l 1083 278 l 1083 0 l 2090 0 m 1972 417 l 1972 556 l 1293 556 l 1293 417 l 1972 417 m 1439 1126 l 1386 1246 l 1151 1108 l 1185 1035 l 1439 1126 "},"B":{"ha":1307,"x_min":117,"x_max":1261,"o":"m 1261 278 q 1209 440 1261 368 q 1075 539 1157 511 q 1110 612 1097 572 q 1122 694 1122 651 q 1085 834 1122 771 q 984 935 1047 897 q 844 972 921 972 l 117 972 l 117 0 l 256 0 l 256 833 l 844 833 q 942 792 901 833 q 983 694 983 751 q 942 597 983 638 q 844 556 901 556 l 325 556 l 325 417 l 983 417 q 1081 376 1040 417 q 1122 278 1122 335 q 1081 180 1122 221 q 983 139 1040 139 l 325 139 l 325 0 l 983 0 q 1123 38 1060 0 q 1224 138 1186 75 q 1261 278 1261 201 "},"C":{"ha":1186,"x_min":61,"x_max":1135,"o":"m 1135 0 l 1135 139 l 508 139 q 344 186 413 139 q 238 312 275 233 q 200 486 200 390 q 238 661 200 582 q 344 787 275 740 q 508 833 413 833 l 1135 833 l 1135 972 l 508 972 q 325 935 407 972 q 184 830 243 897 q 93 674 125 763 q 61 486 61 586 q 93 297 61 385 q 184 142 125 208 q 325 38 243 75 q 508 0 407 0 l 1135 0 "},"Ć":{"ha":1186,"x_min":61,"x_max":1135,"o":"m 1135 0 l 1135 139 l 508 139 q 344 186 413 139 q 238 312 275 233 q 200 486 200 390 q 238 661 200 582 q 344 787 275 740 q 508 833 413 833 l 1135 833 l 1135 972 l 508 972 q 325 935 407 972 q 184 830 243 897 q 93 674 125 763 q 61 486 61 586 q 93 297 61 385 q 184 142 125 208 q 325 38 243 75 q 508 0 407 0 l 1135 0 m 944 1140 l 892 1260 l 657 1122 l 690 1049 l 944 1140 "},"Č":{"ha":1186,"x_min":61,"x_max":1135,"o":"m 1135 0 l 1135 139 l 508 139 q 344 186 413 139 q 238 312 275 233 q 200 486 200 390 q 238 661 200 582 q 344 787 275 740 q 508 833 413 833 l 1135 833 l 1135 972 l 508 972 q 325 935 407 972 q 184 830 243 897 q 93 674 125 763 q 61 486 61 586 q 93 297 61 385 q 184 142 125 208 q 325 38 243 75 q 508 0 407 0 l 1135 0 m 507 1247 l 461 1179 l 676 1035 l 892 1179 l 846 1247 l 676 1160 l 507 1247 "},"Ç":{"ha":1186,"x_min":61,"x_max":1135,"o":"m 1135 0 l 1135 139 l 508 139 q 344 186 413 139 q 238 312 275 233 q 200 486 200 390 q 238 661 200 582 q 344 787 275 740 q 508 833 413 833 l 1135 833 l 1135 972 l 508 972 q 325 935 407 972 q 184 830 243 897 q 93 674 125 763 q 61 486 61 586 q 93 297 61 385 q 184 142 125 208 q 325 38 243 75 q 508 0 407 0 l 632 0 l 594 -101 q 617 -97 606 -99 q 640 -96 629 -96 q 676 -101 656 -96 q 697 -121 697 -106 q 679 -140 697 -133 q 633 -146 661 -146 q 581 -140 607 -146 q 535 -124 554 -133 l 535 -210 q 574 -216 554 -211 q 644 -221 594 -221 q 716 -212 681 -221 q 775 -181 751 -203 q 799 -122 799 -160 q 781 -66 799 -85 q 740 -40 764 -47 q 696 -33 715 -33 l 708 0 l 1135 0 "},"Ĉ":{"ha":1186,"x_min":61,"x_max":1135,"o":"m 1135 0 l 1135 139 l 508 139 q 344 186 413 139 q 238 312 275 233 q 200 486 200 390 q 238 661 200 582 q 344 787 275 740 q 508 833 413 833 l 1135 833 l 1135 972 l 508 972 q 325 935 407 972 q 184 830 243 897 q 93 674 125 763 q 61 486 61 586 q 93 297 61 385 q 184 142 125 208 q 325 38 243 75 q 508 0 407 0 l 1135 0 m 839 1049 l 899 1118 l 669 1261 l 454 1118 l 500 1049 l 669 1138 l 839 1049 "},"Ċ":{"ha":1186,"x_min":61,"x_max":1135,"o":"m 1135 0 l 1135 139 l 508 139 q 344 186 413 139 q 238 312 275 233 q 200 486 200 390 q 238 661 200 582 q 344 787 275 740 q 508 833 413 833 l 1135 833 l 1135 972 l 508 972 q 325 935 407 972 q 184 830 243 897 q 93 674 125 763 q 61 486 61 586 q 93 297 61 385 q 184 142 125 208 q 325 38 243 75 q 508 0 407 0 l 1135 0 m 739 1114 q 720 1158 739 1139 q 676 1176 701 1176 q 632 1158 650 1176 q 614 1114 614 1139 q 632 1069 614 1088 q 676 1051 650 1051 q 720 1069 701 1051 q 739 1114 739 1088 "},"D":{"ha":1324,"x_min":117,"x_max":1263,"o":"m 1263 486 q 1231 674 1263 586 q 1140 830 1199 763 q 998 935 1081 897 q 815 972 915 972 l 117 972 l 117 0 l 256 0 l 256 833 l 815 833 q 981 787 911 833 q 1087 661 1050 740 q 1124 486 1124 582 q 1087 312 1124 390 q 981 186 1050 233 q 815 139 911 139 l 325 139 l 325 0 l 815 0 q 998 38 915 0 q 1140 142 1081 75 q 1231 297 1199 208 q 1263 486 1263 385 "},"Ð":{"ha":1386,"x_min":-1,"x_max":1325,"o":"m 763 417 l 763 556 l 318 556 l 318 833 l 878 833 q 1043 787 974 833 q 1149 661 1113 740 q 1186 486 1186 582 q 1149 312 1186 390 q 1043 186 1113 233 q 878 139 974 139 l 388 139 l 388 0 l 878 0 q 1060 38 978 0 q 1202 142 1143 75 q 1293 297 1261 208 q 1325 486 1325 385 q 1293 674 1325 586 q 1202 830 1261 763 q 1060 935 1143 897 q 878 972 978 972 l 179 972 l 179 556 l -1 556 l -1 417 l 179 417 l 179 0 l 318 0 l 318 417 l 763 417 "},"Ď":{"ha":1324,"x_min":117,"x_max":1263,"o":"m 1263 486 q 1231 674 1263 586 q 1140 830 1199 763 q 998 935 1081 897 q 815 972 915 972 l 117 972 l 117 0 l 256 0 l 256 833 l 815 833 q 981 787 911 833 q 1087 661 1050 740 q 1124 486 1124 582 q 1087 312 1124 390 q 981 186 1050 233 q 815 139 911 139 l 325 139 l 325 0 l 815 0 q 998 38 915 0 q 1140 142 1081 75 q 1231 297 1199 208 q 1263 486 1263 385 m 492 1247 l 446 1179 l 661 1035 l 876 1179 l 831 1247 l 661 1160 l 492 1247 "},"Đ":{"ha":1386,"x_min":-1,"x_max":1325,"o":"m 763 417 l 763 556 l 318 556 l 318 833 l 878 833 q 1043 787 974 833 q 1149 661 1113 740 q 1186 486 1186 582 q 1149 312 1186 390 q 1043 186 1113 233 q 878 139 974 139 l 388 139 l 388 0 l 878 0 q 1060 38 978 0 q 1202 142 1143 75 q 1293 297 1261 208 q 1325 486 1325 385 q 1293 674 1325 586 q 1202 830 1261 763 q 1060 935 1143 897 q 878 972 978 972 l 179 972 l 179 556 l -1 556 l -1 417 l 179 417 l 179 0 l 318 0 l 318 417 l 763 417 "},"E":{"ha":1178,"x_min":117,"x_max":1122,"o":"m 1122 0 l 1122 139 l 256 139 l 256 833 l 1122 833 l 1122 972 l 117 972 l 117 0 l 1122 0 m 1004 417 l 1004 556 l 325 556 l 325 417 l 1004 417 "},"É":{"ha":1178,"x_min":117,"x_max":1122,"o":"m 1122 0 l 1122 139 l 256 139 l 256 833 l 1122 833 l 1122 972 l 117 972 l 117 0 l 1122 0 m 1004 417 l 1004 556 l 325 556 l 325 417 l 1004 417 m 901 1140 l 849 1260 l 614 1122 l 647 1049 l 901 1140 "},"Ĕ":{"ha":1178,"x_min":117,"x_max":1122,"o":"m 1122 0 l 1122 139 l 256 139 l 256 833 l 1122 833 l 1122 972 l 117 972 l 117 0 l 1122 0 m 1004 417 l 1004 556 l 325 556 l 325 417 l 1004 417 m 829 1239 l 738 1239 q 724 1210 735 1228 q 692 1180 714 1193 q 631 1167 669 1167 q 570 1180 592 1167 q 538 1210 549 1193 q 524 1239 528 1228 l 432 1239 q 441 1190 433 1221 q 469 1128 449 1160 q 529 1074 490 1096 q 631 1053 568 1053 q 732 1074 693 1053 q 792 1128 771 1096 q 820 1190 813 1160 q 829 1239 828 1221 "},"Ě":{"ha":1178,"x_min":117,"x_max":1122,"o":"m 1122 0 l 1122 139 l 256 139 l 256 833 l 1122 833 l 1122 972 l 117 972 l 117 0 l 1122 0 m 1004 417 l 1004 556 l 325 556 l 325 417 l 1004 417 m 461 1247 l 415 1179 l 631 1035 l 846 1179 l 800 1247 l 631 1160 l 461 1247 "},"Ê":{"ha":1178,"x_min":117,"x_max":1122,"o":"m 1122 0 l 1122 139 l 256 139 l 256 833 l 1122 833 l 1122 972 l 117 972 l 117 0 l 1122 0 m 1004 417 l 1004 556 l 325 556 l 325 417 l 1004 417 m 782 1049 l 842 1118 l 613 1261 l 397 1118 l 443 1049 l 613 1138 l 782 1049 "},"Ë":{"ha":1178,"x_min":117,"x_max":1122,"o":"m 1122 0 l 1122 139 l 256 139 l 256 833 l 1122 833 l 1122 972 l 117 972 l 117 0 l 1122 0 m 1004 417 l 1004 556 l 325 556 l 325 417 l 1004 417 m 569 1114 q 551 1158 569 1139 q 507 1176 532 1176 q 462 1158 481 1176 q 443 1114 443 1139 q 462 1069 443 1088 q 507 1051 481 1051 q 551 1069 532 1051 q 569 1114 569 1088 m 796 1114 q 777 1158 796 1139 q 732 1176 758 1176 q 688 1158 706 1176 q 669 1114 669 1139 q 688 1069 669 1088 q 732 1051 706 1051 q 777 1069 758 1051 q 796 1114 796 1088 "},"Ė":{"ha":1178,"x_min":117,"x_max":1122,"o":"m 1122 0 l 1122 139 l 256 139 l 256 833 l 1122 833 l 1122 972 l 117 972 l 117 0 l 1122 0 m 1004 417 l 1004 556 l 325 556 l 325 417 l 1004 417 m 693 1114 q 674 1158 693 1139 q 631 1176 656 1176 q 586 1158 604 1176 q 568 1114 568 1139 q 586 1069 568 1088 q 631 1051 604 1051 q 674 1069 656 1051 q 693 1114 693 1088 "},"È":{"ha":1178,"x_min":117,"x_max":1122,"o":"m 1122 0 l 1122 139 l 256 139 l 256 833 l 1122 833 l 1122 972 l 117 972 l 117 0 l 1122 0 m 1004 417 l 1004 556 l 325 556 l 325 417 l 1004 417 m 389 1260 l 336 1140 l 590 1049 l 624 1122 l 389 1260 "},"Ē":{"ha":1178,"x_min":117,"x_max":1122,"o":"m 1122 0 l 1122 139 l 256 139 l 256 833 l 1122 833 l 1122 972 l 117 972 l 117 0 l 1122 0 m 1004 417 l 1004 556 l 325 556 l 325 417 l 1004 417 m 467 1058 l 794 1058 l 794 1172 l 467 1172 l 467 1058 "},"Ę":{"ha":1178,"x_min":117,"x_max":1122,"o":"m 1122 0 l 1122 139 l 256 139 l 256 833 l 1122 833 l 1122 972 l 117 972 l 117 0 l 915 0 q 872 -58 885 -24 q 858 -118 858 -93 q 896 -190 858 -169 q 985 -210 933 -210 q 1072 -201 1040 -210 q 1122 -187 1104 -193 l 1122 -97 q 1072 -113 1104 -104 q 1015 -122 1039 -122 q 963 -89 963 -122 q 976 -44 963 -68 q 1013 0 989 -19 l 1122 0 m 1004 417 l 1004 556 l 325 556 l 325 417 l 1004 417 "},"F":{"ha":1147,"x_min":117,"x_max":1124,"o":"m 1124 833 l 1124 972 l 117 972 l 117 0 l 256 0 l 256 833 l 1124 833 m 1004 417 l 1004 556 l 325 556 l 325 417 l 1004 417 "},"G":{"ha":1222,"x_min":61,"x_max":1135,"o":"m 1135 0 l 1135 556 l 407 556 l 407 417 l 996 417 l 996 139 l 508 139 q 344 186 413 139 q 238 312 275 233 q 200 486 200 390 q 238 661 200 582 q 344 787 275 740 q 508 833 413 833 l 1135 833 l 1135 972 l 508 972 q 325 935 407 972 q 184 830 243 897 q 93 674 125 763 q 61 486 61 586 q 93 297 61 385 q 184 142 125 208 q 325 38 243 75 q 508 0 407 0 l 1135 0 "},"Ğ":{"ha":1225,"x_min":61,"x_max":1135,"o":"m 1135 0 l 1135 556 l 407 556 l 407 417 l 996 417 l 996 139 l 508 139 q 344 186 413 139 q 238 312 275 233 q 200 486 200 390 q 238 661 200 582 q 344 787 275 740 q 508 833 413 833 l 1135 833 l 1135 972 l 508 972 q 325 935 407 972 q 184 830 243 897 q 93 674 125 763 q 61 486 61 586 q 93 297 61 385 q 184 142 125 208 q 325 38 243 75 q 508 0 407 0 l 1135 0 m 853 1239 l 761 1239 q 748 1210 758 1228 q 715 1180 738 1193 q 654 1167 693 1167 q 594 1180 615 1167 q 562 1210 572 1193 q 547 1239 551 1228 l 456 1239 q 465 1190 457 1221 q 493 1128 472 1160 q 553 1074 514 1096 q 654 1053 592 1053 q 756 1074 717 1053 q 815 1128 794 1096 q 844 1190 836 1160 q 853 1239 851 1221 "},"Ĝ":{"ha":1225,"x_min":61,"x_max":1135,"o":"m 1135 0 l 1135 556 l 407 556 l 407 417 l 996 417 l 996 139 l 508 139 q 344 186 413 139 q 238 312 275 233 q 200 486 200 390 q 238 661 200 582 q 344 787 275 740 q 508 833 413 833 l 1135 833 l 1135 972 l 508 972 q 325 935 407 972 q 184 830 243 897 q 93 674 125 763 q 61 486 61 586 q 93 297 61 385 q 184 142 125 208 q 325 38 243 75 q 508 0 407 0 l 1135 0 m 817 1049 l 876 1118 l 647 1261 l 432 1118 l 478 1049 l 647 1138 l 817 1049 "},"Ģ":{"ha":1225,"x_min":61,"x_max":1135,"o":"m 1135 0 l 1135 556 l 407 556 l 407 417 l 996 417 l 996 139 l 508 139 q 344 186 413 139 q 238 312 275 233 q 200 486 200 390 q 238 661 200 582 q 344 787 275 740 q 508 833 413 833 l 1135 833 l 1135 972 l 508 972 q 325 935 407 972 q 184 830 243 897 q 93 674 125 763 q 61 486 61 586 q 93 297 61 385 q 184 142 125 208 q 325 38 243 75 q 508 0 407 0 l 1135 0 m 738 -171 q 713 -109 738 -135 q 654 -83 689 -83 q 595 -108 619 -83 q 571 -167 571 -133 q 591 -222 571 -199 q 642 -250 611 -246 q 628 -292 636 -276 q 619 -308 619 -308 l 690 -310 q 701 -290 690 -310 q 724 -239 713 -271 q 738 -171 736 -207 "},"Ġ":{"ha":1225,"x_min":61,"x_max":1135,"o":"m 1135 0 l 1135 556 l 407 556 l 407 417 l 996 417 l 996 139 l 508 139 q 344 186 413 139 q 238 312 275 233 q 200 486 200 390 q 238 661 200 582 q 344 787 275 740 q 508 833 413 833 l 1135 833 l 1135 972 l 508 972 q 325 935 407 972 q 184 830 243 897 q 93 674 125 763 q 61 486 61 586 q 93 297 61 385 q 184 142 125 208 q 325 38 243 75 q 508 0 407 0 l 1135 0 m 717 1114 q 698 1158 717 1139 q 654 1176 679 1176 q 610 1158 628 1176 q 592 1114 592 1139 q 610 1069 592 1088 q 654 1051 628 1051 q 698 1069 679 1051 q 717 1114 717 1088 "},"H":{"ha":1260,"x_min":117,"x_max":1143,"o":"m 1143 0 l 1143 972 l 1004 972 l 1004 556 l 325 556 l 325 417 l 1004 417 l 1004 0 l 1143 0 m 256 0 l 256 972 l 117 972 l 117 0 l 256 0 "},"Ħ":{"ha":1260,"x_min":117,"x_max":1143,"o":"m 256 792 l 256 972 l 117 972 l 117 0 l 256 0 l 256 653 l 946 653 l 946 792 l 256 792 m 1143 0 l 1143 972 l 1004 972 l 1004 556 l 325 556 l 325 417 l 1004 417 l 1004 0 l 1143 0 "},"Ĥ":{"ha":1260,"x_min":117,"x_max":1143,"o":"m 1143 0 l 1143 972 l 1004 972 l 1004 556 l 325 556 l 325 417 l 1004 417 l 1004 0 l 1143 0 m 256 0 l 256 972 l 117 972 l 117 0 l 256 0 m 806 1049 l 865 1118 l 636 1261 l 421 1118 l 467 1049 l 636 1138 l 806 1049 "},"I":{"ha":372,"x_min":117,"x_max":256,"o":"m 256 0 l 256 972 l 117 972 l 117 0 l 256 0 "},"Ĳ":{"ha":1586,"x_min":117,"x_max":1486,"o":"m 256 0 l 256 972 l 117 972 l 117 0 l 256 0 m 1486 486 l 1486 972 l 424 972 l 424 833 l 1347 833 l 1347 486 q 1301 312 1347 390 q 1175 186 1254 233 q 1000 139 1096 139 l 424 139 l 424 0 l 1000 0 q 1190 38 1101 0 q 1344 142 1278 75 q 1449 297 1411 208 q 1486 486 1486 385 "},"Í":{"ha":372,"x_min":117,"x_max":469,"o":"m 256 0 l 256 972 l 117 972 l 117 0 l 256 0 m 469 1140 l 417 1260 l 182 1122 l 215 1049 l 469 1140 "},"Ĭ":{"ha":372,"x_min":-12,"x_max":385,"o":"m 256 0 l 256 972 l 117 972 l 117 0 l 256 0 m 385 1239 l 293 1239 q 280 1210 290 1228 q 247 1180 269 1193 q 186 1167 225 1167 q 126 1180 147 1167 q 94 1210 104 1193 q 79 1239 83 1228 l -12 1239 q -3 1190 -11 1221 q 25 1128 4 1160 q 85 1074 46 1096 q 186 1053 124 1053 q 288 1074 249 1053 q 347 1128 326 1096 q 376 1190 368 1160 q 385 1239 383 1221 "},"Î":{"ha":372,"x_min":-36,"x_max":408,"o":"m 256 0 l 256 972 l 117 972 l 117 0 l 256 0 m 349 1049 l 408 1118 l 179 1261 l -36 1118 l 10 1049 l 179 1138 l 349 1049 "},"Ï":{"ha":372,"x_min":10,"x_max":363,"o":"m 256 0 l 256 972 l 117 972 l 117 0 l 256 0 m 136 1114 q 117 1158 136 1139 q 74 1176 99 1176 q 28 1158 47 1176 q 10 1114 10 1139 q 28 1069 10 1088 q 74 1051 47 1051 q 117 1069 99 1051 q 136 1114 136 1088 m 363 1114 q 344 1158 363 1139 q 299 1176 325 1176 q 254 1158 272 1176 q 236 1114 236 1139 q 254 1069 236 1088 q 299 1051 272 1051 q 344 1069 325 1051 q 363 1114 363 1088 "},"İ":{"ha":372,"x_min":117,"x_max":256,"o":"m 256 0 l 256 972 l 117 972 l 117 0 l 256 0 m 249 1122 q 230 1166 249 1147 q 186 1185 211 1185 q 142 1166 160 1185 q 124 1122 124 1147 q 142 1078 124 1096 q 186 1060 160 1060 q 230 1078 211 1060 q 249 1122 249 1096 "},"Ì":{"ha":372,"x_min":-96,"x_max":256,"o":"m 256 0 l 256 972 l 117 972 l 117 0 l 256 0 m -43 1260 l -96 1140 l 158 1049 l 192 1122 l -43 1260 "},"Ī":{"ha":372,"x_min":22,"x_max":350,"o":"m 256 0 l 256 972 l 117 972 l 117 0 l 256 0 m 22 1058 l 350 1058 l 350 1172 l 22 1172 l 22 1058 "},"Į":{"ha":372,"x_min":75,"x_max":339,"o":"m 256 0 l 256 972 l 117 972 l 117 0 l 132 0 q 88 -58 101 -24 q 75 -118 75 -93 q 113 -190 75 -169 q 201 -210 150 -210 q 289 -201 257 -210 q 339 -187 321 -193 l 339 -97 q 288 -113 321 -104 q 232 -122 256 -122 q 179 -89 179 -122 q 192 -44 179 -68 q 229 0 206 -19 l 256 0 "},"Ĩ":{"ha":372,"x_min":-7,"x_max":379,"o":"m 256 0 l 256 972 l 117 972 l 117 0 l 256 0 m 379 1214 l 292 1214 q 289 1193 292 1207 q 277 1167 286 1179 q 249 1156 268 1156 q 208 1170 226 1156 q 169 1199 190 1185 q 117 1214 149 1214 q 31 1172 68 1214 q -7 1047 -7 1131 l 79 1047 q 83 1068 81 1054 q 95 1094 86 1082 q 124 1106 104 1106 q 162 1091 146 1106 q 199 1062 178 1076 q 256 1047 221 1047 q 343 1084 307 1047 q 379 1214 379 1121 "},"J":{"ha":1214,"x_min":51,"x_max":1114,"o":"m 1114 486 l 1114 972 l 51 972 l 51 833 l 975 833 l 975 486 q 928 312 975 390 q 803 186 882 233 q 628 139 724 139 l 51 139 l 51 0 l 628 0 q 817 38 729 0 q 972 142 906 75 q 1076 297 1039 208 q 1114 486 1114 385 "},"Ĵ":{"ha":1214,"x_min":51,"x_max":1114,"o":"m 1114 486 l 1114 972 l 51 972 l 51 833 l 975 833 l 975 486 q 928 312 975 390 q 803 186 882 233 q 628 139 724 139 l 51 139 l 51 0 l 628 0 q 817 38 729 0 q 972 142 906 75 q 1076 297 1039 208 q 1114 486 1114 385 m 769 1049 l 829 1118 l 600 1261 l 385 1118 l 431 1049 l 600 1138 l 769 1049 "},"K":{"ha":1240,"x_min":117,"x_max":1247,"o":"m 1247 0 l 669 576 l 1221 972 l 1018 972 l 256 431 l 256 972 l 117 972 l 117 0 l 256 0 l 256 278 l 564 500 l 1060 0 l 1247 0 "},"Ķ":{"ha":1240,"x_min":117,"x_max":1247,"o":"m 1247 0 l 669 576 l 1221 972 l 1018 972 l 256 431 l 256 972 l 117 972 l 117 0 l 256 0 l 256 278 l 564 500 l 1060 0 l 1247 0 m 703 -129 q 678 -67 703 -93 q 619 -42 654 -42 q 560 -67 585 -42 q 536 -125 536 -92 q 556 -181 536 -157 q 607 -208 576 -204 q 593 -251 601 -235 q 585 -267 585 -267 l 656 -268 q 667 -249 656 -268 q 690 -197 678 -229 q 703 -129 701 -165 "},"L":{"ha":1060,"x_min":117,"x_max":1046,"o":"m 1046 0 l 1046 139 l 256 139 l 256 972 l 117 972 l 117 0 l 1046 0 "},"Ĺ":{"ha":1060,"x_min":117,"x_max":1046,"o":"m 1046 0 l 1046 139 l 256 139 l 256 972 l 117 972 l 117 0 l 1046 0 m 479 1142 l 426 1261 l 192 1124 l 225 1050 l 479 1142 "},"Ľ":{"ha":1060,"x_min":117,"x_max":1046,"o":"m 1046 0 l 1046 139 l 256 139 l 256 972 l 117 972 l 117 0 l 1046 0 m 613 942 q 588 1003 613 978 q 529 1029 564 1029 q 470 1004 494 1029 q 446 946 446 979 q 466 890 446 914 q 517 863 486 867 q 503 820 511 836 q 494 804 494 804 l 565 803 q 576 822 565 803 q 599 874 588 842 q 613 942 611 906 "},"Ļ":{"ha":1060,"x_min":117,"x_max":1046,"o":"m 1046 0 l 1046 139 l 256 139 l 256 972 l 117 972 l 117 0 l 1046 0 m 613 -157 q 588 -95 613 -121 q 529 -69 564 -69 q 470 -94 494 -69 q 446 -153 446 -119 q 466 -208 446 -185 q 517 -236 486 -232 q 503 -278 511 -262 q 494 -294 494 -294 l 565 -296 q 576 -276 565 -296 q 599 -225 588 -257 q 613 -157 611 -193 "},"Ŀ":{"ha":1319,"x_min":117,"x_max":1232,"o":"m 1046 0 l 1046 139 l 256 139 l 256 972 l 117 972 l 117 0 l 1046 0 m 1232 494 q 1201 568 1232 538 q 1128 599 1171 599 q 1054 568 1085 599 q 1024 494 1024 538 q 1054 421 1024 451 q 1128 390 1085 390 q 1201 421 1171 390 q 1232 494 1232 451 "},"Ł":{"ha":1128,"x_min":4,"x_max":1114,"o":"m 768 525 l 768 678 l 324 542 l 324 972 l 185 972 l 185 499 l 4 444 l 4 292 l 185 346 l 185 0 l 1114 0 l 1114 139 l 324 139 l 324 389 l 768 525 "},"M":{"ha":1494,"x_min":117,"x_max":1378,"o":"m 817 0 l 817 486 q 864 661 817 582 q 990 787 911 740 q 1164 833 1068 833 l 1239 833 l 1239 0 l 1378 0 l 1378 972 l 1164 972 q 922 907 1032 972 q 747 736 811 842 q 573 907 683 842 q 331 972 463 972 l 117 972 l 117 0 l 256 0 l 256 833 l 331 833 q 506 787 426 833 q 631 661 585 740 q 678 486 678 582 l 678 0 l 817 0 "},"N":{"ha":1308,"x_min":117,"x_max":1192,"o":"m 256 0 l 256 828 q 458 765 350 814 q 672 638 567 715 q 863 462 776 561 q 1001 245 949 363 q 1053 0 1053 128 l 1192 0 l 1192 972 l 1053 972 l 1053 438 q 870 655 976 557 q 644 824 764 753 q 406 933 525 894 q 186 972 288 972 l 117 972 l 117 0 l 256 0 "},"Ń":{"ha":1308,"x_min":117,"x_max":1192,"o":"m 256 0 l 256 828 q 458 765 350 814 q 672 638 567 715 q 863 462 776 561 q 1001 245 949 363 q 1053 0 1053 128 l 1192 0 l 1192 972 l 1053 972 l 1053 438 q 870 655 976 557 q 644 824 764 753 q 406 933 525 894 q 186 972 288 972 l 117 972 l 117 0 l 256 0 m 978 1140 l 925 1260 l 690 1122 l 724 1049 l 978 1140 "},"Ň":{"ha":1308,"x_min":117,"x_max":1192,"o":"m 256 0 l 256 828 q 458 765 350 814 q 672 638 567 715 q 863 462 776 561 q 1001 245 949 363 q 1053 0 1053 128 l 1192 0 l 1192 972 l 1053 972 l 1053 438 q 870 655 976 557 q 644 824 764 753 q 406 933 525 894 q 186 972 288 972 l 117 972 l 117 0 l 256 0 m 485 1247 l 439 1179 l 654 1035 l 869 1179 l 824 1247 l 654 1160 l 485 1247 "},"Ņ":{"ha":1308,"x_min":117,"x_max":1192,"o":"m 256 0 l 256 828 q 458 765 350 814 q 672 638 567 715 q 863 462 776 561 q 1001 245 949 363 q 1053 0 1053 128 l 1192 0 l 1192 972 l 1053 972 l 1053 438 q 870 655 976 557 q 644 824 764 753 q 406 933 525 894 q 186 972 288 972 l 117 972 l 117 0 l 256 0 m 738 -143 q 713 -81 738 -107 q 654 -56 689 -56 q 595 -81 619 -56 q 571 -139 571 -106 q 591 -194 571 -171 q 642 -222 611 -218 q 628 -265 636 -249 q 619 -281 619 -281 l 690 -282 q 701 -262 690 -282 q 724 -211 713 -243 q 738 -143 736 -179 "},"Ñ":{"ha":1308,"x_min":117,"x_max":1192,"o":"m 256 0 l 256 828 q 458 765 350 814 q 672 638 567 715 q 863 462 776 561 q 1001 245 949 363 q 1053 0 1053 128 l 1192 0 l 1192 972 l 1053 972 l 1053 438 q 870 655 976 557 q 644 824 764 753 q 406 933 525 894 q 186 972 288 972 l 117 972 l 117 0 l 256 0 m 847 1214 l 760 1214 q 757 1193 760 1207 q 745 1167 754 1179 q 717 1156 736 1156 q 676 1170 694 1156 q 638 1199 658 1185 q 585 1214 617 1214 q 499 1172 536 1214 q 461 1047 461 1131 l 547 1047 q 551 1068 549 1054 q 563 1094 554 1082 q 592 1106 572 1106 q 630 1091 614 1106 q 667 1062 646 1076 q 724 1047 689 1047 q 811 1084 775 1047 q 847 1214 847 1121 "},"Ŋ":{"ha":1308,"x_min":117,"x_max":1192,"o":"m 1192 211 l 1192 972 l 1053 972 l 1053 438 q 870 655 976 557 q 644 824 764 753 q 406 933 525 894 q 186 972 288 972 l 117 972 l 117 0 l 256 0 l 256 828 q 439 773 342 814 q 633 667 536 732 q 813 517 729 601 q 957 331 897 432 q 1040 119 1017 231 q 972 -12 1021 46 q 854 -103 922 -69 q 706 -136 786 -136 l 129 -136 l 129 -275 l 706 -275 q 895 -237 807 -275 q 1050 -133 983 -200 q 1154 22 1117 -67 q 1192 211 1192 110 "},"O":{"ha":1339,"x_min":61,"x_max":1278,"o":"m 1278 486 q 1246 674 1278 586 q 1155 830 1214 763 q 1014 935 1096 897 q 832 972 932 972 l 508 972 q 325 935 407 972 q 184 830 243 897 q 93 674 125 763 q 61 486 61 586 q 93 297 61 385 q 184 142 125 208 q 325 38 243 75 q 508 0 407 0 l 832 0 q 1014 38 932 0 q 1155 142 1096 75 q 1246 297 1214 208 q 1278 486 1278 385 m 1139 486 q 1102 312 1139 390 q 997 186 1065 233 q 832 139 928 139 l 508 139 q 344 186 413 139 q 238 312 275 233 q 200 486 200 390 q 238 661 200 582 q 344 787 275 740 q 508 833 413 833 l 832 833 q 997 787 928 833 q 1102 661 1065 740 q 1139 486 1139 582 "},"Ó":{"ha":1339,"x_min":61,"x_max":1278,"o":"m 1278 486 q 1246 674 1278 586 q 1155 830 1214 763 q 1014 935 1096 897 q 832 972 932 972 l 508 972 q 325 935 407 972 q 184 830 243 897 q 93 674 125 763 q 61 486 61 586 q 93 297 61 385 q 184 142 125 208 q 325 38 243 75 q 508 0 407 0 l 832 0 q 1014 38 932 0 q 1155 142 1096 75 q 1246 297 1214 208 q 1278 486 1278 385 m 1139 486 q 1102 312 1139 390 q 997 186 1065 233 q 832 139 928 139 l 508 139 q 344 186 413 139 q 238 312 275 233 q 200 486 200 390 q 238 661 200 582 q 344 787 275 740 q 508 833 413 833 l 832 833 q 997 787 928 833 q 1102 661 1065 740 q 1139 486 1139 582 m 951 1140 l 899 1260 l 664 1122 l 697 1049 l 951 1140 "},"Ŏ":{"ha":1339,"x_min":61,"x_max":1278,"o":"m 1278 486 q 1246 674 1278 586 q 1155 830 1214 763 q 1014 935 1096 897 q 832 972 932 972 l 508 972 q 325 935 407 972 q 184 830 243 897 q 93 674 125 763 q 61 486 61 586 q 93 297 61 385 q 184 142 125 208 q 325 38 243 75 q 508 0 407 0 l 832 0 q 1014 38 932 0 q 1155 142 1096 75 q 1246 297 1214 208 q 1278 486 1278 385 m 1139 486 q 1102 312 1139 390 q 997 186 1065 233 q 832 139 928 139 l 508 139 q 344 186 413 139 q 238 312 275 233 q 200 486 200 390 q 238 661 200 582 q 344 787 275 740 q 508 833 413 833 l 832 833 q 997 787 928 833 q 1102 661 1065 740 q 1139 486 1139 582 m 868 1239 l 776 1239 q 763 1210 774 1228 q 731 1180 753 1193 q 669 1167 708 1167 q 609 1180 631 1167 q 577 1210 588 1193 q 563 1239 567 1228 l 471 1239 q 480 1190 472 1221 q 508 1128 488 1160 q 568 1074 529 1096 q 669 1053 607 1053 q 771 1074 732 1053 q 831 1128 810 1096 q 859 1190 851 1160 q 868 1239 867 1221 "},"Ô":{"ha":1339,"x_min":61,"x_max":1278,"o":"m 1278 486 q 1246 674 1278 586 q 1155 830 1214 763 q 1014 935 1096 897 q 832 972 932 972 l 508 972 q 325 935 407 972 q 184 830 243 897 q 93 674 125 763 q 61 486 61 586 q 93 297 61 385 q 184 142 125 208 q 325 38 243 75 q 508 0 407 0 l 832 0 q 1014 38 932 0 q 1155 142 1096 75 q 1246 297 1214 208 q 1278 486 1278 385 m 1139 486 q 1102 312 1139 390 q 997 186 1065 233 q 832 139 928 139 l 508 139 q 344 186 413 139 q 238 312 275 233 q 200 486 200 390 q 238 661 200 582 q 344 787 275 740 q 508 833 413 833 l 832 833 q 997 787 928 833 q 1102 661 1065 740 q 1139 486 1139 582 m 832 1049 l 892 1118 l 663 1261 l 447 1118 l 493 1049 l 663 1138 l 832 1049 "},"Ö":{"ha":1339,"x_min":61,"x_max":1278,"o":"m 1278 486 q 1246 674 1278 586 q 1155 830 1214 763 q 1014 935 1096 897 q 832 972 932 972 l 508 972 q 325 935 407 972 q 184 830 243 897 q 93 674 125 763 q 61 486 61 586 q 93 297 61 385 q 184 142 125 208 q 325 38 243 75 q 508 0 407 0 l 832 0 q 1014 38 932 0 q 1155 142 1096 75 q 1246 297 1214 208 q 1278 486 1278 385 m 1139 486 q 1102 312 1139 390 q 997 186 1065 233 q 832 139 928 139 l 508 139 q 344 186 413 139 q 238 312 275 233 q 200 486 200 390 q 238 661 200 582 q 344 787 275 740 q 508 833 413 833 l 832 833 q 997 787 928 833 q 1102 661 1065 740 q 1139 486 1139 582 m 619 1114 q 601 1158 619 1139 q 557 1176 582 1176 q 512 1158 531 1176 q 493 1114 493 1139 q 512 1069 493 1088 q 557 1051 531 1051 q 601 1069 582 1051 q 619 1114 619 1088 m 846 1114 q 827 1158 846 1139 q 782 1176 808 1176 q 738 1158 756 1176 q 719 1114 719 1139 q 738 1069 719 1088 q 782 1051 756 1051 q 827 1069 808 1051 q 846 1114 846 1088 "},"Ò":{"ha":1339,"x_min":61,"x_max":1278,"o":"m 1278 486 q 1246 674 1278 586 q 1155 830 1214 763 q 1014 935 1096 897 q 832 972 932 972 l 508 972 q 325 935 407 972 q 184 830 243 897 q 93 674 125 763 q 61 486 61 586 q 93 297 61 385 q 184 142 125 208 q 325 38 243 75 q 508 0 407 0 l 832 0 q 1014 38 932 0 q 1155 142 1096 75 q 1246 297 1214 208 q 1278 486 1278 385 m 1139 486 q 1102 312 1139 390 q 997 186 1065 233 q 832 139 928 139 l 508 139 q 344 186 413 139 q 238 312 275 233 q 200 486 200 390 q 238 661 200 582 q 344 787 275 740 q 508 833 413 833 l 832 833 q 997 787 928 833 q 1102 661 1065 740 q 1139 486 1139 582 m 439 1260 l 386 1140 l 640 1049 l 674 1122 l 439 1260 "},"Ő":{"ha":1339,"x_min":61,"x_max":1278,"o":"m 1278 486 q 1246 674 1278 586 q 1155 830 1214 763 q 1014 935 1096 897 q 832 972 932 972 l 508 972 q 325 935 407 972 q 184 830 243 897 q 93 674 125 763 q 61 486 61 586 q 93 297 61 385 q 184 142 125 208 q 325 38 243 75 q 508 0 407 0 l 832 0 q 1014 38 932 0 q 1155 142 1096 75 q 1246 297 1214 208 q 1278 486 1278 385 m 1139 486 q 1102 312 1139 390 q 997 186 1065 233 q 832 139 928 139 l 508 139 q 344 186 413 139 q 238 312 275 233 q 200 486 200 390 q 238 661 200 582 q 344 787 275 740 q 508 833 413 833 l 832 833 q 997 787 928 833 q 1102 661 1065 740 q 1139 486 1139 582 m 810 1135 l 754 1229 l 597 1089 l 625 1043 l 810 1135 m 1019 1135 l 964 1229 l 810 1089 l 835 1043 l 1019 1135 "},"Ō":{"ha":1339,"x_min":61,"x_max":1278,"o":"m 1278 486 q 1246 674 1278 586 q 1155 830 1214 763 q 1014 935 1096 897 q 832 972 932 972 l 508 972 q 325 935 407 972 q 184 830 243 897 q 93 674 125 763 q 61 486 61 586 q 93 297 61 385 q 184 142 125 208 q 325 38 243 75 q 508 0 407 0 l 832 0 q 1014 38 932 0 q 1155 142 1096 75 q 1246 297 1214 208 q 1278 486 1278 385 m 1139 486 q 1102 312 1139 390 q 997 186 1065 233 q 832 139 928 139 l 508 139 q 344 186 413 139 q 238 312 275 233 q 200 486 200 390 q 238 661 200 582 q 344 787 275 740 q 508 833 413 833 l 832 833 q 997 787 928 833 q 1102 661 1065 740 q 1139 486 1139 582 m 506 1058 l 833 1058 l 833 1172 l 506 1172 l 506 1058 "},"Ø":{"ha":1339,"x_min":61,"x_max":1278,"o":"m 1144 972 l 979 972 l 964 953 q 901 967 933 963 q 832 972 868 972 l 508 972 q 325 935 407 972 q 184 830 243 897 q 93 674 125 763 q 61 486 61 586 q 113 248 61 356 q 258 75 165 140 l 197 0 l 363 0 l 376 18 q 508 0 436 0 l 832 0 q 1014 38 932 0 q 1155 142 1096 75 q 1246 297 1214 208 q 1278 486 1278 385 q 1226 722 1278 614 q 1082 894 1174 831 l 1144 972 m 508 833 l 832 833 q 849 833 840 833 q 865 831 857 832 l 346 185 q 238 309 276 229 q 200 486 200 389 q 238 661 200 582 q 344 787 275 740 q 508 833 413 833 m 1139 486 q 1102 312 1139 390 q 997 186 1065 233 q 832 139 928 139 l 508 139 q 492 140 500 139 q 475 140 483 140 l 994 786 q 1101 662 1064 742 q 1139 486 1139 582 "},"Ǿ":{"ha":1339,"x_min":61,"x_max":1278,"o":"m 1144 972 l 979 972 l 964 953 q 901 967 933 963 q 832 972 868 972 l 508 972 q 325 935 407 972 q 184 830 243 897 q 93 674 125 763 q 61 486 61 586 q 113 248 61 356 q 258 75 165 140 l 197 0 l 363 0 l 376 18 q 508 0 436 0 l 832 0 q 1014 38 932 0 q 1155 142 1096 75 q 1246 297 1214 208 q 1278 486 1278 385 q 1226 722 1278 614 q 1082 894 1174 831 l 1144 972 m 508 833 l 832 833 q 849 833 840 833 q 865 831 857 832 l 346 185 q 238 309 276 229 q 200 486 200 389 q 238 661 200 582 q 344 787 275 740 q 508 833 413 833 m 1139 486 q 1102 312 1139 390 q 997 186 1065 233 q 832 139 928 139 l 508 139 q 492 140 500 139 q 475 140 483 140 l 994 786 q 1101 662 1064 742 q 1139 486 1139 582 m 965 1140 l 913 1260 l 678 1122 l 711 1049 l 965 1140 "},"Õ":{"ha":1339,"x_min":61,"x_max":1278,"o":"m 1278 486 q 1246 674 1278 586 q 1155 830 1214 763 q 1014 935 1096 897 q 832 972 932 972 l 508 972 q 325 935 407 972 q 184 830 243 897 q 93 674 125 763 q 61 486 61 586 q 93 297 61 385 q 184 142 125 208 q 325 38 243 75 q 508 0 407 0 l 832 0 q 1014 38 932 0 q 1155 142 1096 75 q 1246 297 1214 208 q 1278 486 1278 385 m 1139 486 q 1102 312 1139 390 q 997 186 1065 233 q 832 139 928 139 l 508 139 q 344 186 413 139 q 238 312 275 233 q 200 486 200 390 q 238 661 200 582 q 344 787 275 740 q 508 833 413 833 l 832 833 q 997 787 928 833 q 1102 661 1065 740 q 1139 486 1139 582 m 863 1214 l 775 1214 q 772 1193 775 1207 q 760 1167 769 1179 q 732 1156 751 1156 q 692 1170 710 1156 q 653 1199 674 1185 q 600 1214 632 1214 q 514 1172 551 1214 q 476 1047 476 1131 l 563 1047 q 567 1068 564 1054 q 578 1094 569 1082 q 607 1106 588 1106 q 645 1091 629 1106 q 683 1062 661 1076 q 739 1047 704 1047 q 826 1084 790 1047 q 863 1214 863 1121 "},"Œ":{"ha":2199,"x_min":61,"x_max":2143,"o":"m 2143 0 l 2143 139 l 1276 139 l 1276 833 l 2143 833 l 2143 972 l 1138 972 l 1138 849 q 1003 939 1081 906 q 832 972 925 972 l 508 972 q 325 935 407 972 q 184 830 243 897 q 93 674 125 763 q 61 486 61 586 q 93 297 61 385 q 184 142 125 208 q 325 38 243 75 q 508 0 407 0 l 832 0 q 1003 33 925 0 q 1138 122 1081 65 l 1138 0 l 2143 0 m 508 833 l 832 833 q 991 787 922 833 q 1099 662 1060 740 q 1138 486 1138 583 q 1099 309 1138 388 q 991 185 1060 231 q 832 139 922 139 l 508 139 q 344 186 413 139 q 238 312 275 233 q 200 486 200 390 q 238 661 200 582 q 344 787 275 740 q 508 833 413 833 m 2025 417 l 2025 556 l 1346 556 l 1346 417 l 2025 417 "},"P":{"ha":1268,"x_min":117,"x_max":1239,"o":"m 1239 625 q 1192 800 1239 721 q 1067 926 1146 879 q 892 972 988 972 l 117 972 l 117 0 l 256 0 l 256 833 l 892 833 q 997 806 950 833 q 1072 731 1044 778 q 1100 625 1100 683 q 1072 520 1100 568 q 997 444 1044 472 q 892 415 950 415 l 333 415 l 333 278 l 892 278 q 1067 325 988 278 q 1192 451 1146 372 q 1239 625 1239 529 "},"Þ":{"ha":1274,"x_min":117,"x_max":1239,"o":"m 1239 486 q 1192 661 1239 582 q 1067 787 1146 740 q 892 833 988 833 l 256 833 l 256 974 l 117 974 l 117 0 l 256 0 l 256 694 l 892 694 q 997 667 950 694 q 1072 592 1044 639 q 1100 486 1100 544 q 1072 381 1100 429 q 997 305 1044 333 q 892 276 950 276 l 333 276 l 333 139 l 892 139 q 1067 186 988 139 q 1192 312 1146 233 q 1239 486 1239 390 "},"Q":{"ha":1339,"x_min":61,"x_max":1278,"o":"m 992 -117 l 1179 -117 l 1017 39 q 1156 143 1097 76 q 1246 298 1214 210 q 1278 486 1278 386 q 1246 674 1278 586 q 1155 830 1214 763 q 1014 935 1096 897 q 832 972 932 972 l 508 972 q 325 935 407 972 q 184 830 243 897 q 93 674 125 763 q 61 486 61 586 q 93 297 61 385 q 184 142 125 208 q 325 38 243 75 q 508 0 407 0 l 832 0 q 849 0 840 0 q 867 1 858 0 l 992 -117 m 1139 486 q 1111 333 1139 404 q 1031 214 1083 263 q 906 147 979 165 l 785 265 l 590 265 l 722 139 l 508 139 q 344 186 413 139 q 238 312 275 233 q 200 486 200 390 q 238 661 200 582 q 344 787 275 740 q 508 833 413 833 l 832 833 q 997 787 928 833 q 1102 661 1065 740 q 1139 486 1139 582 "},"R":{"ha":1300,"x_min":117,"x_max":1239,"o":"m 1239 0 l 947 282 q 1097 344 1031 296 q 1201 465 1163 392 q 1239 625 1239 539 q 1192 800 1239 721 q 1067 926 1146 879 q 892 972 988 972 l 117 972 l 117 0 l 256 0 l 256 833 l 892 833 q 997 806 950 833 q 1072 731 1044 778 q 1100 625 1100 683 q 1072 520 1100 568 q 997 444 1044 472 q 892 415 950 415 l 333 415 l 333 278 l 760 278 l 1051 0 l 1239 0 "},"Ŕ":{"ha":1300,"x_min":117,"x_max":1239,"o":"m 1239 0 l 947 282 q 1097 344 1031 296 q 1201 465 1163 392 q 1239 625 1239 539 q 1192 800 1239 721 q 1067 926 1146 879 q 892 972 988 972 l 117 972 l 117 0 l 256 0 l 256 833 l 892 833 q 997 806 950 833 q 1072 731 1044 778 q 1100 625 1100 683 q 1072 520 1100 568 q 997 444 1044 472 q 892 415 950 415 l 333 415 l 333 278 l 760 278 l 1051 0 l 1239 0 m 932 1140 l 879 1260 l 644 1122 l 678 1049 l 932 1140 "},"Ř":{"ha":1300,"x_min":117,"x_max":1239,"o":"m 1239 0 l 947 282 q 1097 344 1031 296 q 1201 465 1163 392 q 1239 625 1239 539 q 1192 800 1239 721 q 1067 926 1146 879 q 892 972 988 972 l 117 972 l 117 0 l 256 0 l 256 833 l 892 833 q 997 806 950 833 q 1072 731 1044 778 q 1100 625 1100 683 q 1072 520 1100 568 q 997 444 1044 472 q 892 415 950 415 l 333 415 l 333 278 l 760 278 l 1051 0 l 1239 0 m 481 1247 l 435 1179 l 650 1035 l 865 1179 l 819 1247 l 650 1160 l 481 1247 "},"Ŗ":{"ha":1300,"x_min":117,"x_max":1239,"o":"m 1239 0 l 947 282 q 1097 344 1031 296 q 1201 465 1163 392 q 1239 625 1239 539 q 1192 800 1239 721 q 1067 926 1146 879 q 892 972 988 972 l 117 972 l 117 0 l 256 0 l 256 833 l 892 833 q 997 806 950 833 q 1072 731 1044 778 q 1100 625 1100 683 q 1072 520 1100 568 q 997 444 1044 472 q 892 415 950 415 l 333 415 l 333 278 l 760 278 l 1051 0 l 1239 0 m 733 -143 q 709 -81 733 -107 q 650 -56 685 -56 q 591 -81 615 -56 q 567 -139 567 -106 q 587 -194 567 -171 q 638 -222 607 -218 q 624 -265 632 -249 q 615 -281 615 -281 l 686 -282 q 697 -262 686 -282 q 720 -211 708 -243 q 733 -143 732 -179 "},"S":{"ha":1236,"x_min":68,"x_max":1190,"o":"m 1190 278 q 1153 417 1190 354 q 1053 518 1115 481 q 913 556 990 556 l 346 556 q 248 597 289 556 q 207 694 207 638 q 248 792 207 751 q 346 833 289 833 l 1121 833 l 1121 972 l 346 972 q 206 935 269 972 q 106 834 143 897 q 68 694 68 771 q 106 555 68 618 q 206 454 143 492 q 346 417 269 417 l 913 417 q 1011 376 971 417 q 1051 278 1051 335 q 1011 180 1051 221 q 913 139 971 139 l 68 139 l 68 0 l 913 0 q 1053 38 990 0 q 1153 138 1115 75 q 1190 278 1190 201 "},"Ś":{"ha":1236,"x_min":68,"x_max":1190,"o":"m 1190 278 q 1153 417 1190 354 q 1053 518 1115 481 q 913 556 990 556 l 346 556 q 248 597 289 556 q 207 694 207 638 q 248 792 207 751 q 346 833 289 833 l 1121 833 l 1121 972 l 346 972 q 206 935 269 972 q 106 834 143 897 q 68 694 68 771 q 106 555 68 618 q 206 454 143 492 q 346 417 269 417 l 913 417 q 1011 376 971 417 q 1051 278 1051 335 q 1011 180 1051 221 q 913 139 971 139 l 68 139 l 68 0 l 913 0 q 1053 38 990 0 q 1153 138 1115 75 q 1190 278 1190 201 m 914 1140 l 861 1260 l 626 1122 l 660 1049 l 914 1140 "},"Š":{"ha":1236,"x_min":68,"x_max":1190,"o":"m 1190 278 q 1153 417 1190 354 q 1053 518 1115 481 q 913 556 990 556 l 346 556 q 248 597 289 556 q 207 694 207 638 q 248 792 207 751 q 346 833 289 833 l 1121 833 l 1121 972 l 346 972 q 206 935 269 972 q 106 834 143 897 q 68 694 68 771 q 106 555 68 618 q 206 454 143 492 q 346 417 269 417 l 913 417 q 1011 376 971 417 q 1051 278 1051 335 q 1011 180 1051 221 q 913 139 971 139 l 68 139 l 68 0 l 913 0 q 1053 38 990 0 q 1153 138 1115 75 q 1190 278 1190 201 m 460 1247 l 414 1179 l 629 1035 l 844 1179 l 799 1247 l 629 1160 l 460 1247 "},"Ş":{"ha":1236,"x_min":68,"x_max":1190,"o":"m 1190 278 q 1153 417 1190 354 q 1053 518 1115 481 q 913 556 990 556 l 346 556 q 248 597 289 556 q 207 694 207 638 q 248 792 207 751 q 346 833 289 833 l 1121 833 l 1121 972 l 346 972 q 206 935 269 972 q 106 834 143 897 q 68 694 68 771 q 106 555 68 618 q 206 454 143 492 q 346 417 269 417 l 913 417 q 1011 376 971 417 q 1051 278 1051 335 q 1011 180 1051 221 q 913 139 971 139 l 68 139 l 68 0 l 583 0 l 546 -101 q 569 -97 557 -99 q 592 -96 581 -96 q 628 -101 607 -96 q 649 -121 649 -106 q 631 -140 649 -133 q 585 -146 613 -146 q 532 -140 558 -146 q 486 -124 506 -133 l 486 -210 q 526 -216 506 -211 q 596 -221 546 -221 q 667 -212 632 -221 q 726 -181 703 -203 q 750 -122 750 -160 q 733 -66 750 -85 q 691 -40 715 -47 q 647 -33 667 -33 l 660 0 l 913 0 q 1053 38 990 0 q 1153 138 1115 75 q 1190 278 1190 201 "},"Ŝ":{"ha":1236,"x_min":68,"x_max":1190,"o":"m 1190 278 q 1153 417 1190 354 q 1053 518 1115 481 q 913 556 990 556 l 346 556 q 248 597 289 556 q 207 694 207 638 q 248 792 207 751 q 346 833 289 833 l 1121 833 l 1121 972 l 346 972 q 206 935 269 972 q 106 834 143 897 q 68 694 68 771 q 106 555 68 618 q 206 454 143 492 q 346 417 269 417 l 913 417 q 1011 376 971 417 q 1051 278 1051 335 q 1011 180 1051 221 q 913 139 971 139 l 68 139 l 68 0 l 913 0 q 1053 38 990 0 q 1153 138 1115 75 q 1190 278 1190 201 m 781 1049 l 840 1118 l 611 1261 l 396 1118 l 442 1049 l 611 1138 l 781 1049 "},"Ș":{"ha":1236,"x_min":68,"x_max":1190,"o":"m 1190 278 q 1153 417 1190 354 q 1053 518 1115 481 q 913 556 990 556 l 346 556 q 248 597 289 556 q 207 694 207 638 q 248 792 207 751 q 346 833 289 833 l 1121 833 l 1121 972 l 346 972 q 206 935 269 972 q 106 834 143 897 q 68 694 68 771 q 106 555 68 618 q 206 454 143 492 q 346 417 269 417 l 913 417 q 1011 376 971 417 q 1051 278 1051 335 q 1011 180 1051 221 q 913 139 971 139 l 68 139 l 68 0 l 913 0 q 1053 38 990 0 q 1153 138 1115 75 q 1190 278 1190 201 m 701 -171 q 677 -109 701 -135 q 618 -83 653 -83 q 559 -108 583 -83 q 535 -167 535 -133 q 555 -222 535 -199 q 606 -250 575 -246 q 592 -292 600 -276 q 583 -308 583 -308 l 654 -310 q 665 -290 654 -310 q 688 -239 676 -271 q 701 -171 700 -207 "},"ẞ":{"ha":1278,"x_min":117,"x_max":1211,"o":"m 947 833 q 997 817 976 833 q 1017 764 1017 800 q 997 714 1017 729 q 947 699 976 699 l 683 699 q 536 643 597 699 q 475 485 475 588 q 536 335 475 383 q 683 286 597 286 l 968 286 q 1042 272 1011 286 q 1072 215 1072 258 q 1042 157 1072 175 q 968 139 1011 139 l 378 139 l 378 0 l 968 0 q 1091 24 1036 0 q 1178 97 1146 49 q 1211 217 1211 144 q 1178 335 1211 290 q 1091 400 1146 379 q 968 421 1036 421 l 683 421 q 634 440 654 421 q 614 489 614 460 q 634 537 614 517 q 683 557 654 557 l 947 557 q 1053 582 1006 557 q 1128 653 1100 607 q 1156 764 1156 700 q 1128 874 1156 828 q 1053 947 1100 921 q 947 972 1006 972 l 117 972 l 117 0 l 256 0 l 256 833 l 947 833 "},"T":{"ha":1150,"x_min":14,"x_max":1136,"o":"m 644 0 l 644 833 l 1136 833 l 1136 972 l 14 972 l 14 833 l 506 833 l 506 0 l 644 0 "},"Ŧ":{"ha":1150,"x_min":14,"x_max":1136,"o":"m 853 417 l 853 556 l 644 556 l 644 833 l 1136 833 l 1136 972 l 14 972 l 14 833 l 506 833 l 506 556 l 297 556 l 297 417 l 506 417 l 506 0 l 644 0 l 644 417 l 853 417 "},"Ť":{"ha":1150,"x_min":14,"x_max":1136,"o":"m 644 0 l 644 833 l 1136 833 l 1136 972 l 14 972 l 14 833 l 506 833 l 506 0 l 644 0 m 406 1247 l 360 1179 l 575 1035 l 790 1179 l 744 1247 l 575 1160 l 406 1247 "},"Ţ":{"ha":1150,"x_min":14,"x_max":1136,"o":"m 644 0 l 644 833 l 1136 833 l 1136 972 l 14 972 l 14 833 l 506 833 l 506 0 l 644 0 m 658 -171 q 634 -109 658 -135 q 575 -83 610 -83 q 516 -108 540 -83 q 492 -167 492 -133 q 512 -222 492 -199 q 563 -250 532 -246 q 549 -292 557 -276 q 540 -308 540 -308 l 611 -310 q 622 -290 611 -310 q 645 -239 633 -271 q 658 -171 657 -207 "},"U":{"ha":1242,"x_min":85,"x_max":1158,"o":"m 1158 972 l 1018 972 l 1018 486 q 972 312 1018 390 q 847 186 925 233 q 672 139 768 139 l 569 139 q 396 186 475 139 q 270 312 317 233 q 224 486 224 390 l 224 972 l 85 972 l 85 486 q 122 298 85 386 q 226 142 160 210 q 381 38 293 75 q 569 0 469 0 l 672 0 q 860 38 772 0 q 1015 142 949 75 q 1119 297 1082 208 q 1157 486 1157 385 l 1158 972 "},"Ú":{"ha":1242,"x_min":85,"x_max":1158,"o":"m 1158 972 l 1018 972 l 1018 486 q 972 312 1018 390 q 847 186 925 233 q 672 139 768 139 l 569 139 q 396 186 475 139 q 270 312 317 233 q 224 486 224 390 l 224 972 l 85 972 l 85 486 q 122 298 85 386 q 226 142 160 210 q 381 38 293 75 q 569 0 469 0 l 672 0 q 860 38 772 0 q 1015 142 949 75 q 1119 297 1082 208 q 1157 486 1157 385 l 1158 972 m 904 1140 l 851 1260 l 617 1122 l 650 1049 l 904 1140 "},"Ŭ":{"ha":1242,"x_min":85,"x_max":1158,"o":"m 1158 972 l 1018 972 l 1018 486 q 972 312 1018 390 q 847 186 925 233 q 672 139 768 139 l 569 139 q 396 186 475 139 q 270 312 317 233 q 224 486 224 390 l 224 972 l 85 972 l 85 486 q 122 298 85 386 q 226 142 160 210 q 381 38 293 75 q 569 0 469 0 l 672 0 q 860 38 772 0 q 1015 142 949 75 q 1119 297 1082 208 q 1157 486 1157 385 l 1158 972 m 819 1239 l 728 1239 q 715 1210 725 1228 q 682 1180 704 1193 q 621 1167 660 1167 q 560 1180 582 1167 q 528 1210 539 1193 q 514 1239 518 1228 l 422 1239 q 431 1190 424 1221 q 460 1128 439 1160 q 519 1074 481 1096 q 621 1053 558 1053 q 722 1074 683 1053 q 782 1128 761 1096 q 810 1190 803 1160 q 819 1239 818 1221 "},"Û":{"ha":1242,"x_min":85,"x_max":1158,"o":"m 1158 972 l 1018 972 l 1018 486 q 972 312 1018 390 q 847 186 925 233 q 672 139 768 139 l 569 139 q 396 186 475 139 q 270 312 317 233 q 224 486 224 390 l 224 972 l 85 972 l 85 486 q 122 298 85 386 q 226 142 160 210 q 381 38 293 75 q 569 0 469 0 l 672 0 q 860 38 772 0 q 1015 142 949 75 q 1119 297 1082 208 q 1157 486 1157 385 l 1158 972 m 783 1049 l 843 1118 l 614 1261 l 399 1118 l 444 1049 l 614 1138 l 783 1049 "},"Ü":{"ha":1242,"x_min":85,"x_max":1158,"o":"m 1158 972 l 1018 972 l 1018 486 q 972 312 1018 390 q 847 186 925 233 q 672 139 768 139 l 569 139 q 396 186 475 139 q 270 312 317 233 q 224 486 224 390 l 224 972 l 85 972 l 85 486 q 122 298 85 386 q 226 142 160 210 q 381 38 293 75 q 569 0 469 0 l 672 0 q 860 38 772 0 q 1015 142 949 75 q 1119 297 1082 208 q 1157 486 1157 385 l 1158 972 m 571 1114 q 552 1158 571 1139 q 508 1176 533 1176 q 463 1158 482 1176 q 444 1114 444 1139 q 463 1069 444 1088 q 508 1051 482 1051 q 552 1069 533 1051 q 571 1114 571 1088 m 797 1114 q 778 1158 797 1139 q 733 1176 760 1176 q 689 1158 707 1176 q 671 1114 671 1139 q 689 1069 671 1088 q 733 1051 707 1051 q 778 1069 760 1051 q 797 1114 797 1088 "},"Ù":{"ha":1242,"x_min":85,"x_max":1158,"o":"m 1158 972 l 1018 972 l 1018 486 q 972 312 1018 390 q 847 186 925 233 q 672 139 768 139 l 569 139 q 396 186 475 139 q 270 312 317 233 q 224 486 224 390 l 224 972 l 85 972 l 85 486 q 122 298 85 386 q 226 142 160 210 q 381 38 293 75 q 569 0 469 0 l 672 0 q 860 38 772 0 q 1015 142 949 75 q 1119 297 1082 208 q 1157 486 1157 385 l 1158 972 m 392 1260 l 339 1140 l 593 1049 l 626 1122 l 392 1260 "},"Ű":{"ha":1242,"x_min":85,"x_max":1158,"o":"m 1158 972 l 1018 972 l 1018 486 q 972 312 1018 390 q 847 186 925 233 q 672 139 768 139 l 569 139 q 396 186 475 139 q 270 312 317 233 q 224 486 224 390 l 224 972 l 85 972 l 85 486 q 122 298 85 386 q 226 142 160 210 q 381 38 293 75 q 569 0 469 0 l 672 0 q 860 38 772 0 q 1015 142 949 75 q 1119 297 1082 208 q 1157 486 1157 385 l 1158 972 m 719 1135 l 664 1229 l 507 1089 l 535 1043 l 719 1135 m 929 1135 l 874 1229 l 719 1089 l 744 1043 l 929 1135 "},"Ū":{"ha":1242,"x_min":85,"x_max":1158,"o":"m 1158 972 l 1018 972 l 1018 486 q 972 312 1018 390 q 847 186 925 233 q 672 139 768 139 l 569 139 q 396 186 475 139 q 270 312 317 233 q 224 486 224 390 l 224 972 l 85 972 l 85 486 q 122 298 85 386 q 226 142 160 210 q 381 38 293 75 q 569 0 469 0 l 672 0 q 860 38 772 0 q 1015 142 949 75 q 1119 297 1082 208 q 1157 486 1157 385 l 1158 972 m 457 1058 l 785 1058 l 785 1172 l 457 1172 l 457 1058 "},"Ų":{"ha":1242,"x_min":85,"x_max":1158,"o":"m 1157 486 l 1158 972 l 1018 972 l 1018 486 q 972 312 1018 390 q 847 186 925 233 q 672 139 768 139 l 569 139 q 396 186 475 139 q 270 312 317 233 q 224 486 224 390 l 224 972 l 85 972 l 85 486 q 122 298 85 386 q 226 142 160 210 q 381 38 293 75 q 569 0 469 0 l 588 0 q 544 -58 557 -24 q 531 -118 531 -93 q 568 -190 531 -169 q 657 -210 606 -210 q 744 -201 713 -210 q 794 -187 776 -193 l 794 -97 q 744 -113 776 -104 q 688 -122 711 -122 q 635 -89 635 -122 q 686 0 635 -43 q 869 42 785 3 q 1019 147 954 81 q 1121 299 1085 213 q 1157 486 1157 386 "},"Ů":{"ha":1242,"x_min":85,"x_max":1158,"o":"m 1158 972 l 1018 972 l 1018 486 q 972 312 1018 390 q 847 186 925 233 q 672 139 768 139 l 569 139 q 396 186 475 139 q 270 312 317 233 q 224 486 224 390 l 224 972 l 85 972 l 85 486 q 122 298 85 386 q 226 142 160 210 q 381 38 293 75 q 569 0 469 0 l 672 0 q 860 38 772 0 q 1015 142 949 75 q 1119 297 1082 208 q 1157 486 1157 385 l 1158 972 m 478 1140 q 516 1058 478 1093 q 621 1022 554 1022 q 725 1058 686 1022 q 764 1140 764 1093 q 727 1224 764 1189 q 621 1258 690 1258 q 518 1224 558 1258 q 478 1140 478 1189 m 574 1140 q 585 1174 574 1160 q 621 1188 597 1188 q 656 1174 644 1188 q 668 1140 668 1160 q 656 1107 668 1121 q 621 1093 644 1093 q 585 1107 597 1093 q 574 1140 574 1121 "},"Ũ":{"ha":1242,"x_min":85,"x_max":1158,"o":"m 1158 972 l 1018 972 l 1018 486 q 972 312 1018 390 q 847 186 925 233 q 672 139 768 139 l 569 139 q 396 186 475 139 q 270 312 317 233 q 224 486 224 390 l 224 972 l 85 972 l 85 486 q 122 298 85 386 q 226 142 160 210 q 381 38 293 75 q 569 0 469 0 l 672 0 q 860 38 772 0 q 1015 142 949 75 q 1119 297 1082 208 q 1157 486 1157 385 l 1158 972 m 814 1214 l 726 1214 q 724 1193 726 1207 q 712 1167 721 1179 q 683 1156 703 1156 q 643 1170 661 1156 q 604 1199 625 1185 q 551 1214 583 1214 q 465 1172 503 1214 q 428 1047 428 1131 l 514 1047 q 518 1068 515 1054 q 530 1094 521 1082 q 558 1106 539 1106 q 597 1091 581 1106 q 634 1062 613 1076 q 690 1047 656 1047 q 778 1084 742 1047 q 814 1214 814 1121 "},"V":{"ha":1222,"x_min":21,"x_max":1201,"o":"m 1201 972 l 1043 972 l 611 150 l 179 972 l 21 972 l 532 0 l 690 0 l 1201 972 "},"W":{"ha":1476,"x_min":107,"x_max":1369,"o":"m 1369 350 l 1369 972 l 1231 972 l 1231 350 q 1202 244 1231 292 q 1126 167 1174 196 q 1019 139 1078 139 q 913 167 961 139 q 837 244 865 196 q 808 350 808 292 l 808 972 l 668 972 l 668 340 q 637 239 665 285 q 561 166 608 193 q 457 139 514 139 q 351 167 399 139 q 274 244 303 196 q 246 350 246 292 l 246 972 l 107 972 l 107 350 q 154 174 107 254 q 281 47 201 94 q 457 0 361 0 q 617 38 543 0 q 738 139 690 75 q 860 38 786 75 q 1019 0 933 0 q 1196 47 1117 0 q 1322 174 1275 94 q 1369 350 1369 254 "},"Ẃ":{"ha":1476,"x_min":107,"x_max":1369,"o":"m 1369 350 l 1369 972 l 1231 972 l 1231 350 q 1202 244 1231 292 q 1126 167 1174 196 q 1019 139 1078 139 q 913 167 961 139 q 837 244 865 196 q 808 350 808 292 l 808 972 l 668 972 l 668 340 q 637 239 665 285 q 561 166 608 193 q 457 139 514 139 q 351 167 399 139 q 274 244 303 196 q 246 350 246 292 l 246 972 l 107 972 l 107 350 q 154 174 107 254 q 281 47 201 94 q 457 0 361 0 q 617 38 543 0 q 738 139 690 75 q 860 38 786 75 q 1019 0 933 0 q 1196 47 1117 0 q 1322 174 1275 94 q 1369 350 1369 254 m 1021 1140 l 968 1260 l 733 1122 l 767 1049 l 1021 1140 "},"Ŵ":{"ha":1476,"x_min":107,"x_max":1369,"o":"m 1369 350 l 1369 972 l 1231 972 l 1231 350 q 1202 244 1231 292 q 1126 167 1174 196 q 1019 139 1078 139 q 913 167 961 139 q 837 244 865 196 q 808 350 808 292 l 808 972 l 668 972 l 668 340 q 637 239 665 285 q 561 166 608 193 q 457 139 514 139 q 351 167 399 139 q 274 244 303 196 q 246 350 246 292 l 246 972 l 107 972 l 107 350 q 154 174 107 254 q 281 47 201 94 q 457 0 361 0 q 617 38 543 0 q 738 139 690 75 q 860 38 786 75 q 1019 0 933 0 q 1196 47 1117 0 q 1322 174 1275 94 q 1369 350 1369 254 m 900 1049 l 960 1118 l 731 1261 l 515 1118 l 561 1049 l 731 1138 l 900 1049 "},"Ẅ":{"ha":1476,"x_min":107,"x_max":1369,"o":"m 1369 350 l 1369 972 l 1231 972 l 1231 350 q 1202 244 1231 292 q 1126 167 1174 196 q 1019 139 1078 139 q 913 167 961 139 q 837 244 865 196 q 808 350 808 292 l 808 972 l 668 972 l 668 340 q 637 239 665 285 q 561 166 608 193 q 457 139 514 139 q 351 167 399 139 q 274 244 303 196 q 246 350 246 292 l 246 972 l 107 972 l 107 350 q 154 174 107 254 q 281 47 201 94 q 457 0 361 0 q 617 38 543 0 q 738 139 690 75 q 860 38 786 75 q 1019 0 933 0 q 1196 47 1117 0 q 1322 174 1275 94 q 1369 350 1369 254 m 688 1114 q 669 1158 688 1139 q 625 1176 650 1176 q 580 1158 599 1176 q 561 1114 561 1139 q 580 1069 561 1088 q 625 1051 599 1051 q 669 1069 650 1051 q 688 1114 688 1088 m 914 1114 q 895 1158 914 1139 q 850 1176 876 1176 q 806 1158 824 1176 q 788 1114 788 1139 q 806 1069 788 1088 q 850 1051 824 1051 q 895 1069 876 1051 q 914 1114 914 1088 "},"Ẁ":{"ha":1476,"x_min":107,"x_max":1369,"o":"m 1369 350 l 1369 972 l 1231 972 l 1231 350 q 1202 244 1231 292 q 1126 167 1174 196 q 1019 139 1078 139 q 913 167 961 139 q 837 244 865 196 q 808 350 808 292 l 808 972 l 668 972 l 668 340 q 637 239 665 285 q 561 166 608 193 q 457 139 514 139 q 351 167 399 139 q 274 244 303 196 q 246 350 246 292 l 246 972 l 107 972 l 107 350 q 154 174 107 254 q 281 47 201 94 q 457 0 361 0 q 617 38 543 0 q 738 139 690 75 q 860 38 786 75 q 1019 0 933 0 q 1196 47 1117 0 q 1322 174 1275 94 q 1369 350 1369 254 m 508 1260 l 456 1140 l 710 1049 l 743 1122 l 508 1260 "},"X":{"ha":1138,"x_min":7,"x_max":1131,"o":"m 1131 0 l 189 972 l 7 972 l 478 486 l 7 0 l 189 0 l 568 392 l 949 0 l 1131 0 m 1131 972 l 949 972 l 617 629 l 707 536 l 1131 972 "},"Y":{"ha":1311,"x_min":79,"x_max":1203,"o":"m 1203 278 l 1203 972 l 1064 972 l 1064 486 l 426 486 q 322 514 369 486 q 246 590 274 542 q 218 694 218 638 l 218 972 l 79 972 l 79 694 q 126 520 79 599 q 252 394 174 442 q 426 347 331 347 l 1064 347 l 1064 278 q 1035 208 1064 240 q 960 158 1007 176 q 856 139 913 139 l 79 139 l 79 0 l 856 0 q 1031 38 951 0 q 1156 138 1110 75 q 1203 278 1203 201 "},"Ý":{"ha":1311,"x_min":79,"x_max":1203,"o":"m 1203 278 l 1203 972 l 1064 972 l 1064 486 l 426 486 q 322 514 369 486 q 246 590 274 542 q 218 694 218 638 l 218 972 l 79 972 l 79 694 q 126 520 79 599 q 252 394 174 442 q 426 347 331 347 l 1064 347 l 1064 278 q 1035 208 1064 240 q 960 158 1007 176 q 856 139 913 139 l 79 139 l 79 0 l 856 0 q 1031 38 951 0 q 1156 138 1110 75 q 1203 278 1203 201 m 924 1140 l 871 1260 l 636 1122 l 669 1049 l 924 1140 "},"Ŷ":{"ha":1311,"x_min":79,"x_max":1203,"o":"m 1203 278 l 1203 972 l 1064 972 l 1064 486 l 426 486 q 322 514 369 486 q 246 590 274 542 q 218 694 218 638 l 218 972 l 79 972 l 79 694 q 126 520 79 599 q 252 394 174 442 q 426 347 331 347 l 1064 347 l 1064 278 q 1035 208 1064 240 q 960 158 1007 176 q 856 139 913 139 l 79 139 l 79 0 l 856 0 q 1031 38 951 0 q 1156 138 1110 75 q 1203 278 1203 201 m 818 1049 l 878 1118 l 649 1261 l 433 1118 l 479 1049 l 649 1138 l 818 1049 "},"Ÿ":{"ha":1311,"x_min":79,"x_max":1203,"o":"m 1203 278 l 1203 972 l 1064 972 l 1064 486 l 426 486 q 322 514 369 486 q 246 590 274 542 q 218 694 218 638 l 218 972 l 79 972 l 79 694 q 126 520 79 599 q 252 394 174 442 q 426 347 331 347 l 1064 347 l 1064 278 q 1035 208 1064 240 q 960 158 1007 176 q 856 139 913 139 l 79 139 l 79 0 l 856 0 q 1031 38 951 0 q 1156 138 1110 75 q 1203 278 1203 201 m 590 1114 q 572 1158 590 1139 q 528 1176 553 1176 q 483 1158 501 1176 q 464 1114 464 1139 q 483 1069 464 1088 q 528 1051 501 1051 q 572 1069 553 1051 q 590 1114 590 1088 m 817 1114 q 798 1158 817 1139 q 753 1176 779 1176 q 708 1158 726 1176 q 690 1114 690 1139 q 708 1069 690 1088 q 753 1051 726 1051 q 798 1069 779 1051 q 817 1114 817 1088 "},"Ỳ":{"ha":1311,"x_min":79,"x_max":1203,"o":"m 1203 278 l 1203 972 l 1064 972 l 1064 486 l 426 486 q 322 514 369 486 q 246 590 274 542 q 218 694 218 638 l 218 972 l 79 972 l 79 694 q 126 520 79 599 q 252 394 174 442 q 426 347 331 347 l 1064 347 l 1064 278 q 1035 208 1064 240 q 960 158 1007 176 q 856 139 913 139 l 79 139 l 79 0 l 856 0 q 1031 38 951 0 q 1156 138 1110 75 q 1203 278 1203 201 m 425 1260 l 372 1140 l 626 1049 l 660 1122 l 425 1260 "},"Z":{"ha":1239,"x_min":58,"x_max":1182,"o":"m 1182 833 l 1182 972 l 58 972 l 58 833 l 957 833 l 58 139 l 58 0 l 1182 0 l 1182 139 l 289 139 l 1182 833 "},"Ź":{"ha":1239,"x_min":58,"x_max":1182,"o":"m 1182 833 l 1182 972 l 58 972 l 58 833 l 957 833 l 58 139 l 58 0 l 1182 0 l 1182 139 l 289 139 l 1182 833 m 901 1140 l 849 1260 l 614 1122 l 647 1049 l 901 1140 "},"Ž":{"ha":1239,"x_min":58,"x_max":1182,"o":"m 1182 833 l 1182 972 l 58 972 l 58 833 l 957 833 l 58 139 l 58 0 l 1182 0 l 1182 139 l 289 139 l 1182 833 m 450 1247 l 404 1179 l 619 1035 l 835 1179 l 789 1247 l 619 1160 l 450 1247 "},"Ż":{"ha":1239,"x_min":58,"x_max":1182,"o":"m 1182 833 l 1182 972 l 58 972 l 58 833 l 957 833 l 58 139 l 58 0 l 1182 0 l 1182 139 l 289 139 l 1182 833 m 682 1128 q 663 1172 682 1153 q 619 1190 644 1190 q 575 1172 593 1190 q 557 1128 557 1153 q 575 1083 557 1101 q 619 1065 593 1065 q 663 1083 644 1065 q 682 1128 682 1101 "},"a":{"ha":1074,"x_min":88,"x_max":974,"o":"m 974 0 l 974 767 l 474 767 q 324 737 394 767 q 201 654 254 707 q 117 531 147 601 q 88 382 88 461 l 88 0 l 228 0 l 228 382 q 261 505 228 450 q 350 593 294 560 q 474 626 406 626 l 835 626 l 835 351 l 300 351 l 300 210 l 835 210 l 835 0 l 974 0 "},"á":{"ha":1074,"x_min":88,"x_max":974,"o":"m 974 0 l 974 767 l 474 767 q 324 737 394 767 q 201 654 254 707 q 117 531 147 601 q 88 382 88 461 l 88 0 l 228 0 l 228 382 q 261 505 228 450 q 350 593 294 560 q 474 626 406 626 l 835 626 l 835 351 l 300 351 l 300 210 l 835 210 l 835 0 l 974 0 m 813 946 l 760 1065 l 525 928 l 558 854 l 813 946 "},"ă":{"ha":1074,"x_min":88,"x_max":974,"o":"m 974 0 l 974 767 l 474 767 q 324 737 394 767 q 201 654 254 707 q 117 531 147 601 q 88 382 88 461 l 88 0 l 228 0 l 228 382 q 261 505 228 450 q 350 593 294 560 q 474 626 406 626 l 835 626 l 835 351 l 300 351 l 300 210 l 835 210 l 835 0 l 974 0 m 735 1044 l 643 1044 q 630 1016 640 1033 q 597 985 619 999 q 536 972 575 972 q 476 985 497 972 q 444 1016 454 999 q 429 1044 433 1033 l 338 1044 q 347 996 339 1026 q 375 933 354 965 q 435 880 396 901 q 536 858 474 858 q 638 880 599 858 q 697 933 676 901 q 726 996 718 965 q 735 1044 733 1026 "},"â":{"ha":1074,"x_min":88,"x_max":974,"o":"m 974 0 l 974 767 l 474 767 q 324 737 394 767 q 201 654 254 707 q 117 531 147 601 q 88 382 88 461 l 88 0 l 228 0 l 228 382 q 261 505 228 450 q 350 593 294 560 q 474 626 406 626 l 835 626 l 835 351 l 300 351 l 300 210 l 835 210 l 835 0 l 974 0 m 693 854 l 753 924 l 524 1067 l 308 924 l 354 854 l 524 943 l 693 854 "},"ä":{"ha":1074,"x_min":88,"x_max":974,"o":"m 974 0 l 974 767 l 474 767 q 324 737 394 767 q 201 654 254 707 q 117 531 147 601 q 88 382 88 461 l 88 0 l 228 0 l 228 382 q 261 505 228 450 q 350 593 294 560 q 474 626 406 626 l 835 626 l 835 351 l 300 351 l 300 210 l 835 210 l 835 0 l 974 0 m 481 919 q 462 963 481 944 q 418 982 443 982 q 373 963 392 982 q 354 919 354 944 q 373 875 354 893 q 418 857 392 857 q 462 875 443 857 q 481 919 481 893 m 707 919 q 688 963 707 944 q 643 982 669 982 q 599 963 617 982 q 581 919 581 944 q 599 875 581 893 q 643 857 617 857 q 688 875 669 857 q 707 919 707 893 "},"à":{"ha":1074,"x_min":88,"x_max":974,"o":"m 974 0 l 974 767 l 474 767 q 324 737 394 767 q 201 654 254 707 q 117 531 147 601 q 88 382 88 461 l 88 0 l 228 0 l 228 382 q 261 505 228 450 q 350 593 294 560 q 474 626 406 626 l 835 626 l 835 351 l 300 351 l 300 210 l 835 210 l 835 0 l 974 0 m 300 1065 l 247 946 l 501 854 l 535 928 l 300 1065 "},"ā":{"ha":1074,"x_min":88,"x_max":974,"o":"m 974 0 l 974 767 l 474 767 q 324 737 394 767 q 201 654 254 707 q 117 531 147 601 q 88 382 88 461 l 88 0 l 228 0 l 228 382 q 261 505 228 450 q 350 593 294 560 q 474 626 406 626 l 835 626 l 835 351 l 300 351 l 300 210 l 835 210 l 835 0 l 974 0 m 372 864 l 700 864 l 700 978 l 372 978 l 372 864 "},"ą":{"ha":1074,"x_min":88,"x_max":1054,"o":"m 974 0 l 974 767 l 474 767 q 324 737 394 767 q 201 654 254 707 q 117 531 147 601 q 88 382 88 461 l 88 0 l 228 0 l 228 382 q 261 505 228 450 q 350 593 294 560 q 474 626 406 626 l 835 626 l 835 351 l 300 351 l 300 210 l 835 210 l 835 0 l 847 0 q 803 -58 817 -24 q 790 -118 790 -93 q 828 -190 790 -169 q 917 -210 865 -210 q 1004 -201 972 -210 q 1054 -187 1036 -193 l 1054 -97 q 1003 -113 1036 -104 q 947 -122 971 -122 q 894 -89 894 -122 q 908 -44 894 -68 q 944 0 921 -19 l 974 0 "},"å":{"ha":1074,"x_min":88,"x_max":974,"o":"m 974 0 l 974 767 l 474 767 q 324 737 394 767 q 201 654 254 707 q 117 531 147 601 q 88 382 88 461 l 88 0 l 228 0 l 228 382 q 261 505 228 450 q 350 593 294 560 q 474 626 406 626 l 835 626 l 835 351 l 300 351 l 300 210 l 835 210 l 835 0 l 974 0 m 388 946 q 426 863 388 899 q 531 828 464 828 q 635 863 596 828 q 674 946 674 899 q 637 1029 674 994 q 531 1064 600 1064 q 428 1029 468 1064 q 388 946 388 994 m 483 946 q 495 979 483 965 q 531 993 507 993 q 566 979 554 993 q 578 946 578 965 q 566 913 578 926 q 531 899 554 899 q 495 913 507 899 q 483 946 483 926 "},"ã":{"ha":1074,"x_min":88,"x_max":974,"o":"m 974 0 l 974 767 l 474 767 q 324 737 394 767 q 201 654 254 707 q 117 531 147 601 q 88 382 88 461 l 88 0 l 228 0 l 228 382 q 261 505 228 450 q 350 593 294 560 q 474 626 406 626 l 835 626 l 835 351 l 300 351 l 300 210 l 835 210 l 835 0 l 974 0 m 724 1019 l 636 1019 q 633 999 636 1013 q 622 973 631 985 q 593 961 613 961 q 553 976 571 961 q 514 1005 535 990 q 461 1019 493 1019 q 375 978 413 1019 q 338 853 338 936 l 424 853 q 428 874 425 860 q 440 899 431 888 q 468 911 449 911 q 506 897 490 911 q 544 867 522 882 q 600 853 565 853 q 688 890 651 853 q 724 1019 724 926 "},"æ":{"ha":1688,"x_min":88,"x_max":1633,"o":"m 1633 0 l 1633 140 l 976 140 l 976 626 l 1633 626 l 1633 767 l 474 767 q 324 737 394 767 q 201 654 254 707 q 117 531 147 601 q 88 382 88 461 l 88 0 l 228 0 l 228 382 q 261 505 228 450 q 350 593 294 560 q 474 626 406 626 l 835 626 l 835 351 l 300 351 l 300 210 l 835 210 l 835 0 l 1633 0 m 1544 317 l 1544 457 l 1042 457 l 1042 317 l 1544 317 "},"ǽ":{"ha":1688,"x_min":88,"x_max":1633,"o":"m 1633 0 l 1633 140 l 976 140 l 976 626 l 1633 626 l 1633 767 l 474 767 q 324 737 394 767 q 201 654 254 707 q 117 531 147 601 q 88 382 88 461 l 88 0 l 228 0 l 228 382 q 261 505 228 450 q 350 593 294 560 q 474 626 406 626 l 835 626 l 835 351 l 300 351 l 300 210 l 835 210 l 835 0 l 1633 0 m 1544 317 l 1544 457 l 1042 457 l 1042 317 l 1544 317 m 1210 946 l 1157 1065 l 922 928 l 956 854 l 1210 946 "},"b":{"ha":1049,"x_min":100,"x_max":1004,"o":"m 1004 228 q 967 353 1004 297 q 869 436 929 410 q 891 486 883 460 q 899 542 899 513 q 868 656 899 604 q 785 737 838 707 q 671 767 733 767 l 100 767 l 100 0 l 242 0 l 242 626 l 671 626 q 733 602 707 626 q 758 542 758 578 q 730 483 758 507 q 661 457 701 460 l 307 457 l 307 317 l 775 317 q 838 291 813 317 q 864 228 864 265 q 838 166 864 192 q 775 140 813 140 l 307 140 l 307 0 l 775 0 q 890 31 839 0 q 973 113 942 61 q 1004 228 1004 164 "},"c":{"ha":958,"x_min":54,"x_max":904,"o":"m 904 0 l 904 140 l 411 140 q 296 173 344 140 q 221 261 247 206 q 194 385 194 317 q 221 507 194 453 q 296 594 247 561 q 411 626 344 626 l 904 626 l 904 767 l 411 767 q 224 715 304 767 q 99 578 143 664 q 54 385 54 492 q 99 190 54 278 q 224 51 143 103 q 411 0 304 0 l 904 0 "},"ć":{"ha":958,"x_min":54,"x_max":904,"o":"m 904 0 l 904 140 l 411 140 q 296 173 344 140 q 221 261 247 206 q 194 385 194 317 q 221 507 194 453 q 296 594 247 561 q 411 626 344 626 l 904 626 l 904 767 l 411 767 q 224 715 304 767 q 99 578 143 664 q 54 385 54 492 q 99 190 54 278 q 224 51 143 103 q 411 0 304 0 l 904 0 m 761 946 l 708 1065 l 474 928 l 507 854 l 761 946 "},"č":{"ha":958,"x_min":54,"x_max":904,"o":"m 904 0 l 904 140 l 411 140 q 296 173 344 140 q 221 261 247 206 q 194 385 194 317 q 221 507 194 453 q 296 594 247 561 q 411 626 344 626 l 904 626 l 904 767 l 411 767 q 224 715 304 767 q 99 578 143 664 q 54 385 54 492 q 99 190 54 278 q 224 51 143 103 q 411 0 304 0 l 904 0 m 365 1053 l 319 985 l 535 840 l 750 985 l 704 1053 l 535 965 l 365 1053 "},"ç":{"ha":958,"x_min":54,"x_max":904,"o":"m 904 0 l 904 140 l 411 140 q 296 173 344 140 q 221 261 247 206 q 194 385 194 317 q 221 507 194 453 q 296 594 247 561 q 411 626 344 626 l 904 626 l 904 767 l 411 767 q 224 715 304 767 q 99 578 143 664 q 54 385 54 492 q 99 190 54 278 q 224 51 143 103 q 411 0 304 0 l 486 0 l 449 -101 q 472 -97 460 -99 q 494 -96 483 -96 q 531 -101 510 -96 q 551 -121 551 -106 q 533 -140 551 -133 q 488 -146 515 -146 q 435 -140 461 -146 q 389 -124 408 -133 l 389 -210 q 428 -216 408 -211 q 499 -221 449 -221 q 570 -212 535 -221 q 629 -181 606 -203 q 653 -122 653 -160 q 635 -66 653 -85 q 594 -40 618 -47 q 550 -33 569 -33 l 563 0 l 904 0 "},"ĉ":{"ha":958,"x_min":54,"x_max":904,"o":"m 904 0 l 904 140 l 411 140 q 296 173 344 140 q 221 261 247 206 q 194 385 194 317 q 221 507 194 453 q 296 594 247 561 q 411 626 344 626 l 904 626 l 904 767 l 411 767 q 224 715 304 767 q 99 578 143 664 q 54 385 54 492 q 99 190 54 278 q 224 51 143 103 q 411 0 304 0 l 904 0 m 683 854 l 743 924 l 514 1067 l 299 924 l 344 854 l 514 943 l 683 854 "},"ċ":{"ha":958,"x_min":54,"x_max":904,"o":"m 904 0 l 904 140 l 411 140 q 296 173 344 140 q 221 261 247 206 q 194 385 194 317 q 221 507 194 453 q 296 594 247 561 q 411 626 344 626 l 904 626 l 904 767 l 411 767 q 224 715 304 767 q 99 578 143 664 q 54 385 54 492 q 99 190 54 278 q 224 51 143 103 q 411 0 304 0 l 904 0 m 597 919 q 578 963 597 944 q 535 982 560 982 q 490 963 508 982 q 472 919 472 944 q 490 875 472 893 q 535 857 508 857 q 578 875 560 857 q 597 919 597 893 "},"d":{"ha":1060,"x_min":100,"x_max":1006,"o":"m 1006 385 q 961 578 1006 492 q 836 715 917 664 q 649 767 756 767 l 100 767 l 100 0 l 242 0 l 242 626 l 649 626 q 765 594 717 626 q 839 507 813 561 q 865 385 865 453 q 839 261 865 317 q 765 173 813 206 q 649 140 717 140 l 307 140 l 307 0 l 649 0 q 836 51 756 0 q 961 190 917 103 q 1006 385 1006 278 "},"ð":{"ha":1164,"x_min":24,"x_max":1110,"o":"m 649 306 l 649 444 l 346 444 l 346 626 l 753 626 q 869 594 821 626 q 943 507 917 561 q 969 385 969 453 q 943 261 969 317 q 869 173 917 206 q 753 140 821 140 l 411 140 l 411 0 l 753 0 q 940 51 860 0 q 1065 190 1021 103 q 1110 385 1110 278 q 1065 578 1110 492 q 940 715 1021 664 q 753 767 860 767 l 204 767 l 204 444 l 24 444 l 24 306 l 204 306 l 204 0 l 346 0 l 346 306 l 649 306 "},"ď":{"ha":1060,"x_min":100,"x_max":1006,"o":"m 1006 385 q 961 578 1006 492 q 836 715 917 664 q 649 767 756 767 l 100 767 l 100 0 l 242 0 l 242 626 l 649 626 q 765 594 717 626 q 839 507 813 561 q 865 385 865 453 q 839 261 865 317 q 765 173 813 206 q 649 140 717 140 l 307 140 l 307 0 l 649 0 q 836 51 756 0 q 961 190 917 103 q 1006 385 1006 278 m 324 1053 l 278 985 l 493 840 l 708 985 l 663 1053 l 493 965 l 324 1053 "},"đ":{"ha":1164,"x_min":24,"x_max":1110,"o":"m 649 306 l 649 444 l 346 444 l 346 626 l 753 626 q 869 594 821 626 q 943 507 917 561 q 969 385 969 453 q 943 261 969 317 q 869 173 917 206 q 753 140 821 140 l 411 140 l 411 0 l 753 0 q 940 51 860 0 q 1065 190 1021 103 q 1110 385 1110 278 q 1065 578 1110 492 q 940 715 1021 664 q 753 767 860 767 l 204 767 l 204 444 l 24 444 l 24 306 l 204 306 l 204 0 l 346 0 l 346 306 l 649 306 "},"e":{"ha":951,"x_min":100,"x_max":897,"o":"m 897 0 l 897 140 l 240 140 l 240 626 l 897 626 l 897 767 l 100 767 l 100 0 l 897 0 m 808 317 l 808 457 l 306 457 l 306 317 l 808 317 "},"é":{"ha":951,"x_min":100,"x_max":897,"o":"m 897 0 l 897 140 l 240 140 l 240 626 l 897 626 l 897 767 l 100 767 l 100 0 l 897 0 m 808 317 l 808 457 l 306 457 l 306 317 l 808 317 m 781 946 l 728 1065 l 493 928 l 526 854 l 781 946 "},"ĕ":{"ha":951,"x_min":100,"x_max":897,"o":"m 897 0 l 897 140 l 240 140 l 240 626 l 897 626 l 897 767 l 100 767 l 100 0 l 897 0 m 808 317 l 808 457 l 306 457 l 306 317 l 808 317 m 701 1044 l 610 1044 q 597 1016 607 1033 q 564 985 586 999 q 503 972 542 972 q 442 985 464 972 q 410 1016 421 999 q 396 1044 400 1033 l 304 1044 q 313 996 306 1026 q 342 933 321 965 q 401 880 363 901 q 503 858 440 858 q 604 880 565 858 q 664 933 643 901 q 692 996 685 965 q 701 1044 700 1026 "},"ě":{"ha":951,"x_min":100,"x_max":897,"o":"m 897 0 l 897 140 l 240 140 l 240 626 l 897 626 l 897 767 l 100 767 l 100 0 l 897 0 m 808 317 l 808 457 l 306 457 l 306 317 l 808 317 m 333 1053 l 288 985 l 503 840 l 718 985 l 672 1053 l 503 965 l 333 1053 "},"ê":{"ha":951,"x_min":100,"x_max":897,"o":"m 897 0 l 897 140 l 240 140 l 240 626 l 897 626 l 897 767 l 100 767 l 100 0 l 897 0 m 808 317 l 808 457 l 306 457 l 306 317 l 808 317 m 661 854 l 721 924 l 492 1067 l 276 924 l 322 854 l 492 943 l 661 854 "},"ë":{"ha":951,"x_min":100,"x_max":897,"o":"m 897 0 l 897 140 l 240 140 l 240 626 l 897 626 l 897 767 l 100 767 l 100 0 l 897 0 m 808 317 l 808 457 l 306 457 l 306 317 l 808 317 m 449 919 q 430 963 449 944 q 386 982 411 982 q 341 963 360 982 q 322 919 322 944 q 341 875 322 893 q 386 857 360 857 q 430 875 411 857 q 449 919 449 893 m 675 919 q 656 963 675 944 q 611 982 638 982 q 567 963 585 982 q 549 919 549 944 q 567 875 549 893 q 611 857 585 857 q 656 875 638 857 q 675 919 675 893 "},"ė":{"ha":951,"x_min":100,"x_max":897,"o":"m 897 0 l 897 140 l 240 140 l 240 626 l 897 626 l 897 767 l 100 767 l 100 0 l 897 0 m 808 317 l 808 457 l 306 457 l 306 317 l 808 317 m 565 919 q 547 963 565 944 q 503 982 528 982 q 458 963 476 982 q 440 919 440 944 q 458 875 440 893 q 503 857 476 857 q 547 875 528 857 q 565 919 565 893 "},"è":{"ha":951,"x_min":100,"x_max":897,"o":"m 897 0 l 897 140 l 240 140 l 240 626 l 897 626 l 897 767 l 100 767 l 100 0 l 897 0 m 808 317 l 808 457 l 306 457 l 306 317 l 808 317 m 268 1065 l 215 946 l 469 854 l 503 928 l 268 1065 "},"ē":{"ha":951,"x_min":100,"x_max":897,"o":"m 897 0 l 897 140 l 240 140 l 240 626 l 897 626 l 897 767 l 100 767 l 100 0 l 897 0 m 808 317 l 808 457 l 306 457 l 306 317 l 808 317 m 339 864 l 667 864 l 667 978 l 339 978 l 339 864 "},"ę":{"ha":951,"x_min":100,"x_max":897,"o":"m 897 0 l 897 140 l 240 140 l 240 626 l 897 626 l 897 767 l 100 767 l 100 0 l 690 0 q 647 -58 660 -24 q 633 -118 633 -93 q 671 -190 633 -169 q 760 -210 708 -210 q 847 -201 815 -210 q 897 -187 879 -193 l 897 -97 q 847 -113 879 -104 q 790 -122 814 -122 q 738 -89 738 -122 q 751 -44 738 -68 q 788 0 764 -19 l 897 0 m 808 317 l 808 457 l 306 457 l 306 317 l 808 317 "},"f":{"ha":926,"x_min":100,"x_max":899,"o":"m 899 626 l 899 767 l 100 767 l 100 0 l 240 0 l 240 626 l 899 626 m 808 317 l 808 457 l 306 457 l 306 317 l 808 317 "},"g":{"ha":981,"x_min":54,"x_max":904,"o":"m 904 0 l 904 457 l 365 457 l 365 317 l 764 317 l 764 140 l 411 140 q 296 173 344 140 q 221 261 247 206 q 194 385 194 317 q 221 507 194 453 q 296 594 247 561 q 411 626 344 626 l 904 626 l 904 767 l 411 767 q 224 715 304 767 q 99 578 143 664 q 54 385 54 492 q 99 190 54 278 q 224 51 143 103 q 411 0 304 0 l 904 0 "},"ğ":{"ha":981,"x_min":54,"x_max":904,"o":"m 904 0 l 904 457 l 365 457 l 365 317 l 764 317 l 764 140 l 411 140 q 296 173 344 140 q 221 261 247 206 q 194 385 194 317 q 221 507 194 453 q 296 594 247 561 q 411 626 344 626 l 904 626 l 904 767 l 411 767 q 224 715 304 767 q 99 578 143 664 q 54 385 54 492 q 99 190 54 278 q 224 51 143 103 q 411 0 304 0 l 904 0 m 717 1044 l 625 1044 q 612 1016 622 1033 q 579 985 601 999 q 518 972 557 972 q 458 985 479 972 q 426 1016 436 999 q 411 1044 415 1033 l 319 1044 q 328 996 321 1026 q 357 933 336 965 q 417 880 378 901 q 518 858 456 858 q 619 880 581 858 q 679 933 658 901 q 708 996 700 965 q 717 1044 715 1026 "},"ĝ":{"ha":981,"x_min":54,"x_max":904,"o":"m 904 0 l 904 457 l 365 457 l 365 317 l 764 317 l 764 140 l 411 140 q 296 173 344 140 q 221 261 247 206 q 194 385 194 317 q 221 507 194 453 q 296 594 247 561 q 411 626 344 626 l 904 626 l 904 767 l 411 767 q 224 715 304 767 q 99 578 143 664 q 54 385 54 492 q 99 190 54 278 q 224 51 143 103 q 411 0 304 0 l 904 0 m 681 854 l 740 924 l 511 1067 l 296 924 l 342 854 l 511 943 l 681 854 "},"ģ":{"ha":981,"x_min":54,"x_max":904,"o":"m 904 0 l 904 457 l 365 457 l 365 317 l 764 317 l 764 140 l 411 140 q 296 173 344 140 q 221 261 247 206 q 194 385 194 317 q 221 507 194 453 q 296 594 247 561 q 411 626 344 626 l 904 626 l 904 767 l 411 767 q 224 715 304 767 q 99 578 143 664 q 54 385 54 492 q 99 190 54 278 q 224 51 143 103 q 411 0 304 0 l 904 0 m 613 -171 q 588 -109 613 -135 q 529 -83 564 -83 q 470 -108 494 -83 q 446 -167 446 -133 q 466 -222 446 -199 q 517 -250 486 -246 q 503 -292 511 -276 q 494 -308 494 -308 l 565 -310 q 576 -290 565 -310 q 599 -239 588 -271 q 613 -171 611 -207 "},"ġ":{"ha":981,"x_min":54,"x_max":904,"o":"m 904 0 l 904 457 l 365 457 l 365 317 l 764 317 l 764 140 l 411 140 q 296 173 344 140 q 221 261 247 206 q 194 385 194 317 q 221 507 194 453 q 296 594 247 561 q 411 626 344 626 l 904 626 l 904 767 l 411 767 q 224 715 304 767 q 99 578 143 664 q 54 385 54 492 q 99 190 54 278 q 224 51 143 103 q 411 0 304 0 l 904 0 m 581 919 q 562 963 581 944 q 518 982 543 982 q 474 963 492 982 q 456 919 456 944 q 474 875 456 893 q 518 857 492 857 q 562 875 543 857 q 581 919 581 893 "},"h":{"ha":1003,"x_min":100,"x_max":903,"o":"m 903 0 l 903 764 l 764 764 l 764 450 l 304 450 l 304 311 l 764 311 l 764 0 l 903 0 m 239 0 l 239 764 l 100 764 l 100 0 l 239 0 "},"ħ":{"ha":1003,"x_min":100,"x_max":903,"o":"m 903 0 l 903 764 l 764 764 l 764 450 l 304 450 l 304 311 l 764 311 l 764 0 l 903 0 m 239 669 l 239 764 l 100 764 l 100 0 l 239 0 l 239 538 l 690 538 l 690 669 l 239 669 "},"ĥ":{"ha":1003,"x_min":100,"x_max":903,"o":"m 903 0 l 903 764 l 764 764 l 764 450 l 304 450 l 304 311 l 764 311 l 764 0 l 903 0 m 239 0 l 239 764 l 100 764 l 100 0 l 239 0 m 664 854 l 724 924 l 494 1067 l 279 924 l 325 854 l 494 943 l 664 854 "},"i":{"ha":338,"x_min":100,"x_max":238,"o":"m 238 0 l 238 764 l 100 764 l 100 0 l 238 0 "},"ı":{"ha":338,"x_min":100,"x_max":238,"o":"m 238 0 l 238 764 l 100 764 l 100 0 l 238 0 "},"í":{"ha":338,"x_min":100,"x_max":451,"o":"m 238 0 l 238 764 l 100 764 l 100 0 l 238 0 m 451 946 l 399 1065 l 164 928 l 197 854 l 451 946 "},"ĭ":{"ha":338,"x_min":-29,"x_max":368,"o":"m 238 0 l 238 764 l 100 764 l 100 0 l 238 0 m 368 1072 l 276 1072 q 263 1044 274 1061 q 231 1013 253 1026 q 169 1000 208 1000 q 109 1013 131 1000 q 77 1044 88 1026 q 63 1072 67 1061 l -29 1072 q -20 1024 -28 1054 q 8 961 -12 993 q 68 908 29 929 q 169 886 107 886 q 271 908 232 886 q 331 961 310 929 q 359 1024 351 993 q 368 1072 367 1054 "},"î":{"ha":338,"x_min":-53,"x_max":392,"o":"m 238 0 l 238 764 l 100 764 l 100 0 l 238 0 m 332 854 l 392 924 l 163 1067 l -53 924 l -7 854 l 163 943 l 332 854 "},"ï":{"ha":338,"x_min":-7,"x_max":346,"o":"m 238 0 l 238 764 l 100 764 l 100 0 l 238 0 m 119 919 q 101 963 119 944 q 57 982 82 982 q 12 963 31 982 q -7 919 -7 944 q 12 875 -7 893 q 57 857 31 857 q 101 875 82 857 q 119 919 119 893 m 346 919 q 327 963 346 944 q 282 982 308 982 q 238 963 256 982 q 219 919 219 944 q 238 875 219 893 q 282 857 256 857 q 327 875 308 857 q 346 919 346 893 "},"ì":{"ha":338,"x_min":-114,"x_max":238,"o":"m 238 0 l 238 764 l 100 764 l 100 0 l 238 0 m -61 1065 l -114 946 l 140 854 l 174 928 l -61 1065 "},"ĳ":{"ha":1307,"x_min":100,"x_max":1219,"o":"m 238 0 l 238 764 l 100 764 l 100 0 l 238 0 m 1219 382 l 1219 764 l 390 764 l 390 626 l 1082 626 l 1082 382 q 1049 260 1082 315 q 961 172 1017 204 q 839 139 906 139 l 390 139 l 390 0 l 839 0 q 987 30 918 0 q 1108 112 1056 60 q 1190 233 1161 164 q 1219 382 1219 303 "},"ī":{"ha":338,"x_min":4,"x_max":332,"o":"m 238 0 l 238 764 l 100 764 l 100 0 l 238 0 m 4 892 l 332 892 l 332 1006 l 4 1006 l 4 892 "},"į":{"ha":338,"x_min":54,"x_max":318,"o":"m 238 0 l 238 764 l 100 764 l 100 0 l 111 0 q 67 -58 81 -24 q 54 -118 54 -93 q 92 -190 54 -169 q 181 -210 129 -210 q 268 -201 236 -210 q 318 -187 300 -193 l 318 -97 q 267 -113 300 -104 q 211 -122 235 -122 q 158 -89 158 -122 q 172 -44 158 -68 q 208 0 185 -19 l 238 0 "},"ĩ":{"ha":338,"x_min":-24,"x_max":363,"o":"m 238 0 l 238 764 l 100 764 l 100 0 l 238 0 m 363 1047 l 275 1047 q 272 1026 275 1040 q 260 1001 269 1013 q 232 989 251 989 q 192 1003 210 989 q 153 1033 174 1018 q 100 1047 132 1047 q 14 1006 51 1047 q -24 881 -24 964 l 63 881 q 67 901 64 888 q 78 927 69 915 q 107 939 88 939 q 145 924 129 939 q 183 895 161 910 q 239 881 204 881 q 326 917 290 881 q 363 1047 363 954 "},"j":{"ha":969,"x_min":53,"x_max":882,"o":"m 882 382 l 882 764 l 53 764 l 53 626 l 744 626 l 744 382 q 712 260 744 315 q 624 172 679 204 q 501 139 568 139 l 53 139 l 53 0 l 501 0 q 649 30 581 0 q 771 112 718 60 q 853 233 824 164 q 882 382 882 303 "},"ȷ":{"ha":969,"x_min":53,"x_max":882,"o":"m 882 382 l 882 764 l 53 764 l 53 626 l 744 626 l 744 382 q 712 260 744 315 q 624 172 679 204 q 501 139 568 139 l 53 139 l 53 0 l 501 0 q 649 30 581 0 q 771 112 718 60 q 853 233 824 164 q 882 382 882 303 "},"ĵ":{"ha":969,"x_min":53,"x_max":882,"o":"m 882 382 l 882 764 l 53 764 l 53 626 l 744 626 l 744 382 q 712 260 744 315 q 624 172 679 204 q 501 139 568 139 l 53 139 l 53 0 l 501 0 q 649 30 581 0 q 771 112 718 60 q 853 233 824 164 q 882 382 882 303 m 647 854 l 707 924 l 478 1067 l 263 924 l 308 854 l 478 943 l 647 854 "},"k":{"ha":1010,"x_min":100,"x_max":1004,"o":"m 1004 0 l 557 446 l 997 764 l 785 764 l 239 375 l 239 764 l 100 764 l 100 0 l 239 0 l 239 215 l 450 368 l 817 0 l 1004 0 "},"ķ":{"ha":1010,"x_min":100,"x_max":1004,"o":"m 1004 0 l 557 446 l 997 764 l 785 764 l 239 375 l 239 764 l 100 764 l 100 0 l 239 0 l 239 215 l 450 368 l 817 0 l 1004 0 m 588 -129 q 563 -67 588 -93 q 504 -42 539 -42 q 445 -67 469 -42 q 421 -125 421 -92 q 441 -181 421 -157 q 492 -208 461 -204 q 478 -251 486 -235 q 469 -267 469 -267 l 540 -268 q 551 -249 540 -268 q 574 -197 563 -229 q 588 -129 586 -165 "},"ĸ":{"ha":1010,"x_min":100,"x_max":1004,"o":"m 1004 0 l 557 446 l 997 764 l 785 764 l 239 375 l 239 764 l 100 764 l 100 0 l 239 0 l 239 215 l 450 368 l 817 0 l 1004 0 "},"l":{"ha":849,"x_min":100,"x_max":831,"o":"m 831 0 l 831 139 l 239 139 l 239 764 l 100 764 l 100 0 l 831 0 "},"ĺ":{"ha":849,"x_min":100,"x_max":831,"o":"m 831 0 l 831 139 l 239 139 l 239 764 l 100 764 l 100 0 l 831 0 m 456 946 l 403 1065 l 168 928 l 201 854 l 456 946 "},"ľ":{"ha":849,"x_min":100,"x_max":831,"o":"m 831 0 l 831 139 l 239 139 l 239 764 l 100 764 l 100 0 l 831 0 m 529 763 q 505 824 529 799 q 446 850 481 850 q 387 825 411 850 q 363 767 363 800 q 383 711 363 735 q 433 683 403 688 q 419 641 428 657 q 411 625 411 625 l 482 624 q 493 643 482 624 q 516 694 504 663 q 529 763 528 726 "},"ļ":{"ha":849,"x_min":100,"x_max":831,"o":"m 831 0 l 831 139 l 239 139 l 239 764 l 100 764 l 100 0 l 831 0 m 507 -157 q 483 -95 507 -121 q 424 -69 458 -69 q 365 -94 389 -69 q 340 -153 340 -119 q 360 -208 340 -185 q 411 -236 381 -232 q 397 -278 406 -262 q 389 -294 389 -294 l 460 -296 q 471 -276 460 -296 q 494 -225 482 -257 q 507 -157 506 -193 "},"ŀ":{"ha":1108,"x_min":100,"x_max":1021,"o":"m 831 0 l 831 139 l 239 139 l 239 764 l 100 764 l 100 0 l 831 0 m 1021 494 q 990 568 1021 538 q 917 599 960 599 q 843 568 874 599 q 813 494 813 538 q 843 421 813 451 q 917 390 874 390 q 990 421 960 390 q 1021 494 1021 451 "},"ł":{"ha":954,"x_min":25,"x_max":936,"o":"m 664 442 l 664 594 l 344 478 l 344 764 l 206 764 l 206 426 l 25 361 l 25 208 l 206 274 l 206 0 l 936 0 l 936 139 l 344 139 l 344 325 l 664 442 "},"m":{"ha":1179,"x_min":100,"x_max":1079,"o":"m 660 0 l 660 367 q 692 497 660 439 q 780 591 725 556 q 901 626 835 626 l 940 626 l 940 0 l 1079 0 l 1079 764 l 901 764 q 726 719 806 764 q 593 599 646 674 q 459 719 542 674 q 278 764 376 764 l 100 764 l 100 0 l 239 0 l 239 626 l 278 626 q 401 594 346 626 q 488 506 456 561 q 521 385 521 451 l 521 0 l 660 0 "},"n":{"ha":1040,"x_min":100,"x_max":940,"o":"m 801 0 l 940 0 l 940 764 l 801 764 l 801 386 q 665 535 742 468 q 503 651 588 601 q 334 730 418 701 q 175 763 250 758 l 175 764 l 100 764 l 100 0 l 239 0 l 239 615 q 387 560 310 599 q 538 463 464 521 q 671 332 611 404 q 766 176 731 260 q 801 0 801 92 "},"ń":{"ha":1040,"x_min":100,"x_max":940,"o":"m 801 0 l 940 0 l 940 764 l 801 764 l 801 386 q 665 535 742 468 q 503 651 588 601 q 334 730 418 701 q 175 763 250 758 l 175 764 l 100 764 l 100 0 l 239 0 l 239 615 q 387 560 310 599 q 538 463 464 521 q 671 332 611 404 q 766 176 731 260 q 801 0 801 92 m 803 946 l 750 1065 l 515 928 l 549 854 l 803 946 "},"ŉ":{"ha":1265,"x_min":89,"x_max":1165,"o":"m 256 1039 q 231 1101 256 1075 q 172 1126 207 1126 q 113 1101 138 1126 q 89 1043 89 1076 q 109 988 89 1011 q 160 960 129 964 q 146 917 154 933 q 138 901 138 901 l 208 900 q 219 919 208 900 q 242 971 231 939 q 256 1039 254 1003 m 1026 0 l 1165 0 l 1165 764 l 1026 764 l 1026 386 q 890 535 967 468 q 728 651 813 601 q 559 730 643 701 q 400 763 475 758 l 400 764 l 325 764 l 325 0 l 464 0 l 464 615 q 612 560 535 599 q 763 463 689 521 q 896 332 836 404 q 991 176 956 260 q 1026 0 1026 92 "},"ň":{"ha":1040,"x_min":100,"x_max":940,"o":"m 801 0 l 940 0 l 940 764 l 801 764 l 801 386 q 665 535 742 468 q 503 651 588 601 q 334 730 418 701 q 175 763 250 758 l 175 764 l 100 764 l 100 0 l 239 0 l 239 615 q 387 560 310 599 q 538 463 464 521 q 671 332 611 404 q 766 176 731 260 q 801 0 801 92 m 350 1053 l 304 985 l 519 840 l 735 985 l 689 1053 l 519 965 l 350 1053 "},"ņ":{"ha":1040,"x_min":100,"x_max":940,"o":"m 801 0 l 940 0 l 940 764 l 801 764 l 801 386 q 665 535 742 468 q 503 651 588 601 q 334 730 418 701 q 175 763 250 758 l 175 764 l 100 764 l 100 0 l 239 0 l 239 615 q 387 560 310 599 q 538 463 464 521 q 671 332 611 404 q 766 176 731 260 q 801 0 801 92 m 603 -143 q 578 -81 603 -107 q 519 -56 554 -56 q 460 -81 485 -56 q 436 -139 436 -106 q 456 -194 436 -171 q 507 -222 476 -218 q 493 -265 501 -249 q 485 -281 485 -281 l 556 -282 q 567 -262 556 -282 q 590 -211 578 -243 q 603 -143 601 -179 "},"ñ":{"ha":1040,"x_min":100,"x_max":940,"o":"m 801 0 l 940 0 l 940 764 l 801 764 l 801 386 q 665 535 742 468 q 503 651 588 601 q 334 730 418 701 q 175 763 250 758 l 175 764 l 100 764 l 100 0 l 239 0 l 239 615 q 387 560 310 599 q 538 463 464 521 q 671 332 611 404 q 766 176 731 260 q 801 0 801 92 m 713 1019 l 625 1019 q 622 999 625 1013 q 610 973 619 985 q 582 961 601 961 q 542 976 560 961 q 503 1005 524 990 q 450 1019 482 1019 q 364 978 401 1019 q 326 853 326 936 l 413 853 q 417 874 414 860 q 428 899 419 888 q 457 911 438 911 q 495 897 479 911 q 533 867 511 882 q 589 853 554 853 q 676 890 640 853 q 713 1019 713 926 "},"ŋ":{"ha":1040,"x_min":100,"x_max":940,"o":"m 939 169 l 940 171 l 940 764 l 801 764 l 801 386 q 665 535 742 468 q 503 651 588 601 q 334 730 418 701 q 175 763 250 758 l 175 764 l 100 764 l 100 0 l 239 0 l 239 615 q 412 545 321 596 q 585 420 503 494 q 725 253 668 346 q 796 57 782 161 q 751 -43 785 1 q 667 -113 717 -87 q 558 -139 617 -139 l 110 -139 l 110 -278 l 558 -278 q 706 -248 638 -278 q 828 -166 775 -218 q 910 -44 881 -114 q 939 104 939 25 l 939 169 "},"o":{"ha":1054,"x_min":54,"x_max":1000,"o":"m 1000 383 q 956 575 1000 489 q 833 713 913 661 q 649 764 754 764 l 407 764 q 222 713 301 764 q 98 575 142 661 q 54 383 54 489 q 98 191 54 278 q 222 52 142 104 q 407 0 301 0 l 649 0 q 833 52 754 0 q 956 191 913 104 q 1000 383 1000 278 m 861 383 q 836 261 861 317 q 763 172 811 206 q 649 139 715 139 l 407 139 q 292 172 340 139 q 219 261 244 206 q 193 383 193 317 q 219 506 193 450 q 292 594 244 561 q 407 626 340 626 l 649 626 q 763 594 715 626 q 836 506 811 561 q 861 383 861 450 "},"ó":{"ha":1054,"x_min":54,"x_max":1000,"o":"m 1000 383 q 956 575 1000 489 q 833 713 913 661 q 649 764 754 764 l 407 764 q 222 713 301 764 q 98 575 142 661 q 54 383 54 489 q 98 191 54 278 q 222 52 142 104 q 407 0 301 0 l 649 0 q 833 52 754 0 q 956 191 913 104 q 1000 383 1000 278 m 861 383 q 836 261 861 317 q 763 172 811 206 q 649 139 715 139 l 407 139 q 292 172 340 139 q 219 261 244 206 q 193 383 193 317 q 219 506 193 450 q 292 594 244 561 q 407 626 340 626 l 649 626 q 763 594 715 626 q 836 506 811 561 q 861 383 861 450 m 810 946 l 757 1065 l 522 928 l 556 854 l 810 946 "},"ŏ":{"ha":1054,"x_min":54,"x_max":1000,"o":"m 1000 383 q 956 575 1000 489 q 833 713 913 661 q 649 764 754 764 l 407 764 q 222 713 301 764 q 98 575 142 661 q 54 383 54 489 q 98 191 54 278 q 222 52 142 104 q 407 0 301 0 l 649 0 q 833 52 754 0 q 956 191 913 104 q 1000 383 1000 278 m 861 383 q 836 261 861 317 q 763 172 811 206 q 649 139 715 139 l 407 139 q 292 172 340 139 q 219 261 244 206 q 193 383 193 317 q 219 506 193 450 q 292 594 244 561 q 407 626 340 626 l 649 626 q 763 594 715 626 q 836 506 811 561 q 861 383 861 450 m 725 1044 l 633 1044 q 620 1016 631 1033 q 588 985 610 999 q 526 972 565 972 q 466 985 488 972 q 434 1016 444 999 q 419 1044 424 1033 l 328 1044 q 337 996 329 1026 q 365 933 344 965 q 425 880 386 901 q 526 858 464 858 q 628 880 589 858 q 688 933 667 901 q 716 996 708 965 q 725 1044 724 1026 "},"ô":{"ha":1054,"x_min":54,"x_max":1000,"o":"m 1000 383 q 956 575 1000 489 q 833 713 913 661 q 649 764 754 764 l 407 764 q 222 713 301 764 q 98 575 142 661 q 54 383 54 489 q 98 191 54 278 q 222 52 142 104 q 407 0 301 0 l 649 0 q 833 52 754 0 q 956 191 913 104 q 1000 383 1000 278 m 861 383 q 836 261 861 317 q 763 172 811 206 q 649 139 715 139 l 407 139 q 292 172 340 139 q 219 261 244 206 q 193 383 193 317 q 219 506 193 450 q 292 594 244 561 q 407 626 340 626 l 649 626 q 763 594 715 626 q 836 506 811 561 q 861 383 861 450 m 689 854 l 749 924 l 519 1067 l 304 924 l 350 854 l 519 943 l 689 854 "},"ö":{"ha":1054,"x_min":54,"x_max":1000,"o":"m 1000 383 q 956 575 1000 489 q 833 713 913 661 q 649 764 754 764 l 407 764 q 222 713 301 764 q 98 575 142 661 q 54 383 54 489 q 98 191 54 278 q 222 52 142 104 q 407 0 301 0 l 649 0 q 833 52 754 0 q 956 191 913 104 q 1000 383 1000 278 m 861 383 q 836 261 861 317 q 763 172 811 206 q 649 139 715 139 l 407 139 q 292 172 340 139 q 219 261 244 206 q 193 383 193 317 q 219 506 193 450 q 292 594 244 561 q 407 626 340 626 l 649 626 q 763 594 715 626 q 836 506 811 561 q 861 383 861 450 m 476 919 q 458 963 476 944 q 414 982 439 982 q 369 963 388 982 q 350 919 350 944 q 369 875 350 893 q 414 857 388 857 q 458 875 439 857 q 476 919 476 893 m 703 919 q 684 963 703 944 q 639 982 665 982 q 594 963 613 982 q 576 919 576 944 q 594 875 576 893 q 639 857 613 857 q 684 875 665 857 q 703 919 703 893 "},"ò":{"ha":1054,"x_min":54,"x_max":1000,"o":"m 1000 383 q 956 575 1000 489 q 833 713 913 661 q 649 764 754 764 l 407 764 q 222 713 301 764 q 98 575 142 661 q 54 383 54 489 q 98 191 54 278 q 222 52 142 104 q 407 0 301 0 l 649 0 q 833 52 754 0 q 956 191 913 104 q 1000 383 1000 278 m 861 383 q 836 261 861 317 q 763 172 811 206 q 649 139 715 139 l 407 139 q 292 172 340 139 q 219 261 244 206 q 193 383 193 317 q 219 506 193 450 q 292 594 244 561 q 407 626 340 626 l 649 626 q 763 594 715 626 q 836 506 811 561 q 861 383 861 450 m 297 1065 l 244 946 l 499 854 l 532 928 l 297 1065 "},"ő":{"ha":1054,"x_min":54,"x_max":1000,"o":"m 1000 383 q 956 575 1000 489 q 833 713 913 661 q 649 764 754 764 l 407 764 q 222 713 301 764 q 98 575 142 661 q 54 383 54 489 q 98 191 54 278 q 222 52 142 104 q 407 0 301 0 l 649 0 q 833 52 754 0 q 956 191 913 104 q 1000 383 1000 278 m 861 383 q 836 261 861 317 q 763 172 811 206 q 649 139 715 139 l 407 139 q 292 172 340 139 q 219 261 244 206 q 193 383 193 317 q 219 506 193 450 q 292 594 244 561 q 407 626 340 626 l 649 626 q 763 594 715 626 q 836 506 811 561 q 861 383 861 450 m 667 940 l 611 1035 l 454 894 l 482 849 l 667 940 m 876 940 l 821 1035 l 667 894 l 692 849 l 876 940 "},"ō":{"ha":1054,"x_min":54,"x_max":1000,"o":"m 1000 383 q 956 575 1000 489 q 833 713 913 661 q 649 764 754 764 l 407 764 q 222 713 301 764 q 98 575 142 661 q 54 383 54 489 q 98 191 54 278 q 222 52 142 104 q 407 0 301 0 l 649 0 q 833 52 754 0 q 956 191 913 104 q 1000 383 1000 278 m 861 383 q 836 261 861 317 q 763 172 811 206 q 649 139 715 139 l 407 139 q 292 172 340 139 q 219 261 244 206 q 193 383 193 317 q 219 506 193 450 q 292 594 244 561 q 407 626 340 626 l 649 626 q 763 594 715 626 q 836 506 811 561 q 861 383 861 450 m 363 864 l 690 864 l 690 978 l 363 978 l 363 864 "},"ø":{"ha":1054,"x_min":54,"x_max":1000,"o":"m 932 765 l 767 765 l 753 749 q 649 764 703 764 l 407 764 q 222 713 301 764 q 98 575 142 661 q 54 383 54 489 q 89 210 54 290 q 188 76 124 129 l 124 0 l 289 0 l 301 15 q 407 0 354 0 l 649 0 q 833 52 754 0 q 956 191 913 104 q 1000 383 1000 278 q 965 556 1000 476 q 867 688 929 636 l 932 765 m 407 626 l 650 626 l 276 183 q 215 269 236 217 q 193 383 193 321 q 219 506 193 450 q 292 594 244 561 q 407 626 340 626 m 861 383 q 836 261 861 317 q 763 172 811 206 q 649 139 715 139 l 406 139 l 778 582 q 861 383 861 511 "},"ǿ":{"ha":1054,"x_min":54,"x_max":1000,"o":"m 932 765 l 767 765 l 753 749 q 649 764 703 764 l 407 764 q 222 713 301 764 q 98 575 142 661 q 54 383 54 489 q 89 210 54 290 q 188 76 124 129 l 124 0 l 289 0 l 301 15 q 407 0 354 0 l 649 0 q 833 52 754 0 q 956 191 913 104 q 1000 383 1000 278 q 965 556 1000 476 q 867 688 929 636 l 932 765 m 407 626 l 650 626 l 276 183 q 215 269 236 217 q 193 383 193 321 q 219 506 193 450 q 292 594 244 561 q 407 626 340 626 m 861 383 q 836 261 861 317 q 763 172 811 206 q 649 139 715 139 l 406 139 l 778 582 q 861 383 861 511 m 810 946 l 757 1065 l 522 928 l 556 854 l 810 946 "},"õ":{"ha":1054,"x_min":54,"x_max":1000,"o":"m 1000 383 q 956 575 1000 489 q 833 713 913 661 q 649 764 754 764 l 407 764 q 222 713 301 764 q 98 575 142 661 q 54 383 54 489 q 98 191 54 278 q 222 52 142 104 q 407 0 301 0 l 649 0 q 833 52 754 0 q 956 191 913 104 q 1000 383 1000 278 m 861 383 q 836 261 861 317 q 763 172 811 206 q 649 139 715 139 l 407 139 q 292 172 340 139 q 219 261 244 206 q 193 383 193 317 q 219 506 193 450 q 292 594 244 561 q 407 626 340 626 l 649 626 q 763 594 715 626 q 836 506 811 561 q 861 383 861 450 m 719 1019 l 632 1019 q 629 999 632 1013 q 617 973 626 985 q 589 961 608 961 q 549 976 567 961 q 510 1005 531 990 q 457 1019 489 1019 q 371 978 408 1019 q 333 853 333 936 l 419 853 q 424 874 421 860 q 435 899 426 888 q 464 911 444 911 q 502 897 486 911 q 540 867 518 882 q 596 853 561 853 q 683 890 647 853 q 719 1019 719 926 "},"œ":{"ha":1714,"x_min":54,"x_max":1660,"o":"m 1660 0 l 1660 140 l 1003 140 l 1003 626 l 1660 626 l 1660 767 l 863 767 l 863 690 q 765 744 819 725 q 649 764 711 764 l 407 764 q 222 713 301 764 q 98 575 142 661 q 54 383 54 489 q 98 191 54 278 q 222 52 142 104 q 407 0 301 0 l 649 0 q 863 74 774 0 l 863 0 l 1660 0 m 861 383 q 836 261 861 317 q 763 172 811 206 q 649 139 715 139 l 407 139 q 292 172 340 139 q 219 261 244 206 q 193 383 193 317 q 219 506 193 450 q 292 594 244 561 q 407 626 340 626 l 649 626 q 763 594 715 626 q 836 506 811 561 q 861 383 861 450 m 1571 317 l 1571 457 l 1068 457 l 1068 317 l 1571 317 "},"p":{"ha":1001,"x_min":100,"x_max":974,"o":"m 974 486 q 936 626 974 563 q 835 726 899 689 q 696 764 772 764 l 100 764 l 100 0 l 238 0 l 238 626 l 696 626 q 795 585 754 626 q 836 486 836 544 q 795 387 836 429 q 696 344 754 344 l 310 344 l 310 207 l 696 207 q 835 245 772 207 q 936 347 899 283 q 974 486 974 411 "},"þ":{"ha":1007,"x_min":100,"x_max":974,"o":"m 974 375 q 936 515 974 451 q 835 615 899 578 q 696 653 772 653 l 238 653 l 238 764 l 100 764 l 100 0 l 238 0 l 238 515 l 696 515 q 795 474 754 515 q 836 375 836 433 q 795 276 836 318 q 696 233 754 233 l 310 233 l 310 96 l 696 96 q 835 134 772 96 q 936 236 899 172 q 974 375 974 300 "},"q":{"ha":1054,"x_min":54,"x_max":1000,"o":"m 763 -87 l 951 -87 l 815 42 q 951 181 901 90 q 1000 383 1000 272 q 956 575 1000 489 q 833 713 913 661 q 649 764 754 764 l 407 764 q 222 713 301 764 q 98 575 142 661 q 54 383 54 489 q 98 191 54 278 q 222 52 142 104 q 407 0 301 0 l 669 0 l 763 -87 m 861 383 q 821 233 861 299 q 707 146 781 167 l 619 232 l 425 232 l 524 139 l 407 139 q 292 172 340 139 q 219 261 244 206 q 193 383 193 317 q 219 506 193 450 q 292 594 244 561 q 407 626 340 626 l 649 626 q 763 594 715 626 q 836 506 811 561 q 861 383 861 450 "},"r":{"ha":1039,"x_min":100,"x_max":999,"o":"m 999 0 l 774 218 q 877 274 832 235 q 948 369 922 314 q 974 486 974 424 q 936 626 974 563 q 836 726 899 689 q 696 764 774 764 l 100 764 l 100 0 l 239 0 l 239 626 l 696 626 q 795 585 754 626 q 836 486 836 544 q 795 387 836 429 q 696 344 754 344 l 311 344 l 311 207 l 593 207 l 810 0 l 999 0 "},"ŕ":{"ha":1039,"x_min":100,"x_max":999,"o":"m 999 0 l 774 218 q 877 274 832 235 q 948 369 922 314 q 974 486 974 424 q 936 626 974 563 q 836 726 899 689 q 696 764 774 764 l 100 764 l 100 0 l 239 0 l 239 626 l 696 626 q 795 585 754 626 q 836 486 836 544 q 795 387 836 429 q 696 344 754 344 l 311 344 l 311 207 l 593 207 l 810 0 l 999 0 m 801 918 l 749 1038 l 514 900 l 547 826 l 801 918 "},"ř":{"ha":1039,"x_min":100,"x_max":999,"o":"m 999 0 l 774 218 q 877 274 832 235 q 948 369 922 314 q 974 486 974 424 q 936 626 974 563 q 836 726 899 689 q 696 764 774 764 l 100 764 l 100 0 l 239 0 l 239 626 l 696 626 q 795 585 754 626 q 836 486 836 544 q 795 387 836 429 q 696 344 754 344 l 311 344 l 311 207 l 593 207 l 810 0 l 999 0 m 350 1053 l 304 985 l 519 840 l 735 985 l 689 1053 l 519 965 l 350 1053 "},"ŗ":{"ha":1039,"x_min":100,"x_max":999,"o":"m 999 0 l 774 218 q 877 274 832 235 q 948 369 922 314 q 974 486 974 424 q 936 626 974 563 q 836 726 899 689 q 696 764 774 764 l 100 764 l 100 0 l 239 0 l 239 626 l 696 626 q 795 585 754 626 q 836 486 836 544 q 795 387 836 429 q 696 344 754 344 l 311 344 l 311 207 l 593 207 l 810 0 l 999 0 m 603 -143 q 578 -81 603 -107 q 519 -56 554 -56 q 460 -81 485 -56 q 436 -139 436 -106 q 456 -194 436 -171 q 507 -222 476 -218 q 493 -265 501 -249 q 485 -281 485 -281 l 556 -282 q 567 -262 556 -282 q 590 -211 578 -243 q 603 -143 601 -179 "},"s":{"ha":982,"x_min":64,"x_max":938,"o":"m 938 225 q 908 339 938 288 q 826 421 878 390 q 713 451 775 451 l 288 451 q 227 477 253 451 q 201 539 201 503 q 227 601 201 575 q 288 626 253 626 l 886 626 l 886 764 l 288 764 q 176 733 226 764 q 94 651 125 703 q 64 539 64 600 q 94 425 64 476 q 176 343 125 374 q 288 313 226 313 l 713 313 q 774 287 749 313 q 800 225 800 261 q 774 164 800 189 q 713 139 749 139 l 64 139 l 64 0 l 713 0 q 826 31 775 0 q 908 112 878 61 q 938 225 938 163 "},"ś":{"ha":982,"x_min":64,"x_max":938,"o":"m 938 225 q 908 339 938 288 q 826 421 878 390 q 713 451 775 451 l 288 451 q 227 477 253 451 q 201 539 201 503 q 227 601 201 575 q 288 626 253 626 l 886 626 l 886 764 l 288 764 q 176 733 226 764 q 94 651 125 703 q 64 539 64 600 q 94 425 64 476 q 176 343 125 374 q 288 313 226 313 l 713 313 q 774 287 749 313 q 800 225 800 261 q 774 164 800 189 q 713 139 749 139 l 64 139 l 64 0 l 713 0 q 826 31 775 0 q 908 112 878 61 q 938 225 938 163 m 774 946 l 721 1065 l 486 928 l 519 854 l 774 946 "},"š":{"ha":982,"x_min":64,"x_max":938,"o":"m 938 225 q 908 339 938 288 q 826 421 878 390 q 713 451 775 451 l 288 451 q 227 477 253 451 q 201 539 201 503 q 227 601 201 575 q 288 626 253 626 l 886 626 l 886 764 l 288 764 q 176 733 226 764 q 94 651 125 703 q 64 539 64 600 q 94 425 64 476 q 176 343 125 374 q 288 313 226 313 l 713 313 q 774 287 749 313 q 800 225 800 261 q 774 164 800 189 q 713 139 749 139 l 64 139 l 64 0 l 713 0 q 826 31 775 0 q 908 112 878 61 q 938 225 938 163 m 331 1053 l 285 985 l 500 840 l 715 985 l 669 1053 l 500 965 l 331 1053 "},"ş":{"ha":982,"x_min":64,"x_max":938,"o":"m 938 225 q 908 339 938 288 q 826 421 878 390 q 713 451 775 451 l 288 451 q 227 477 253 451 q 201 539 201 503 q 227 601 201 575 q 288 626 253 626 l 886 626 l 886 764 l 288 764 q 176 733 226 764 q 94 651 125 703 q 64 539 64 600 q 94 425 64 476 q 176 343 125 374 q 288 313 226 313 l 713 313 q 774 287 749 313 q 800 225 800 261 q 774 164 800 189 q 713 139 749 139 l 64 139 l 64 0 l 456 0 l 418 -101 q 441 -97 429 -99 q 464 -96 453 -96 q 500 -101 479 -96 q 521 -121 521 -106 q 503 -140 521 -133 q 457 -146 485 -146 q 404 -140 431 -146 q 358 -124 378 -133 l 358 -210 q 398 -216 378 -211 q 468 -221 418 -221 q 540 -212 504 -221 q 599 -181 575 -203 q 622 -122 622 -160 q 605 -66 622 -85 q 563 -40 588 -47 q 519 -33 539 -33 l 532 0 l 713 0 q 826 31 775 0 q 908 112 878 61 q 938 225 938 163 "},"ŝ":{"ha":982,"x_min":64,"x_max":938,"o":"m 938 225 q 908 339 938 288 q 826 421 878 390 q 713 451 775 451 l 288 451 q 227 477 253 451 q 201 539 201 503 q 227 601 201 575 q 288 626 253 626 l 886 626 l 886 764 l 288 764 q 176 733 226 764 q 94 651 125 703 q 64 539 64 600 q 94 425 64 476 q 176 343 125 374 q 288 313 226 313 l 713 313 q 774 287 749 313 q 800 225 800 261 q 774 164 800 189 q 713 139 749 139 l 64 139 l 64 0 l 713 0 q 826 31 775 0 q 908 112 878 61 q 938 225 938 163 m 653 854 l 713 924 l 483 1067 l 268 924 l 314 854 l 483 943 l 653 854 "},"ș":{"ha":982,"x_min":64,"x_max":938,"o":"m 938 225 q 908 339 938 288 q 826 421 878 390 q 713 451 775 451 l 288 451 q 227 477 253 451 q 201 539 201 503 q 227 601 201 575 q 288 626 253 626 l 886 626 l 886 764 l 288 764 q 176 733 226 764 q 94 651 125 703 q 64 539 64 600 q 94 425 64 476 q 176 343 125 374 q 288 313 226 313 l 713 313 q 774 287 749 313 q 800 225 800 261 q 774 164 800 189 q 713 139 749 139 l 64 139 l 64 0 l 713 0 q 826 31 775 0 q 908 112 878 61 q 938 225 938 163 m 563 -171 q 538 -109 563 -135 q 479 -83 514 -83 q 420 -108 444 -83 q 396 -167 396 -133 q 416 -222 396 -199 q 467 -250 436 -246 q 453 -292 461 -276 q 444 -308 444 -308 l 515 -310 q 526 -290 515 -310 q 549 -239 538 -271 q 563 -171 561 -207 "},"ß":{"ha":1964,"x_min":64,"x_max":1919,"o":"m 938 225 q 908 339 938 288 q 826 421 878 390 q 713 451 775 451 l 288 451 q 227 477 253 451 q 201 539 201 503 q 227 601 201 575 q 288 626 253 626 l 886 626 l 886 764 l 288 764 q 176 733 226 764 q 94 651 125 703 q 64 539 64 600 q 94 425 64 476 q 176 343 125 374 q 288 313 226 313 l 713 313 q 774 287 749 313 q 800 225 800 261 q 774 164 800 189 q 713 139 749 139 l 64 139 l 64 0 l 713 0 q 826 31 775 0 q 908 112 878 61 q 938 225 938 163 m 1919 225 q 1890 339 1919 288 q 1808 421 1860 390 q 1694 451 1757 451 l 1269 451 q 1209 477 1235 451 q 1183 539 1183 503 q 1209 601 1183 575 q 1269 626 1235 626 l 1868 626 l 1868 764 l 1269 764 q 1158 733 1208 764 q 1076 651 1107 703 q 1046 539 1046 600 q 1076 425 1046 476 q 1158 343 1107 374 q 1269 313 1208 313 l 1694 313 q 1756 287 1731 313 q 1782 225 1782 261 q 1756 164 1782 189 q 1694 139 1731 139 l 1046 139 l 1046 0 l 1694 0 q 1808 31 1757 0 q 1890 112 1860 61 q 1919 225 1919 163 "},"t":{"ha":904,"x_min":15,"x_max":889,"o":"m 522 0 l 522 626 l 889 626 l 889 764 l 15 764 l 15 626 l 383 626 l 383 0 l 522 0 "},"ŧ":{"ha":904,"x_min":15,"x_max":889,"o":"m 729 274 l 729 413 l 522 413 l 522 626 l 889 626 l 889 764 l 15 764 l 15 626 l 383 626 l 383 413 l 174 413 l 174 274 l 383 274 l 383 0 l 522 0 l 522 274 l 729 274 "},"ť":{"ha":904,"x_min":15,"x_max":889,"o":"m 522 0 l 522 626 l 889 626 l 889 764 l 15 764 l 15 626 l 383 626 l 383 0 l 522 0 m 282 1053 l 236 985 l 451 840 l 667 985 l 621 1053 l 451 965 l 282 1053 "},"ţ":{"ha":904,"x_min":15,"x_max":889,"o":"m 522 0 l 522 626 l 889 626 l 889 764 l 15 764 l 15 626 l 383 626 l 383 0 l 522 0 m 535 -171 q 510 -109 535 -135 q 451 -83 486 -83 q 392 -108 417 -83 q 368 -167 368 -133 q 388 -222 368 -199 q 439 -250 408 -246 q 425 -292 433 -276 q 417 -308 417 -308 l 488 -310 q 499 -290 488 -310 q 522 -239 510 -271 q 535 -171 533 -207 "},"u":{"ha":1013,"x_min":88,"x_max":925,"o":"m 925 764 l 786 764 l 786 382 q 753 260 786 315 q 667 172 721 204 q 544 139 613 139 l 468 139 q 347 172 401 139 q 259 260 292 204 q 226 382 226 315 l 226 764 l 88 764 l 88 382 q 117 234 88 303 q 199 113 147 165 q 320 30 251 60 q 468 0 389 0 l 544 0 q 692 30 624 0 q 813 112 761 60 q 895 233 865 164 q 925 382 925 303 l 925 764 "},"ú":{"ha":1013,"x_min":88,"x_max":925,"o":"m 925 764 l 786 764 l 786 382 q 753 260 786 315 q 667 172 721 204 q 544 139 613 139 l 468 139 q 347 172 401 139 q 259 260 292 204 q 226 382 226 315 l 226 764 l 88 764 l 88 382 q 117 234 88 303 q 199 113 147 165 q 320 30 251 60 q 468 0 389 0 l 544 0 q 692 30 624 0 q 813 112 761 60 q 895 233 865 164 q 925 382 925 303 l 925 764 m 789 946 l 736 1065 l 501 928 l 535 854 l 789 946 "},"ŭ":{"ha":1013,"x_min":88,"x_max":925,"o":"m 925 764 l 786 764 l 786 382 q 753 260 786 315 q 667 172 721 204 q 544 139 613 139 l 468 139 q 347 172 401 139 q 259 260 292 204 q 226 382 226 315 l 226 764 l 88 764 l 88 382 q 117 234 88 303 q 199 113 147 165 q 320 30 251 60 q 468 0 389 0 l 544 0 q 692 30 624 0 q 813 112 761 60 q 895 233 865 164 q 925 382 925 303 l 925 764 m 704 1044 l 613 1044 q 599 1016 610 1033 q 567 985 589 999 q 506 972 544 972 q 445 985 467 972 q 413 1016 424 999 q 399 1044 403 1033 l 307 1044 q 316 996 308 1026 q 344 933 324 965 q 404 880 365 901 q 506 858 443 858 q 607 880 568 858 q 667 933 646 901 q 695 996 688 965 q 704 1044 703 1026 "},"û":{"ha":1013,"x_min":88,"x_max":925,"o":"m 925 764 l 786 764 l 786 382 q 753 260 786 315 q 667 172 721 204 q 544 139 613 139 l 468 139 q 347 172 401 139 q 259 260 292 204 q 226 382 226 315 l 226 764 l 88 764 l 88 382 q 117 234 88 303 q 199 113 147 165 q 320 30 251 60 q 468 0 389 0 l 544 0 q 692 30 624 0 q 813 112 761 60 q 895 233 865 164 q 925 382 925 303 l 925 764 m 668 854 l 728 924 l 499 1067 l 283 924 l 329 854 l 499 943 l 668 854 "},"ü":{"ha":1013,"x_min":88,"x_max":925,"o":"m 925 764 l 786 764 l 786 382 q 753 260 786 315 q 667 172 721 204 q 544 139 613 139 l 468 139 q 347 172 401 139 q 259 260 292 204 q 226 382 226 315 l 226 764 l 88 764 l 88 382 q 117 234 88 303 q 199 113 147 165 q 320 30 251 60 q 468 0 389 0 l 544 0 q 692 30 624 0 q 813 112 761 60 q 895 233 865 164 q 925 382 925 303 l 925 764 m 456 919 q 437 963 456 944 q 393 982 418 982 q 348 963 367 982 q 329 919 329 944 q 348 875 329 893 q 393 857 367 857 q 437 875 418 857 q 456 919 456 893 m 682 919 q 663 963 682 944 q 618 982 644 982 q 574 963 592 982 q 556 919 556 944 q 574 875 556 893 q 618 857 592 857 q 663 875 644 857 q 682 919 682 893 "},"ù":{"ha":1013,"x_min":88,"x_max":925,"o":"m 925 764 l 786 764 l 786 382 q 753 260 786 315 q 667 172 721 204 q 544 139 613 139 l 468 139 q 347 172 401 139 q 259 260 292 204 q 226 382 226 315 l 226 764 l 88 764 l 88 382 q 117 234 88 303 q 199 113 147 165 q 320 30 251 60 q 468 0 389 0 l 544 0 q 692 30 624 0 q 813 112 761 60 q 895 233 865 164 q 925 382 925 303 l 925 764 m 276 1065 l 224 946 l 478 854 l 511 928 l 276 1065 "},"ű":{"ha":1013,"x_min":88,"x_max":925,"o":"m 925 764 l 786 764 l 786 382 q 753 260 786 315 q 667 172 721 204 q 544 139 613 139 l 468 139 q 347 172 401 139 q 259 260 292 204 q 226 382 226 315 l 226 764 l 88 764 l 88 382 q 117 234 88 303 q 199 113 147 165 q 320 30 251 60 q 468 0 389 0 l 544 0 q 692 30 624 0 q 813 112 761 60 q 895 233 865 164 q 925 382 925 303 l 925 764 m 604 940 l 549 1035 l 392 894 l 419 849 l 604 940 m 814 940 l 758 1035 l 604 894 l 629 849 l 814 940 "},"ū":{"ha":1013,"x_min":88,"x_max":925,"o":"m 925 764 l 786 764 l 786 382 q 753 260 786 315 q 667 172 721 204 q 544 139 613 139 l 468 139 q 347 172 401 139 q 259 260 292 204 q 226 382 226 315 l 226 764 l 88 764 l 88 382 q 117 234 88 303 q 199 113 147 165 q 320 30 251 60 q 468 0 389 0 l 544 0 q 692 30 624 0 q 813 112 761 60 q 895 233 865 164 q 925 382 925 303 l 925 764 m 342 864 l 669 864 l 669 978 l 342 978 l 342 864 "},"ų":{"ha":1013,"x_min":88,"x_max":925,"o":"m 925 764 l 786 764 l 786 382 q 753 260 786 315 q 667 172 721 204 q 544 139 613 139 l 468 139 q 347 172 401 139 q 259 260 292 204 q 226 382 226 315 l 226 764 l 88 764 l 88 382 q 117 235 88 304 q 197 114 146 167 q 317 31 249 61 q 463 0 385 1 q 419 -58 432 -24 q 406 -118 406 -93 q 443 -190 406 -169 q 532 -210 481 -210 q 619 -201 588 -210 q 669 -187 651 -193 l 669 -97 q 619 -113 651 -104 q 563 -122 586 -122 q 510 -89 510 -122 q 523 -44 510 -68 q 560 0 536 -19 q 744 56 661 4 q 876 194 826 108 q 925 382 925 279 l 925 764 "},"ů":{"ha":1013,"x_min":88,"x_max":925,"o":"m 925 764 l 786 764 l 786 382 q 753 260 786 315 q 667 172 721 204 q 544 139 613 139 l 468 139 q 347 172 401 139 q 259 260 292 204 q 226 382 226 315 l 226 764 l 88 764 l 88 382 q 117 234 88 303 q 199 113 147 165 q 320 30 251 60 q 468 0 389 0 l 544 0 q 692 30 624 0 q 813 112 761 60 q 895 233 865 164 q 925 382 925 303 l 925 764 m 363 946 q 401 863 363 899 q 506 828 439 828 q 610 863 571 828 q 649 946 649 899 q 612 1029 649 994 q 506 1064 575 1064 q 403 1029 443 1064 q 363 946 363 994 m 458 946 q 470 979 458 965 q 506 993 482 993 q 541 979 529 993 q 553 946 553 965 q 541 913 553 926 q 506 899 529 899 q 470 913 482 899 q 458 946 458 926 "},"ũ":{"ha":1013,"x_min":88,"x_max":925,"o":"m 925 764 l 786 764 l 786 382 q 753 260 786 315 q 667 172 721 204 q 544 139 613 139 l 468 139 q 347 172 401 139 q 259 260 292 204 q 226 382 226 315 l 226 764 l 88 764 l 88 382 q 117 234 88 303 q 199 113 147 165 q 320 30 251 60 q 468 0 389 0 l 544 0 q 692 30 624 0 q 813 112 761 60 q 895 233 865 164 q 925 382 925 303 l 925 764 m 699 1019 l 611 1019 q 608 999 611 1013 q 597 973 606 985 q 568 961 588 961 q 528 976 546 961 q 489 1005 510 990 q 436 1019 468 1019 q 350 978 388 1019 q 313 853 313 936 l 399 853 q 403 874 400 860 q 415 899 406 888 q 443 911 424 911 q 481 897 465 911 q 519 867 497 882 q 575 853 540 853 q 663 890 626 853 q 699 1019 699 926 "},"v":{"ha":978,"x_min":18,"x_max":960,"o":"m 960 764 l 803 764 l 490 154 l 176 764 l 18 764 l 411 0 l 569 0 l 960 764 "},"w":{"ha":1164,"x_min":92,"x_max":1072,"o":"m 1072 279 l 1072 764 l 933 764 l 933 279 q 892 179 933 219 q 792 139 851 139 q 693 185 733 139 q 653 296 653 231 l 653 764 l 513 764 l 513 279 q 472 179 513 219 q 371 139 431 139 q 272 179 313 139 q 231 279 231 219 l 231 764 l 92 764 l 92 279 q 130 139 92 203 q 231 38 168 75 q 371 0 294 0 q 490 26 435 0 q 585 97 546 53 q 677 26 624 53 q 792 0 731 0 q 933 38 869 0 q 1035 139 997 75 q 1072 279 1072 203 "},"ẃ":{"ha":1164,"x_min":92,"x_max":1072,"o":"m 1072 279 l 1072 764 l 933 764 l 933 279 q 892 179 933 219 q 792 139 851 139 q 693 185 733 139 q 653 296 653 231 l 653 764 l 513 764 l 513 279 q 472 179 513 219 q 371 139 431 139 q 272 179 313 139 q 231 279 231 219 l 231 764 l 92 764 l 92 279 q 130 139 92 203 q 231 38 168 75 q 371 0 294 0 q 490 26 435 0 q 585 97 546 53 q 677 26 624 53 q 792 0 731 0 q 933 38 869 0 q 1035 139 997 75 q 1072 279 1072 203 m 864 946 l 811 1065 l 576 928 l 610 854 l 864 946 "},"ŵ":{"ha":1164,"x_min":92,"x_max":1072,"o":"m 1072 279 l 1072 764 l 933 764 l 933 279 q 892 179 933 219 q 792 139 851 139 q 693 185 733 139 q 653 296 653 231 l 653 764 l 513 764 l 513 279 q 472 179 513 219 q 371 139 431 139 q 272 179 313 139 q 231 279 231 219 l 231 764 l 92 764 l 92 279 q 130 139 92 203 q 231 38 168 75 q 371 0 294 0 q 490 26 435 0 q 585 97 546 53 q 677 26 624 53 q 792 0 731 0 q 933 38 869 0 q 1035 139 997 75 q 1072 279 1072 203 m 744 854 l 804 924 l 575 1067 l 360 924 l 406 854 l 575 943 l 744 854 "},"ẅ":{"ha":1164,"x_min":92,"x_max":1072,"o":"m 1072 279 l 1072 764 l 933 764 l 933 279 q 892 179 933 219 q 792 139 851 139 q 693 185 733 139 q 653 296 653 231 l 653 764 l 513 764 l 513 279 q 472 179 513 219 q 371 139 431 139 q 272 179 313 139 q 231 279 231 219 l 231 764 l 92 764 l 92 279 q 130 139 92 203 q 231 38 168 75 q 371 0 294 0 q 490 26 435 0 q 585 97 546 53 q 677 26 624 53 q 792 0 731 0 q 933 38 869 0 q 1035 139 997 75 q 1072 279 1072 203 m 532 919 q 513 963 532 944 q 469 982 494 982 q 424 963 443 982 q 406 919 406 944 q 424 875 406 893 q 469 857 443 857 q 513 875 494 857 q 532 919 532 893 m 758 919 q 740 963 758 944 q 694 982 721 982 q 650 963 668 982 q 632 919 632 944 q 650 875 632 893 q 694 857 668 857 q 740 875 721 857 q 758 919 758 893 "},"ẁ":{"ha":1164,"x_min":92,"x_max":1072,"o":"m 1072 279 l 1072 764 l 933 764 l 933 279 q 892 179 933 219 q 792 139 851 139 q 693 185 733 139 q 653 296 653 231 l 653 764 l 513 764 l 513 279 q 472 179 513 219 q 371 139 431 139 q 272 179 313 139 q 231 279 231 219 l 231 764 l 92 764 l 92 279 q 130 139 92 203 q 231 38 168 75 q 371 0 294 0 q 490 26 435 0 q 585 97 546 53 q 677 26 624 53 q 792 0 731 0 q 933 38 869 0 q 1035 139 997 75 q 1072 279 1072 203 m 351 1065 l 299 946 l 553 854 l 586 928 l 351 1065 "},"x":{"ha":943,"x_min":11,"x_max":932,"o":"m 932 0 l 194 764 l 11 764 l 381 381 l 11 0 l 194 0 l 472 286 l 750 0 l 932 0 m 932 764 l 750 764 l 513 517 l 603 422 l 932 764 "},"y":{"ha":1040,"x_min":72,"x_max":947,"o":"m 947 225 l 947 764 l 808 764 l 808 399 l 349 399 q 251 439 292 399 q 210 538 210 479 l 210 764 l 72 764 l 72 538 q 110 398 72 461 q 210 297 147 335 q 349 260 272 260 l 808 260 l 808 225 q 767 164 808 189 q 669 139 726 139 l 72 139 l 72 0 l 669 0 q 809 31 746 0 q 910 112 872 61 q 947 225 947 163 "},"ý":{"ha":1040,"x_min":72,"x_max":947,"o":"m 947 225 l 947 764 l 808 764 l 808 399 l 349 399 q 251 439 292 399 q 210 538 210 479 l 210 764 l 72 764 l 72 538 q 110 398 72 461 q 210 297 147 335 q 349 260 272 260 l 808 260 l 808 225 q 767 164 808 189 q 669 139 726 139 l 72 139 l 72 0 l 669 0 q 809 31 746 0 q 910 112 872 61 q 947 225 947 163 m 792 974 l 739 1093 l 504 956 l 538 882 l 792 974 "},"ŷ":{"ha":1040,"x_min":72,"x_max":947,"o":"m 947 225 l 947 764 l 808 764 l 808 399 l 349 399 q 251 439 292 399 q 210 538 210 479 l 210 764 l 72 764 l 72 538 q 110 398 72 461 q 210 297 147 335 q 349 260 272 260 l 808 260 l 808 225 q 767 164 808 189 q 669 139 726 139 l 72 139 l 72 0 l 669 0 q 809 31 746 0 q 910 112 872 61 q 947 225 947 163 m 682 826 l 742 896 l 513 1039 l 297 896 l 343 826 l 513 915 l 682 826 "},"ÿ":{"ha":1040,"x_min":72,"x_max":947,"o":"m 947 225 l 947 764 l 808 764 l 808 399 l 349 399 q 251 439 292 399 q 210 538 210 479 l 210 764 l 72 764 l 72 538 q 110 398 72 461 q 210 297 147 335 q 349 260 272 260 l 808 260 l 808 225 q 767 164 808 189 q 669 139 726 139 l 72 139 l 72 0 l 669 0 q 809 31 746 0 q 910 112 872 61 q 947 225 947 163 m 460 919 q 441 963 460 944 q 397 982 422 982 q 352 963 371 982 q 333 919 333 944 q 352 875 333 893 q 397 857 371 857 q 441 875 422 857 q 460 919 460 893 m 686 919 q 667 963 686 944 q 622 982 649 982 q 578 963 596 982 q 560 919 560 944 q 578 875 560 893 q 622 857 596 857 q 667 875 649 857 q 686 919 686 893 "},"ỳ":{"ha":1040,"x_min":72,"x_max":947,"o":"m 947 225 l 947 764 l 808 764 l 808 399 l 349 399 q 251 439 292 399 q 210 538 210 479 l 210 764 l 72 764 l 72 538 q 110 398 72 461 q 210 297 147 335 q 349 260 272 260 l 808 260 l 808 225 q 767 164 808 189 q 669 139 726 139 l 72 139 l 72 0 l 669 0 q 809 31 746 0 q 910 112 872 61 q 947 225 947 163 m 290 1065 l 238 946 l 492 854 l 525 928 l 290 1065 "},"z":{"ha":992,"x_min":58,"x_max":933,"o":"m 933 626 l 933 764 l 58 764 l 58 626 l 722 626 l 58 139 l 58 0 l 933 0 l 933 139 l 274 139 l 933 626 "},"ź":{"ha":992,"x_min":58,"x_max":933,"o":"m 933 626 l 933 764 l 58 764 l 58 626 l 722 626 l 58 139 l 58 0 l 933 0 l 933 139 l 274 139 l 933 626 m 778 946 l 725 1065 l 490 928 l 524 854 l 778 946 "},"ž":{"ha":992,"x_min":58,"x_max":933,"o":"m 933 626 l 933 764 l 58 764 l 58 626 l 722 626 l 58 139 l 58 0 l 933 0 l 933 139 l 274 139 l 933 626 m 326 1053 l 281 985 l 496 840 l 711 985 l 665 1053 l 496 965 l 326 1053 "},"ż":{"ha":992,"x_min":58,"x_max":933,"o":"m 933 626 l 933 764 l 58 764 l 58 626 l 722 626 l 58 139 l 58 0 l 933 0 l 933 139 l 274 139 l 933 626 m 558 919 q 540 963 558 944 q 496 982 521 982 q 451 963 469 982 q 433 919 433 944 q 451 875 433 893 q 496 857 469 857 q 540 875 521 857 q 558 919 558 893 "},"ﬁ":{"ha":1264,"x_min":100,"x_max":1164,"o":"m 899 626 l 899 767 l 100 767 l 100 0 l 240 0 l 240 626 l 899 626 m 808 317 l 808 457 l 306 457 l 306 317 l 808 317 m 1164 0 l 1164 764 l 1026 764 l 1026 0 l 1164 0 "},"ﬂ":{"ha":1775,"x_min":100,"x_max":1757,"o":"m 899 626 l 899 767 l 100 767 l 100 0 l 240 0 l 240 626 l 899 626 m 808 317 l 808 457 l 306 457 l 306 317 l 808 317 m 1757 0 l 1757 139 l 1165 139 l 1165 764 l 1026 764 l 1026 0 l 1757 0 "},"ª":{"ha":707,"x_min":64,"x_max":631,"o":"m 631 508 l 631 821 q 610 897 631 863 q 556 953 590 932 q 479 974 521 974 l 144 974 l 144 871 l 479 871 q 515 857 500 871 q 529 821 529 843 l 529 610 l 217 610 q 181 624 194 610 q 167 660 167 639 q 181 695 167 681 q 217 710 194 710 l 482 710 l 482 813 l 217 813 q 140 792 175 813 q 85 736 106 771 q 64 660 64 701 q 85 584 64 618 q 140 529 106 550 q 217 508 175 508 l 631 508 m 631 333 l 631 431 l 64 431 l 64 333 l 631 333 "},"º":{"ha":749,"x_min":60,"x_max":689,"o":"m 688 740 q 656 857 688 804 q 572 942 625 910 q 456 974 519 974 l 292 974 q 175 942 228 974 q 91 857 122 910 q 60 740 60 804 q 91 624 60 676 q 175 541 122 572 q 292 508 228 510 l 456 508 q 572 541 519 510 q 656 624 625 572 q 688 740 688 676 m 585 740 q 548 648 585 686 q 456 610 511 610 l 292 610 q 200 648 238 610 q 163 740 163 686 q 200 832 163 794 q 292 871 238 869 l 456 871 q 548 832 511 869 q 585 740 585 794 m 689 333 l 689 431 l 60 431 l 60 333 l 689 333 "},"⁄":{"ha":685,"x_min":8,"x_max":674,"o":"m 674 914 l 540 914 l 8 42 l 142 42 l 674 914 "},"½":{"ha":1022,"x_min":68,"x_max":965,"o":"m 254 460 l 254 928 l 68 928 l 68 811 l 139 811 l 139 460 l 254 460 m 744 914 l 611 914 l 79 42 l 213 42 l 744 914 m 965 26 l 965 143 l 649 143 l 649 189 q 661 203 649 203 l 838 203 q 892 215 863 203 q 944 256 922 228 q 965 331 965 285 l 965 367 q 953 422 965 392 q 913 473 940 451 q 838 494 885 494 l 568 494 l 568 378 l 838 378 q 841 376 838 378 q 850 365 844 375 l 850 331 q 836 318 850 318 l 661 318 q 587 297 615 318 q 546 245 558 275 q 533 190 533 215 l 533 26 l 965 26 "},"¼":{"ha":1058,"x_min":68,"x_max":996,"o":"m 254 460 l 254 928 l 68 928 l 68 811 l 139 811 l 139 460 l 254 460 m 744 914 l 611 914 l 79 42 l 213 42 l 744 914 m 996 26 l 996 494 l 881 494 l 881 318 l 679 318 l 679 494 l 564 494 l 564 261 q 581 220 564 238 q 622 203 599 203 l 881 203 l 881 26 l 996 26 "},"¾":{"ha":1228,"x_min":71,"x_max":1165,"o":"m 468 589 l 468 800 q 456 855 468 825 q 415 906 443 885 q 340 928 388 928 l 71 928 l 71 811 l 340 811 q 353 799 353 811 l 353 751 l 71 751 l 71 636 l 353 636 l 353 589 q 339 576 353 576 l 71 576 l 71 460 l 340 460 q 395 472 365 460 q 447 513 425 485 q 468 589 468 542 m 914 914 l 781 914 l 249 42 l 382 42 l 914 914 m 1165 26 l 1165 494 l 1050 494 l 1050 318 l 849 318 l 849 494 l 733 494 l 733 261 q 751 220 733 238 q 792 203 768 203 l 1050 203 l 1050 26 l 1165 26 "},"¹":{"ha":351,"x_min":67,"x_max":253,"o":"m 253 460 l 253 928 l 67 928 l 67 811 l 138 811 l 138 460 l 253 460 "},"²":{"ha":615,"x_min":89,"x_max":521,"o":"m 521 460 l 521 576 l 204 576 l 204 622 q 217 636 204 636 l 393 636 q 448 649 418 636 q 499 690 478 661 q 521 764 521 718 l 521 800 q 508 855 521 825 q 468 906 496 885 q 393 928 440 928 l 124 928 l 124 811 l 393 811 q 397 810 393 811 q 406 799 400 808 l 406 764 q 392 751 406 751 l 217 751 q 142 730 169 751 q 101 678 114 708 q 89 624 89 649 l 89 460 l 521 460 "},"³":{"ha":579,"x_min":97,"x_max":494,"o":"m 494 589 l 494 800 q 482 855 494 825 q 442 906 469 885 q 367 928 414 928 l 97 928 l 97 811 l 367 811 q 379 799 379 811 l 379 751 l 97 751 l 97 636 l 379 636 l 379 589 q 365 576 379 576 l 97 576 l 97 460 l 367 460 q 422 472 392 460 q 473 513 451 485 q 494 589 494 542 "}," ":{"ha":521,"x_min":0,"x_max":0,"o":""}," ":{"ha":521,"x_min":0,"x_max":0,"o":""},".":{"ha":361,"x_min":76,"x_max":285,"o":"m 285 104 q 254 178 285 147 q 181 208 224 208 q 107 178 138 208 q 76 104 76 147 q 107 31 76 61 q 181 0 138 0 q 254 31 224 0 q 285 104 285 61 "},",":{"ha":365,"x_min":78,"x_max":286,"o":"m 286 100 q 256 177 286 146 q 182 208 225 208 q 108 178 139 208 q 78 104 78 147 q 103 35 78 65 q 167 0 129 6 q 149 -53 158 -33 q 139 -72 139 -72 l 228 -74 q 242 -49 228 -74 q 270 15 256 -25 q 286 100 285 56 "},":":{"ha":386,"x_min":89,"x_max":297,"o":"m 297 661 q 267 735 297 704 q 193 765 236 765 q 119 735 150 765 q 89 661 89 704 q 119 588 89 618 q 193 557 150 557 q 267 588 236 557 q 297 661 297 618 m 297 104 q 267 178 297 147 q 193 208 236 208 q 119 178 150 208 q 89 104 89 147 q 119 31 89 61 q 193 0 150 0 q 267 31 236 0 q 297 104 297 61 "},";":{"ha":388,"x_min":89,"x_max":297,"o":"m 297 661 q 267 735 297 704 q 193 765 236 765 q 119 735 150 765 q 89 661 89 704 q 119 588 89 618 q 193 557 150 557 q 267 588 236 557 q 297 661 297 618 m 297 100 q 267 177 297 146 q 193 208 236 208 q 119 178 150 208 q 89 104 89 147 q 115 35 89 65 q 178 0 140 6 q 160 -53 169 -33 q 150 -72 150 -72 l 239 -74 q 253 -49 239 -74 q 281 15 267 -25 q 297 100 296 56 "},"…":{"ha":1083,"x_min":76,"x_max":1007,"o":"m 285 104 q 254 178 285 147 q 181 208 224 208 q 107 178 138 208 q 76 104 76 147 q 107 31 76 61 q 181 0 138 0 q 254 31 224 0 q 285 104 285 61 m 646 104 q 615 178 646 147 q 542 208 585 208 q 468 178 499 208 q 438 104 438 147 q 468 31 438 61 q 542 0 499 0 q 615 31 585 0 q 646 104 646 61 m 1007 104 q 976 178 1007 147 q 903 208 946 208 q 829 178 860 208 q 799 104 799 147 q 829 31 799 61 q 903 0 860 0 q 976 31 946 0 q 1007 104 1007 61 "},"!":{"ha":364,"x_min":78,"x_max":286,"o":"m 261 972 l 103 972 l 132 261 l 232 261 l 261 972 m 286 104 q 256 178 286 147 q 182 208 225 208 q 108 178 139 208 q 78 104 78 147 q 108 31 78 61 q 182 0 139 0 q 256 31 225 0 q 286 104 286 61 "},"¡":{"ha":364,"x_min":78,"x_max":286,"o":"m 78 868 q 108 794 78 825 q 182 764 139 764 q 256 794 225 764 q 286 868 286 825 q 256 942 286 911 q 182 972 225 972 q 108 942 139 972 q 78 868 78 911 m 103 0 l 261 0 l 232 711 l 132 711 l 103 0 "},"?":{"ha":1108,"x_min":47,"x_max":1054,"o":"m 1054 660 q 1012 817 1054 746 q 899 930 969 888 q 742 972 828 972 l 47 972 l 47 833 l 742 833 q 829 810 790 833 q 892 747 868 786 q 915 660 915 708 q 892 573 915 613 q 829 510 868 533 q 742 486 790 486 l 568 486 q 481 463 521 486 q 418 400 442 439 q 394 313 394 361 l 394 261 l 533 261 l 533 313 q 544 338 533 328 q 568 347 554 347 l 742 347 q 899 390 828 347 q 1012 503 969 432 q 1054 660 1054 574 m 568 104 q 538 178 568 147 q 464 208 507 208 q 390 178 421 208 q 360 104 360 147 q 390 31 360 61 q 464 0 421 0 q 538 31 507 0 q 568 104 568 61 "},"¿":{"ha":1108,"x_min":54,"x_max":1061,"o":"m 540 868 q 571 794 540 825 q 644 764 601 764 q 719 794 689 764 q 749 868 749 825 q 719 942 749 911 q 644 972 689 972 q 571 942 601 972 q 540 868 540 911 m 54 313 q 97 156 54 226 q 210 42 139 85 q 367 0 281 0 l 1061 0 l 1061 139 l 367 139 q 280 163 319 139 q 217 226 240 186 q 193 313 193 265 q 217 400 193 361 q 280 463 240 439 q 367 486 319 486 l 540 486 q 628 510 589 486 q 690 573 667 533 q 714 660 714 613 l 714 711 l 575 711 l 575 660 q 565 635 575 646 q 540 625 556 625 l 367 625 q 210 583 281 625 q 97 469 139 540 q 54 313 54 399 "},"·":{"ha":383,"x_min":88,"x_max":296,"o":"m 296 494 q 265 568 296 538 q 192 599 235 599 q 118 568 149 599 q 88 494 88 538 q 118 421 88 451 q 192 390 149 390 q 265 421 235 390 q 296 494 296 451 "},"•":{"ha":499,"x_min":114,"x_max":386,"o":"m 386 494 q 346 589 386 549 q 250 629 306 629 q 153 589 193 629 q 114 494 114 549 q 153 398 114 438 q 250 358 193 358 q 346 398 306 358 q 386 494 386 438 "},"*":{"ha":758,"x_min":76,"x_max":682,"o":"m 682 825 l 601 938 l 435 801 l 449 1026 l 310 1026 l 322 801 l 157 938 l 76 825 l 283 693 l 76 561 l 157 449 l 322 583 l 310 360 l 449 360 l 435 583 l 601 449 l 682 561 l 474 693 l 682 825 "},"#":{"ha":1000,"x_min":49,"x_max":950,"o":"m 149 681 l 118 550 l 294 550 l 258 385 l 79 385 l 49 254 l 229 254 l 174 0 l 311 0 l 367 254 l 536 254 l 481 0 l 618 0 l 674 254 l 853 254 l 881 385 l 703 385 l 739 550 l 922 550 l 950 681 l 768 681 l 824 932 l 686 932 l 631 681 l 461 681 l 517 932 l 379 932 l 324 681 l 149 681 m 396 385 l 432 550 l 601 550 l 565 385 l 396 385 "},"/":{"ha":744,"x_min":39,"x_max":708,"o":"m 708 972 l 550 972 l 39 0 l 197 0 l 708 972 "},"\\":{"ha":744,"x_min":36,"x_max":706,"o":"m 706 0 l 194 972 l 36 972 l 547 0 l 706 0 "},"-":{"ha":942,"x_min":89,"x_max":853,"o":"m 853 417 l 853 556 l 89 556 l 89 417 l 853 417 "},"–":{"ha":733,"x_min":89,"x_max":644,"o":"m 644 417 l 644 556 l 89 556 l 89 417 l 644 417 "},"—":{"ha":1289,"x_min":89,"x_max":1200,"o":"m 1200 417 l 1200 556 l 89 556 l 89 417 l 1200 417 "},"_":{"ha":931,"x_min":83,"x_max":847,"o":"m 847 -261 l 847 -122 l 83 -122 l 83 -261 l 847 -261 "},"(":{"ha":453,"x_min":53,"x_max":453,"o":"m 453 -174 l 424 -143 q 399 -113 422 -142 q 341 -30 375 -85 q 272 104 307 25 q 215 284 238 183 q 192 504 192 385 q 215 712 192 614 q 273 890 239 810 q 342 1028 307 969 q 401 1119 376 1088 q 426 1153 425 1151 l 449 1181 l 274 1181 q 207 1072 244 1139 q 134 918 169 1006 q 76 726 99 831 q 53 504 53 622 q 75 273 53 379 q 131 81 97 167 q 203 -69 165 -6 q 269 -174 240 -133 l 453 -174 "},")":{"ha":453,"x_min":0,"x_max":400,"o":"m 29 -143 l 0 -174 l 183 -174 q 250 -69 213 -133 q 322 81 288 -6 q 378 273 356 167 q 400 504 400 379 q 377 726 400 622 q 319 918 354 831 q 246 1072 283 1006 q 179 1181 208 1139 l 4 1181 l 26 1153 q 52 1119 28 1151 q 111 1028 76 1088 q 180 890 146 969 q 238 712 214 810 q 261 504 261 614 q 238 284 261 385 q 181 104 215 183 q 112 -30 146 25 q 54 -113 78 -85 q 29 -143 31 -142 "},"{":{"ha":558,"x_min":-1,"x_max":519,"o":"m 519 1039 l 519 1178 l 450 1178 q 319 1150 382 1178 q 215 1069 256 1122 q 175 938 175 1015 q 174 867 175 932 q 174 678 174 801 q 139 596 174 618 q 68 574 104 574 q 19 553 39 574 q -1 504 -1 532 q 19 455 -1 475 q 68 435 39 435 q 143 406 113 435 q 174 329 174 376 l 172 69 q 199 -44 172 3 q 269 -119 226 -90 q 358 -160 311 -147 q 447 -174 406 -174 l 517 -174 l 517 -35 l 447 -35 q 385 -24 417 -35 q 333 10 354 -14 q 311 69 311 33 l 313 331 q 296 418 313 371 q 243 503 279 465 q 294 575 275 532 q 313 678 313 618 q 313 871 313 806 q 314 938 314 936 l 314 939 q 334 997 314 975 q 386 1029 354 1019 q 450 1039 418 1039 l 519 1039 "},"}":{"ha":558,"x_min":39,"x_max":560,"o":"m 39 1178 l 39 1039 l 108 1039 q 173 1029 142 1039 q 224 997 204 1019 q 244 939 244 975 l 244 938 q 245 871 244 936 q 246 678 246 806 q 265 575 246 618 q 315 503 285 532 q 263 418 279 465 q 246 331 246 371 l 247 69 q 226 10 247 33 q 173 -24 204 -14 q 111 -35 142 -35 l 42 -35 l 42 -174 l 111 -174 q 200 -160 153 -174 q 290 -119 247 -147 q 359 -44 332 -90 q 386 69 386 3 l 385 329 q 415 406 385 376 q 490 435 446 435 q 540 455 519 435 q 560 504 560 475 q 540 553 560 532 q 490 574 519 574 q 419 596 454 574 q 385 678 385 618 q 384 867 385 801 q 383 938 383 932 q 343 1069 383 1015 q 240 1150 303 1122 q 108 1178 178 1178 l 39 1178 "},"[":{"ha":493,"x_min":106,"x_max":453,"o":"m 453 1039 l 453 1178 l 175 1178 q 126 1158 146 1178 q 106 1108 106 1138 l 106 -104 q 126 -153 106 -133 q 175 -174 146 -174 l 453 -174 l 453 -35 l 244 -35 l 244 1039 l 453 1039 "},"]":{"ha":493,"x_min":40,"x_max":388,"o":"m 40 1178 l 40 1039 l 249 1039 l 249 -35 l 40 -35 l 40 -174 l 318 -174 q 367 -153 347 -174 q 388 -104 388 -133 l 388 1108 q 367 1158 388 1138 q 318 1178 347 1178 l 40 1178 "},"‚":{"ha":365,"x_min":78,"x_max":286,"o":"m 286 100 q 256 177 286 146 q 182 208 225 208 q 108 178 139 208 q 78 104 78 147 q 103 35 78 65 q 167 0 129 6 q 149 -53 158 -33 q 139 -72 139 -72 l 228 -74 q 242 -49 228 -74 q 270 15 256 -25 q 286 100 285 56 "},"„":{"ha":629,"x_min":78,"x_max":550,"o":"m 286 100 q 256 177 286 146 q 182 208 225 208 q 108 178 139 208 q 78 104 78 147 q 103 35 78 65 q 167 0 129 6 q 149 -53 158 -33 q 139 -72 139 -72 l 228 -74 q 242 -49 228 -74 q 270 15 256 -25 q 286 100 285 56 m 550 100 q 519 177 550 146 q 446 208 489 208 q 372 178 403 208 q 342 104 342 147 q 367 35 342 65 q 431 0 393 6 q 413 -53 422 -33 q 403 -72 403 -72 l 492 -74 q 506 -49 492 -74 q 534 15 519 -25 q 550 100 549 56 "},"“":{"ha":615,"x_min":74,"x_max":546,"o":"m 338 800 q 368 723 338 754 q 442 692 399 692 q 515 722 485 692 q 546 796 546 753 q 519 864 546 835 q 456 899 493 893 q 475 953 465 933 q 485 972 485 972 l 396 974 q 381 949 396 974 q 353 885 367 925 q 338 800 339 846 m 74 800 q 104 723 74 754 q 178 692 135 692 q 251 722 221 692 q 282 796 282 753 q 256 864 282 835 q 192 899 229 893 q 211 953 201 933 q 221 972 221 972 l 132 974 q 117 949 132 974 q 89 885 103 925 q 74 800 75 846 "},"”":{"ha":613,"x_min":68,"x_max":540,"o":"m 276 865 q 246 942 276 911 q 172 974 215 974 q 99 943 129 974 q 68 869 68 913 q 94 801 68 831 q 157 765 119 771 q 139 713 149 732 q 129 693 129 693 l 218 692 q 232 716 218 692 q 260 781 246 740 q 276 865 275 821 m 540 865 q 510 942 540 911 q 436 974 479 974 q 363 943 393 974 q 332 869 332 913 q 358 801 332 831 q 421 765 383 771 q 403 713 413 732 q 393 693 393 693 l 482 692 q 496 716 482 692 q 524 781 510 740 q 540 865 539 821 "},"‘":{"ha":351,"x_min":74,"x_max":282,"o":"m 74 800 q 104 723 74 754 q 178 692 135 692 q 251 722 221 692 q 282 796 282 753 q 256 864 282 835 q 192 899 229 893 q 211 953 201 933 q 221 972 221 972 l 132 974 q 117 949 132 974 q 89 885 103 925 q 74 800 75 846 "},"’":{"ha":349,"x_min":68,"x_max":276,"o":"m 276 865 q 246 942 276 911 q 172 974 215 974 q 99 943 129 974 q 68 869 68 913 q 94 801 68 831 q 157 765 119 771 q 139 713 149 732 q 129 693 129 693 l 218 692 q 232 716 218 692 q 260 781 246 740 q 276 865 275 821 "},"«":{"ha":926,"x_min":56,"x_max":867,"o":"m 547 678 l 367 678 l 79 421 q 56 368 56 400 q 79 317 56 336 l 361 69 l 544 69 l 203 369 l 547 678 m 867 678 l 686 678 l 399 421 q 375 368 375 400 q 399 317 375 336 l 681 69 l 864 69 l 522 369 l 867 678 "},"»":{"ha":926,"x_min":60,"x_max":871,"o":"m 560 678 l 379 678 l 724 369 l 382 69 l 565 69 l 847 317 q 871 368 871 336 q 847 421 871 400 l 560 678 m 240 678 l 60 678 l 404 369 l 63 69 l 246 69 l 528 317 q 551 368 551 336 q 528 421 551 400 l 240 678 "},"‹":{"ha":607,"x_min":56,"x_max":547,"o":"m 547 678 l 367 678 l 79 421 q 56 368 56 400 q 79 317 56 336 l 361 69 l 544 69 l 203 369 l 547 678 "},"›":{"ha":607,"x_min":60,"x_max":551,"o":"m 240 678 l 60 678 l 404 369 l 63 69 l 246 69 l 528 317 q 551 368 551 336 q 528 421 551 400 l 240 678 "},"\"":{"ha":496,"x_min":82,"x_max":415,"o":"m 193 632 l 221 974 l 82 974 l 108 632 l 193 632 m 388 632 l 415 974 l 276 974 l 303 632 l 388 632 "},"'":{"ha":301,"x_min":82,"x_max":221,"o":"m 193 632 l 221 974 l 82 974 l 108 632 l 193 632 "},"ƒ":{"ha":751,"x_min":-247,"x_max":864,"o":"m 864 903 l 864 1042 l 479 1042 q 337 1015 404 1042 q 216 940 269 988 q 132 830 163 893 q 101 694 101 767 l 100 694 l 100 104 q 68 -17 100 38 q -19 -105 36 -72 q -140 -139 -74 -137 l -247 -139 l -247 -278 l -140 -278 q 2 -251 -65 -278 q 123 -177 69 -224 q 207 -67 176 -131 q 238 69 238 -4 l 239 69 l 239 660 q 272 781 239 726 q 358 869 304 836 q 479 903 413 903 l 864 903 m 725 556 l 725 694 l 308 694 l 308 556 l 725 556 "},"@":{"ha":968,"x_min":92,"x_max":901,"o":"m 578 286 l 578 401 l 410 401 q 325 378 357 401 q 279 320 293 354 q 265 257 265 286 q 289 172 265 204 q 347 126 313 140 q 410 113 381 113 l 757 113 q 842 136 811 113 q 888 194 874 160 q 901 257 901 228 l 901 517 q 879 625 901 581 q 822 697 857 669 q 746 736 786 724 q 671 749 706 749 l 324 749 q 215 726 260 749 q 144 667 171 703 q 104 592 117 632 q 92 517 92 551 l 92 169 q 115 62 92 106 q 173 -9 138 18 q 249 -49 208 -36 q 324 -61 289 -61 l 410 -61 l 410 54 l 324 54 q 282 61 310 54 q 231 92 254 68 q 207 169 207 117 l 207 517 q 214 558 207 531 q 246 610 221 586 q 324 633 271 633 l 669 633 q 711 626 683 633 q 763 594 739 619 q 786 517 786 569 l 786 257 q 775 231 786 235 q 757 228 764 228 l 728 228 l 728 431 q 703 515 728 483 q 646 561 679 547 q 583 575 613 575 l 342 575 l 342 460 l 583 460 q 609 448 606 460 q 613 431 613 436 l 613 228 l 410 228 q 384 240 388 228 q 381 257 381 251 q 392 283 381 279 q 410 286 404 286 l 578 286 "},"&":{"ha":1164,"x_min":79,"x_max":1121,"o":"m 982 0 l 982 417 l 1121 417 l 1121 556 l 704 556 l 704 417 l 843 417 l 843 139 l 357 139 q 259 180 300 139 q 218 278 218 221 q 259 376 218 335 q 357 417 300 417 l 565 417 l 565 556 l 351 556 q 257 599 296 558 q 218 694 218 639 q 259 792 218 751 q 357 833 300 833 l 982 833 l 982 972 l 357 972 q 217 935 281 972 q 117 834 154 897 q 79 694 79 771 q 105 578 79 632 q 174 486 131 524 q 105 393 131 447 q 79 278 79 339 q 117 138 79 201 q 217 38 154 75 q 357 0 281 0 l 982 0 "},"¶":{"ha":1293,"x_min":50,"x_max":1172,"o":"m 50 625 q 97 451 50 529 q 223 325 144 372 q 397 278 301 278 l 594 278 l 594 415 l 397 415 q 292 444 339 415 q 217 520 244 472 q 189 625 189 568 q 217 731 189 683 q 292 806 244 778 q 397 833 339 833 l 685 833 l 685 0 l 824 0 l 824 833 l 1033 833 l 1033 0 l 1172 0 l 1172 972 l 397 972 q 223 926 301 972 q 97 800 144 879 q 50 625 50 721 "},"§":{"ha":1260,"x_min":76,"x_max":1200,"o":"m 1200 139 q 1163 278 1200 214 q 1190 344 1181 310 q 1200 417 1200 379 q 1163 556 1200 493 q 1062 657 1125 619 q 922 694 999 694 l 354 694 q 256 735 297 694 q 215 833 215 776 q 256 931 215 890 q 354 972 297 972 l 1131 972 l 1131 1111 l 354 1111 q 215 1074 278 1111 q 114 973 151 1036 q 76 833 76 910 q 86 760 76 794 q 114 694 96 725 q 86 628 96 664 q 76 556 76 593 q 114 416 76 479 q 215 315 151 353 q 354 278 278 278 l 922 278 q 1020 237 979 278 q 1061 139 1061 196 q 1020 41 1061 82 q 922 0 979 0 l 76 0 l 76 -139 l 922 -139 q 1062 -101 999 -139 q 1163 -1 1125 -64 q 1200 139 1200 63 m 1061 417 q 1060 399 1061 407 q 1056 382 1058 390 q 922 417 994 417 l 354 417 q 256 458 297 417 q 215 556 215 499 q 219 590 215 574 q 354 556 282 556 l 922 556 q 1020 515 979 556 q 1061 417 1061 474 "},"©":{"ha":754,"x_min":96,"x_max":658,"o":"m 658 460 l 658 549 q 638 654 658 613 q 585 720 617 696 q 521 754 554 744 q 463 764 488 764 l 292 764 q 233 754 267 764 q 169 720 200 744 q 117 654 138 696 q 96 549 96 613 l 96 460 q 117 354 96 396 q 169 289 138 313 q 233 256 200 265 q 292 246 267 246 l 463 246 q 521 256 488 246 q 585 289 554 265 q 638 354 617 313 q 658 460 658 396 m 585 549 l 585 460 q 568 380 585 408 q 528 338 551 351 q 486 322 506 325 q 463 319 467 319 l 292 319 q 268 322 288 319 q 226 338 249 325 q 186 380 203 351 q 169 460 169 408 l 169 549 q 186 628 169 600 q 226 670 203 657 q 268 687 249 683 q 292 690 288 690 l 463 690 q 485 687 467 690 q 528 670 504 683 q 568 628 551 657 q 585 549 585 600 m 493 358 l 493 433 l 367 433 q 348 436 363 433 q 320 449 333 439 q 307 485 307 460 l 307 529 q 317 563 307 544 q 365 581 328 581 l 493 581 l 493 656 l 365 656 q 266 615 297 656 q 235 529 235 575 l 235 485 q 256 411 235 439 q 309 371 278 383 q 367 358 340 358 l 493 358 "},"®":{"ha":718,"x_min":78,"x_max":640,"o":"m 640 671 l 640 760 q 619 865 640 824 q 567 931 599 907 q 503 965 536 956 q 444 975 469 975 l 274 975 q 215 965 249 975 q 151 931 182 956 q 99 865 119 907 q 78 760 78 824 l 78 671 q 99 565 78 607 q 151 500 119 524 q 215 467 182 476 q 274 457 249 457 l 444 457 q 503 467 469 457 q 567 500 536 476 q 619 565 599 524 q 640 671 640 607 m 510 763 l 510 794 q 492 844 510 821 q 438 867 474 867 l 214 867 l 214 585 l 288 585 l 288 792 l 436 792 l 436 763 q 406 733 436 733 l 313 733 l 313 658 l 468 533 q 453 531 460 532 q 444 531 447 531 l 274 531 q 185 573 218 531 q 151 671 151 615 l 151 760 q 168 840 151 811 q 208 881 185 868 q 250 898 231 894 q 274 901 269 901 l 444 901 q 534 859 501 901 q 567 760 567 817 l 567 671 q 558 613 567 636 q 538 574 550 589 l 426 660 q 483 690 456 667 q 510 763 510 714 "},"™":{"ha":1178,"x_min":81,"x_max":1075,"o":"m 857 574 l 857 768 q 895 859 860 821 q 981 897 931 897 l 1000 897 l 1000 574 l 1075 574 l 1075 972 l 981 972 q 890 949 932 972 q 821 886 849 925 q 751 949 794 925 q 658 972 708 972 l 565 972 l 565 574 l 640 574 l 640 897 l 658 897 q 746 861 710 897 q 782 774 782 825 l 782 574 l 857 574 m 347 574 l 347 897 l 536 897 l 536 972 l 81 972 l 81 897 l 271 897 l 271 574 l 347 574 "},"°":{"ha":417,"x_min":71,"x_max":346,"o":"m 71 842 q 103 751 71 790 q 208 713 136 713 q 313 751 281 713 q 346 842 346 790 q 316 933 346 894 q 208 972 286 972 q 106 933 140 972 q 71 842 71 894 m 164 842 q 176 875 164 861 q 211 889 188 889 q 247 875 235 889 q 258 842 258 861 q 247 808 258 822 q 211 794 235 794 q 176 808 188 794 q 164 842 164 822 "},"|":{"ha":350,"x_min":106,"x_max":244,"o":"m 244 -174 l 244 1181 l 106 1181 l 106 -174 l 244 -174 "},"¦":{"ha":356,"x_min":108,"x_max":247,"o":"m 247 608 l 247 1181 l 108 1181 l 108 608 l 247 608 m 247 -174 l 247 400 l 108 400 l 108 -174 l 247 -174 "},"†":{"ha":589,"x_min":51,"x_max":538,"o":"m 364 -174 l 364 782 l 538 782 l 538 921 l 364 921 l 364 1181 l 225 1181 l 225 921 l 51 921 l 51 782 l 225 782 l 225 -174 l 364 -174 "},"‡":{"ha":608,"x_min":61,"x_max":547,"o":"m 547 88 l 547 226 l 374 226 l 374 782 l 547 782 l 547 921 l 374 921 l 374 1181 l 235 1181 l 235 921 l 61 921 l 61 782 l 235 782 l 235 226 l 61 226 l 61 88 l 235 88 l 235 -174 l 374 -174 l 374 88 l 547 88 "},"€":{"ha":1451,"x_min":46,"x_max":1374,"o":"m 906 556 l 954 694 l 494 694 q 598 795 533 757 q 747 833 663 833 l 1374 833 l 1374 972 l 747 972 q 495 895 601 972 q 339 694 389 818 l 192 694 l 143 556 l 304 556 q 300 486 300 521 q 304 417 300 450 l 94 417 l 46 278 l 339 278 q 495 77 389 154 q 747 0 601 0 l 1374 0 l 1374 139 l 747 139 q 598 176 663 139 q 494 278 533 214 l 808 278 l 857 417 l 444 417 q 440 451 442 433 q 439 486 439 468 q 440 522 439 504 q 444 556 442 539 l 906 556 "},"¢":{"ha":753,"x_min":50,"x_max":672,"o":"m 672 210 l 672 346 l 335 346 q 230 390 274 346 q 186 496 186 435 q 230 603 186 558 q 335 647 274 647 l 672 647 l 672 783 l 476 783 l 476 972 l 347 972 l 347 783 l 335 783 q 192 744 257 783 q 88 640 126 706 q 50 497 50 575 q 85 356 50 422 q 179 250 119 290 q 315 210 239 210 l 347 210 l 347 0 l 476 0 l 476 210 l 672 210 "},"¤":{"ha":743,"x_min":72,"x_max":671,"o":"m 671 321 l 581 401 q 603 500 603 449 q 579 600 603 553 l 671 682 l 578 779 l 489 699 q 433 723 463 714 q 372 732 404 732 q 309 723 339 732 q 253 699 279 714 l 164 779 l 72 682 l 163 599 q 146 551 151 576 q 140 500 140 526 q 161 401 140 447 l 72 321 l 164 224 l 250 301 q 308 277 278 286 q 372 268 339 268 q 492 301 440 268 l 578 224 l 671 321 m 488 500 q 454 419 488 453 q 372 385 421 385 q 290 419 325 385 q 256 500 256 453 q 290 582 256 549 q 372 615 325 615 q 454 582 421 615 q 488 500 488 549 "},"$":{"ha":743,"x_min":69,"x_max":692,"o":"m 692 399 q 666 494 692 451 q 597 563 640 538 q 501 589 554 589 l 235 589 q 214 597 222 589 q 206 618 206 606 q 213 638 206 629 q 235 647 221 647 l 643 647 l 643 783 l 444 783 l 444 972 l 315 972 l 315 783 l 235 783 q 151 761 189 783 q 92 701 114 739 q 69 618 69 664 q 92 535 69 572 q 151 475 114 497 q 235 453 189 453 l 501 453 q 540 438 525 453 q 556 399 556 422 q 540 361 556 376 q 501 346 525 346 l 69 346 l 69 210 l 315 210 l 315 0 l 444 0 l 444 210 l 501 210 q 597 235 554 210 q 666 304 640 261 q 692 399 692 347 "},"£":{"ha":1168,"x_min":54,"x_max":1122,"o":"m 1122 0 l 1122 139 l 332 139 l 332 417 l 749 417 l 749 556 l 332 556 l 332 590 q 365 712 332 657 q 451 800 397 767 q 572 833 506 833 l 888 833 l 888 972 l 572 972 q 429 945 497 972 q 308 872 361 918 q 224 762 254 825 q 193 625 193 699 l 193 556 l 54 556 l 54 417 l 193 417 l 193 0 l 1122 0 "},"¥":{"ha":1215,"x_min":46,"x_max":1169,"o":"m 1169 694 l 1169 972 l 1031 972 l 1031 694 q 1002 590 1031 638 q 926 514 974 542 q 822 486 879 486 l 393 486 q 288 514 336 486 q 213 590 240 542 q 185 694 185 638 l 185 972 l 46 972 l 46 694 q 93 520 46 599 q 219 394 140 442 q 393 347 297 347 l 538 347 l 538 278 l 326 278 l 326 139 l 538 139 l 538 0 l 676 0 l 676 139 l 882 139 l 882 278 l 676 278 l 676 347 l 822 347 q 997 394 918 347 q 1123 520 1076 442 q 1169 694 1169 599 "},"+":{"ha":867,"x_min":51,"x_max":815,"o":"m 815 417 l 815 556 l 503 556 l 503 833 l 364 833 l 364 556 l 51 556 l 51 417 l 364 417 l 364 139 l 503 139 l 503 417 l 815 417 "},"−":{"ha":947,"x_min":92,"x_max":856,"o":"m 856 417 l 856 556 l 92 556 l 92 417 l 856 417 "},"×":{"ha":961,"x_min":75,"x_max":886,"o":"m 886 208 l 579 486 l 886 764 l 688 764 l 481 576 l 274 764 l 75 764 l 381 486 l 75 208 l 274 208 l 481 396 l 688 208 l 886 208 "},"÷":{"ha":892,"x_min":64,"x_max":828,"o":"m 550 729 q 519 803 550 772 q 446 833 489 833 q 372 803 403 833 q 342 729 342 772 q 372 656 342 686 q 446 625 403 625 q 519 656 489 625 q 550 729 550 686 m 828 417 l 828 556 l 64 556 l 64 417 l 828 417 m 550 243 q 519 317 550 286 q 446 347 489 347 q 372 317 403 347 q 342 243 342 286 q 372 169 342 200 q 446 139 403 139 q 519 169 489 139 q 550 243 550 200 "},"=":{"ha":947,"x_min":92,"x_max":856,"o":"m 856 625 l 856 764 l 92 764 l 92 625 l 856 625 m 856 208 l 856 347 l 92 347 l 92 208 l 856 208 "},"≠":{"ha":983,"x_min":110,"x_max":874,"o":"m 874 208 l 874 347 l 494 347 l 640 625 l 874 625 l 874 764 l 714 764 l 796 918 l 638 918 l 556 764 l 110 764 l 110 625 l 482 625 l 336 347 l 110 347 l 110 208 l 263 208 l 183 57 l 342 57 l 421 208 l 874 208 "},">":{"ha":713,"x_min":74,"x_max":663,"o":"m 254 861 l 74 861 l 515 467 l 75 81 l 257 81 l 639 414 q 663 465 663 433 q 639 518 663 497 l 254 861 "},"<":{"ha":713,"x_min":50,"x_max":639,"o":"m 639 861 l 458 861 l 74 518 q 50 465 50 497 q 74 414 50 433 l 456 81 l 638 81 l 197 467 l 639 861 "},"±":{"ha":917,"x_min":76,"x_max":840,"o":"m 840 417 l 840 556 l 528 556 l 528 833 l 389 833 l 389 556 l 76 556 l 76 417 l 389 417 l 389 139 l 528 139 l 528 417 l 840 417 m 840 -139 l 840 0 l 76 0 l 76 -139 l 840 -139 "},"≈":{"ha":918,"x_min":94,"x_max":826,"o":"m 826 585 l 826 729 q 750 676 800 701 q 653 651 700 651 q 528 670 596 651 q 395 708 461 689 q 274 726 329 726 q 175 706 228 726 q 94 657 122 686 l 94 514 q 171 566 121 542 q 268 590 221 590 q 392 572 326 590 q 524 535 458 554 q 646 517 590 517 q 749 537 700 517 q 826 585 799 557 m 826 307 l 826 451 q 750 399 800 424 q 653 374 700 374 q 528 392 596 374 q 395 430 461 411 q 274 449 329 449 q 175 428 228 449 q 94 379 122 408 l 94 236 q 171 288 121 264 q 268 313 221 313 q 392 294 326 313 q 524 258 458 276 q 646 239 590 239 q 749 259 700 239 q 826 307 799 279 "},"~":{"ha":918,"x_min":94,"x_max":826,"o":"m 826 446 l 826 590 q 750 538 800 563 q 653 513 700 513 q 528 531 596 513 q 395 569 461 550 q 274 588 329 588 q 175 567 228 588 q 94 518 122 547 l 94 375 q 171 427 121 403 q 268 451 221 451 q 392 433 326 451 q 524 397 458 415 q 646 378 590 378 q 749 398 700 378 q 826 446 799 418 "},"¬":{"ha":815,"x_min":79,"x_max":715,"o":"m 715 158 l 715 556 l 79 556 l 79 418 l 578 418 l 578 158 l 715 158 "},"^":{"ha":717,"x_min":56,"x_max":664,"o":"m 576 517 l 664 600 l 407 888 q 354 911 386 911 q 303 888 322 911 l 56 606 l 139 518 l 356 764 l 576 517 "},"∫":{"ha":840,"x_min":11,"x_max":832,"o":"m 832 903 l 832 1042 l 738 1042 q 594 1015 663 1042 q 473 941 526 988 q 389 831 419 894 q 358 694 358 768 l 358 104 q 326 -17 358 38 q 239 -105 293 -72 q 118 -139 185 -137 l 11 -139 l 11 -278 l 118 -278 q 300 -231 218 -276 q 435 -106 382 -185 q 496 69 488 -28 l 497 69 l 497 660 q 530 781 497 726 q 617 869 563 836 q 738 903 671 903 l 832 903 "},"∂":{"ha":1118,"x_min":28,"x_max":1069,"o":"m 1069 382 q 1053 492 1069 439 q 1008 589 1038 544 l 742 1111 l 583 1111 l 769 756 q 690 764 731 764 l 407 764 q 259 734 328 764 q 138 651 190 704 q 57 530 86 599 q 28 382 28 461 q 57 234 28 303 q 138 113 86 165 q 259 30 190 60 q 407 0 328 0 l 690 0 q 838 30 769 0 q 959 113 907 60 q 1040 234 1011 165 q 1069 382 1069 303 m 931 382 q 899 260 931 315 q 812 172 867 206 q 690 139 757 139 l 407 139 q 286 172 340 139 q 199 260 232 206 q 167 382 167 315 q 199 503 167 449 q 286 592 232 558 q 407 625 340 625 l 690 625 q 812 592 757 625 q 899 503 867 558 q 931 382 931 449 "},"µ":{"ha":992,"x_min":103,"x_max":940,"o":"m 242 -243 l 242 88 q 353 23 290 46 q 483 0 415 0 l 560 0 q 708 30 639 0 q 828 112 776 60 q 910 233 881 164 q 940 382 940 303 l 940 764 l 801 764 l 801 382 q 769 260 801 315 q 682 172 736 204 q 560 139 628 139 l 483 139 q 362 172 417 139 q 274 260 307 204 q 242 382 242 315 l 242 764 l 103 764 l 103 382 q 103 366 103 376 q 103 324 103 356 q 103 227 103 293 q 103 47 103 161 q 103 -243 103 -67 l 242 -243 "},"%":{"ha":1143,"x_min":49,"x_max":1094,"o":"m 511 694 q 480 811 511 758 q 397 895 449 864 q 281 926 344 926 q 164 895 217 926 q 80 811 111 864 q 49 694 49 758 q 80 578 49 631 q 164 494 111 525 q 281 463 217 463 q 397 494 344 463 q 480 578 449 525 q 511 694 511 631 m 906 914 l 772 914 l 240 42 l 374 42 l 906 914 m 396 694 q 363 613 396 647 q 281 579 329 579 q 199 613 233 579 q 164 694 164 647 q 199 776 164 743 q 281 810 233 810 q 363 776 329 810 q 396 694 396 743 m 1094 261 q 1063 377 1094 325 q 980 460 1032 429 q 864 492 928 492 q 747 460 800 492 q 663 377 694 429 q 632 261 632 325 q 663 144 632 197 q 747 60 694 92 q 864 29 800 29 q 980 60 928 29 q 1063 144 1032 92 q 1094 261 1094 197 m 979 261 q 946 179 979 214 q 864 144 913 144 q 782 179 817 144 q 747 261 747 214 q 782 342 747 308 q 864 376 817 376 q 946 342 913 376 q 979 261 979 308 "},"‰":{"ha":1656,"x_min":49,"x_max":1607,"o":"m 511 694 q 480 811 511 758 q 397 895 449 864 q 281 926 344 926 q 164 895 217 926 q 80 811 111 864 q 49 694 49 758 q 80 578 49 631 q 164 494 111 525 q 281 463 217 463 q 397 494 344 463 q 480 578 449 525 q 511 694 511 631 m 906 914 l 772 914 l 240 42 l 374 42 l 906 914 m 396 694 q 363 613 396 647 q 281 579 329 579 q 199 613 233 579 q 164 694 164 647 q 199 776 164 743 q 281 810 233 810 q 363 776 329 810 q 396 694 396 743 m 1094 261 q 1063 377 1094 325 q 980 460 1032 429 q 864 492 928 492 q 747 460 800 492 q 663 377 694 429 q 632 261 632 325 q 663 144 632 197 q 747 60 694 92 q 864 29 800 29 q 980 60 928 29 q 1063 144 1032 92 q 1094 261 1094 197 m 1607 261 q 1576 377 1607 325 q 1492 460 1544 429 q 1376 492 1440 492 q 1260 460 1313 492 q 1176 377 1207 429 q 1144 261 1144 325 q 1176 144 1144 197 q 1260 60 1207 92 q 1376 29 1313 29 q 1492 60 1440 29 q 1576 144 1544 92 q 1607 261 1607 197 m 979 261 q 946 179 979 214 q 864 144 913 144 q 782 179 817 144 q 747 261 747 214 q 782 342 747 308 q 864 376 817 376 q 946 342 913 376 q 979 261 979 308 m 1492 261 q 1458 179 1492 214 q 1376 144 1425 144 q 1294 179 1329 144 q 1260 261 1260 214 q 1294 342 1260 308 q 1376 376 1329 376 q 1458 342 1425 376 q 1492 261 1492 308 "},"̈":{"ha":0,"x_min":0,"x_max":353,"o":"m 126 892 q 108 935 126 917 q 64 954 89 954 q 19 935 38 954 q 0 892 0 917 q 19 847 0 865 q 64 829 38 829 q 108 847 89 829 q 126 892 126 865 m 353 892 q 334 935 353 917 q 289 954 315 954 q 244 935 263 954 q 226 892 226 917 q 244 847 226 865 q 289 829 263 829 q 334 847 315 829 q 353 892 353 865 "},"̇":{"ha":0,"x_min":0,"x_max":125,"o":"m 125 892 q 106 935 125 917 q 63 954 88 954 q 18 935 36 954 q 0 892 0 917 q 18 847 0 865 q 63 829 36 829 q 106 847 88 829 q 125 892 125 865 "},"̀":{"ha":0,"x_min":0,"x_max":288,"o":"m 53 1038 l 0 918 l 254 826 l 288 900 l 53 1038 "},"́":{"ha":0,"x_min":0,"x_max":288,"o":"m 288 918 l 235 1038 l 0 900 l 33 826 l 288 918 "},"̋":{"ha":0,"x_min":0,"x_max":422,"o":"m 213 913 l 157 1007 l 0 867 l 28 821 l 213 913 m 422 913 l 367 1007 l 213 867 l 238 821 l 422 913 "},"̂":{"ha":0,"x_min":0,"x_max":444,"o":"m 385 826 l 444 896 l 215 1039 l 0 896 l 46 826 l 215 915 l 385 826 "},"̌":{"ha":0,"x_min":0,"x_max":431,"o":"m 46 1025 l 0 957 l 215 813 l 431 957 l 385 1025 l 215 938 l 46 1025 "},"̆":{"ha":0,"x_min":0,"x_max":397,"o":"m 397 1017 l 306 1017 q 292 988 303 1006 q 260 958 282 971 q 199 944 238 944 q 138 958 160 944 q 106 988 117 971 q 92 1017 96 1006 l 0 1017 q 9 968 1 999 q 38 906 17 938 q 97 852 58 874 q 199 831 136 831 q 300 852 261 831 q 360 906 339 874 q 388 968 381 938 q 397 1017 396 999 "},"̊":{"ha":0,"x_min":0,"x_max":286,"o":"m 0 918 q 38 835 0 871 q 143 800 76 800 q 247 835 208 800 q 286 918 286 871 q 249 1001 286 967 q 143 1036 213 1036 q 40 1001 81 1036 q 0 918 0 967 m 96 918 q 108 951 96 938 q 143 965 119 965 q 178 951 167 965 q 190 918 190 938 q 178 885 190 899 q 143 871 167 871 q 108 885 119 871 q 96 918 96 899 "},"̃":{"ha":0,"x_min":0,"x_max":386,"o":"m 386 992 l 299 992 q 296 971 299 985 q 284 945 293 957 q 256 933 275 933 q 215 948 233 933 q 176 977 197 963 q 124 992 156 992 q 38 950 75 992 q 0 825 0 908 l 86 825 q 90 846 88 832 q 102 872 93 860 q 131 883 111 883 q 169 869 153 883 q 206 840 185 854 q 263 825 228 825 q 350 862 314 825 q 386 992 386 899 "},"̄":{"ha":0,"x_min":0,"x_max":328,"o":"m 0 836 l 328 836 l 328 950 l 0 950 l 0 836 "},"̒":{"ha":0,"x_min":94,"x_max":261,"o":"m 94 988 q 119 925 94 950 q 178 900 143 900 q 237 924 213 900 q 261 983 261 949 q 240 1038 261 1015 q 189 1065 219 1061 q 204 1109 196 1093 q 213 1125 213 1125 l 142 1126 q 130 1107 142 1126 q 107 1056 118 1088 q 94 988 96 1024 "},"̕":{"ha":0,"x_min":89,"x_max":256,"o":"m 256 1039 q 231 1101 256 1075 q 172 1126 207 1126 q 113 1101 138 1126 q 89 1043 89 1076 q 109 988 89 1011 q 160 960 129 964 q 146 917 154 933 q 138 901 138 901 l 208 900 q 219 919 208 900 q 242 971 231 939 q 256 1039 254 1003 "},"̦":{"ha":0,"x_min":99,"x_max":265,"o":"m 265 -212 q 241 -151 265 -176 q 182 -125 217 -125 q 123 -150 147 -125 q 99 -208 99 -175 q 119 -264 99 -240 q 169 -292 139 -287 q 156 -334 164 -318 q 147 -350 147 -350 l 218 -351 q 229 -332 218 -351 q 252 -281 240 -312 q 265 -212 264 -249 "},"̧":{"ha":0,"x_min":0,"x_max":264,"o":"m 161 -33 l 178 10 l 101 10 l 60 -101 q 83 -97 71 -99 q 106 -96 94 -96 q 142 -101 121 -96 q 163 -121 163 -106 q 144 -140 163 -133 q 99 -146 126 -146 q 46 -140 72 -146 q 0 -124 19 -133 l 0 -210 q 40 -216 19 -211 q 110 -221 60 -221 q 181 -212 146 -221 q 240 -181 217 -203 q 264 -122 264 -160 q 247 -66 264 -85 q 205 -40 229 -47 q 161 -33 181 -33 "},"̨":{"ha":0,"x_min":0,"x_max":264,"o":"m 169 11 l 75 11 q 17 -51 33 -11 q 0 -118 0 -90 q 38 -190 0 -169 q 126 -210 75 -210 q 214 -201 182 -210 q 264 -187 246 -193 l 264 -97 q 213 -113 246 -104 q 157 -122 181 -122 q 104 -89 104 -122 q 122 -38 104 -65 q 169 11 139 -11 "},"¨":{"ha":353,"x_min":0,"x_max":353,"o":"m 126 892 q 108 935 126 917 q 64 954 89 954 q 19 935 38 954 q 0 892 0 917 q 19 847 0 865 q 64 829 38 829 q 108 847 89 829 q 126 892 126 865 m 353 892 q 334 935 353 917 q 289 954 315 954 q 244 935 263 954 q 226 892 226 917 q 244 847 226 865 q 289 829 263 829 q 334 847 315 829 q 353 892 353 865 "},"˙":{"ha":125,"x_min":0,"x_max":125,"o":"m 125 892 q 106 935 125 917 q 63 954 88 954 q 18 935 36 954 q 0 892 0 917 q 18 847 0 865 q 63 829 36 829 q 106 847 88 829 q 125 892 125 865 "},"`":{"ha":288,"x_min":0,"x_max":288,"o":"m 53 1038 l 0 918 l 254 826 l 288 900 l 53 1038 "},"´":{"ha":288,"x_min":0,"x_max":288,"o":"m 288 918 l 235 1038 l 0 900 l 33 826 l 288 918 "},"˝":{"ha":422,"x_min":0,"x_max":422,"o":"m 213 913 l 157 1007 l 0 867 l 28 821 l 213 913 m 422 913 l 367 1007 l 213 867 l 238 821 l 422 913 "},"ˆ":{"ha":444,"x_min":0,"x_max":444,"o":"m 385 826 l 444 896 l 215 1039 l 0 896 l 46 826 l 215 915 l 385 826 "},"ˇ":{"ha":431,"x_min":0,"x_max":431,"o":"m 46 1025 l 0 957 l 215 813 l 431 957 l 385 1025 l 215 938 l 46 1025 "},"˘":{"ha":397,"x_min":0,"x_max":397,"o":"m 397 1017 l 306 1017 q 292 988 303 1006 q 260 958 282 971 q 199 944 238 944 q 138 958 160 944 q 106 988 117 971 q 92 1017 96 1006 l 0 1017 q 9 968 1 999 q 38 906 17 938 q 97 852 58 874 q 199 831 136 831 q 300 852 261 831 q 360 906 339 874 q 388 968 381 938 q 397 1017 396 999 "},"˚":{"ha":286,"x_min":0,"x_max":286,"o":"m 0 918 q 38 835 0 871 q 143 800 76 800 q 247 835 208 800 q 286 918 286 871 q 249 1001 286 967 q 143 1036 213 1036 q 40 1001 81 1036 q 0 918 0 967 m 96 918 q 108 951 96 938 q 143 965 119 965 q 178 951 167 965 q 190 918 190 938 q 178 885 190 899 q 143 871 167 871 q 108 885 119 871 q 96 918 96 899 "},"˜":{"ha":386,"x_min":0,"x_max":386,"o":"m 386 992 l 299 992 q 296 971 299 985 q 284 945 293 957 q 256 933 275 933 q 215 948 233 933 q 176 977 197 963 q 124 992 156 992 q 38 950 75 992 q 0 825 0 908 l 86 825 q 90 846 88 832 q 102 872 93 860 q 131 883 111 883 q 169 869 153 883 q 206 840 185 854 q 263 825 228 825 q 350 862 314 825 q 386 992 386 899 "},"¯":{"ha":328,"x_min":0,"x_max":328,"o":"m 0 836 l 328 836 l 328 950 l 0 950 l 0 836 "},"¸":{"ha":264,"x_min":0,"x_max":264,"o":"m 161 -33 l 178 10 l 101 10 l 60 -101 q 83 -97 71 -99 q 106 -96 94 -96 q 142 -101 121 -96 q 163 -121 163 -106 q 144 -140 163 -133 q 99 -146 126 -146 q 46 -140 72 -146 q 0 -124 19 -133 l 0 -210 q 40 -216 19 -211 q 110 -221 60 -221 q 181 -212 146 -221 q 240 -181 217 -203 q 264 -122 264 -160 q 247 -66 264 -85 q 205 -40 229 -47 q 161 -33 181 -33 "},"˛":{"ha":264,"x_min":0,"x_max":264,"o":"m 169 11 l 75 11 q 17 -51 33 -11 q 0 -118 0 -90 q 38 -190 0 -169 q 126 -210 75 -210 q 214 -201 182 -210 q 264 -187 246 -193 l 264 -97 q 213 -113 246 -104 q 157 -122 181 -122 q 104 -89 104 -122 q 122 -38 104 -65 q 169 11 139 -11 "}}}
